<svg width="326" height="326" viewBox="0 0 326 326" fill="none" xmlns="http://www.w3.org/2000/svg">
<path d="M191.372 257.523V279.16H183.94L199.961 297.823L214.99 279.542H207.393V257.523H191.372Z" fill="#EBEBEB"/>
<path d="M219.719 94.538V102.155H217.103L222.743 108.726L228.034 102.29H225.36V94.538H219.719Z" fill="#EBEBEB"/>
<path d="M287.337 165.191V180.83H281.965L293.545 194.319L304.408 181.106H298.917V165.191H287.337Z" fill="#EBEBEB"/>
<path d="M39.6696 228.395V244.034H34.2971L45.8766 257.523L56.7403 244.31H51.2491V228.395H39.6696Z" fill="#EBEBEB"/>
<path d="M135.839 253.961V265.632H131.829L140.471 275.7L148.58 265.839H144.481V253.961H135.839Z" fill="#EBEBEB"/>
<path d="M109.724 63.0497C110.27 59.0797 104.667 55.8132 100.456 55.4741C98.4481 55.3124 96.363 55.6195 94.4605 54.9564C90.3392 53.5201 88.6929 48.1958 84.6713 46.4993C81.665 45.2312 78.2035 46.3598 75.2891 47.8268C72.3746 49.2938 69.4941 51.1396 66.238 51.3483C63.4057 51.5295 60.3296 50.4791 57.8513 51.8627C56.0049 52.8935 55.0373 55.0216 53.3356 56.2767C51.6704 57.5051 49.4986 57.7652 47.4324 57.8774C45.3662 57.9902 43.2276 58.011 41.3459 58.8723C39.4643 59.7336 37.9086 61.7229 38.2985 63.7552L109.724 63.0497Z" fill="#F5F5F5"/>
<path d="M305.474 137.127C305.949 133.674 301.075 130.832 297.412 130.537C295.665 130.396 293.85 130.663 292.196 130.086C288.61 128.836 287.179 124.205 283.68 122.73C281.065 121.627 278.054 122.609 275.518 123.885C272.983 125.161 270.477 126.766 267.645 126.948C265.181 127.105 262.505 126.191 260.349 127.396C258.743 128.293 257.902 130.143 256.421 131.236C254.972 132.304 253.083 132.53 251.286 132.628C249.488 132.726 247.628 132.744 245.992 133.493C244.355 134.242 243.002 135.973 243.341 137.74L305.474 137.127Z" fill="#F5F5F5"/>
<path d="M145.865 31.9623C146.097 30.2737 143.714 28.8836 141.922 28.7395C141.068 28.6704 140.181 28.8014 139.371 28.5191C137.618 27.9082 136.918 25.6432 135.207 24.9214C133.928 24.3822 132.456 24.8621 131.216 25.486C129.975 26.11 128.75 26.8957 127.365 26.9843C126.16 27.0613 124.851 26.6146 123.797 27.2034C123.011 27.6422 122.6 28.5472 121.876 29.0812C121.168 29.6034 120.243 29.7142 119.364 29.7618C118.485 29.8094 117.575 29.8186 116.775 30.185C115.975 30.5514 115.313 31.3977 115.479 32.2623L145.865 31.9623Z" fill="#E0E0E0"/>
<path d="M302.339 282.112C302.767 279.006 298.384 276.452 295.091 276.187C293.52 276.06 291.889 276.3 290.401 275.782C287.177 274.658 285.89 270.493 282.744 269.167C280.393 268.175 277.685 269.058 275.406 270.206C273.126 271.353 270.873 272.797 268.326 272.96C266.11 273.101 263.705 272.28 261.767 273.362C260.323 274.169 259.566 275.833 258.234 276.814C256.932 277.775 255.233 277.978 253.617 278.066C252.001 278.154 250.328 278.171 248.857 278.844C247.385 279.518 246.168 281.074 246.473 282.663L302.339 282.112Z" fill="#E0E0E0"/>
<path d="M138.604 93.3853L133.575 84.5227C135.8 80.9112 137.086 76.6602 137.086 72.1073C137.086 59.0145 126.472 48.4006 113.38 48.4006C100.287 48.4006 89.6729 59.0145 89.6729 72.1073C89.6729 85.2001 100.287 95.8134 113.38 95.8134C118.847 95.8134 123.877 93.9578 127.888 90.849L127.88 90.8595L138.604 93.3853Z" fill="#FAFAFA"/>
<path d="M138.604 93.3853C138.017 93.2516 134.668 92.4901 127.86 90.9423L127.733 90.9136L127.812 90.8086L127.82 90.7982L127.939 90.9162C125.258 93.0169 121.398 95.0622 116.555 95.7201C115.35 95.8746 114.091 95.9737 112.797 95.9111C112.151 95.8746 111.493 95.859 110.829 95.8036C110.17 95.7038 109.501 95.6034 108.823 95.501C106.136 94.971 103.388 93.9519 100.825 92.3617C98.2635 90.7773 95.8916 88.6257 93.9897 85.9818C92.0911 83.3425 90.6514 80.2129 89.9773 76.8121C89.3096 73.4158 89.365 69.7757 90.257 66.2523C91.1548 62.7413 92.833 59.3111 95.3445 56.4893C97.886 53.6068 101.028 51.2994 104.491 49.9595C107.939 48.5909 111.617 48.07 115.131 48.3249C118.648 48.5786 122.011 49.5879 124.897 51.2126C127.792 52.8244 130.233 54.9766 132.116 57.3799C134.006 59.7845 135.336 62.4368 136.16 65.0774C136.979 67.7304 137.2 70.3612 137.189 72.7964C137.05 77.7014 135.405 81.7295 133.642 84.5644L133.644 84.4816C136.798 90.1423 138.324 92.882 138.604 93.3853C138.316 92.8865 136.747 90.1716 133.504 84.5624L133.48 84.5214L133.505 84.4796C135.234 81.65 136.839 77.648 136.956 72.7906C136.955 70.3788 136.726 67.7767 135.908 65.1563C135.085 62.5483 133.761 59.9312 131.888 57.5605C130.022 55.1911 127.607 53.0715 124.747 51.4858C121.896 49.8871 118.577 48.8974 115.108 48.6516C111.64 48.4038 108.015 48.9209 104.617 50.2725C101.203 51.5947 98.1077 53.8715 95.6014 56.7129C93.1245 59.4943 91.471 62.8756 90.583 66.3358C89.7015 69.8083 89.6435 73.3989 90.2981 76.7489C90.9585 80.1034 92.3747 83.1926 94.2433 85.8006C96.1152 88.4131 98.4526 90.5426 100.979 92.1139C103.507 93.6904 106.219 94.7063 108.874 95.2389C109.544 95.3426 110.204 95.4443 110.856 95.5447C111.513 95.6015 112.164 95.6191 112.803 95.6575C114.083 95.7247 115.33 95.6308 116.523 95.4834C121.32 94.8523 125.157 92.8481 127.835 90.7825L128.355 90.3809L127.954 90.9005L127.946 90.911L127.899 90.7773C134.683 92.4301 138.019 93.2432 138.604 93.3853Z" fill="#263238"/>
<path d="M120.313 85.1668H104.948C104.208 85.1668 103.607 84.5664 103.607 83.8257V61.1178C103.607 60.3772 104.208 59.7767 104.948 59.7767H120.313C121.054 59.7767 121.654 60.3772 121.654 61.1178V83.8257C121.654 84.5664 121.054 85.1668 120.313 85.1668Z" fill="#263238"/>
<path d="M120.735 61.303H104.447V80.2781H120.735V61.303Z" fill="#FAFAFA"/>
<path d="M112.631 84.0708C113.386 84.0708 113.998 83.4587 113.998 82.7036C113.998 81.9485 113.386 81.3363 112.631 81.3363C111.876 81.3363 111.264 81.9485 111.264 82.7036C111.264 83.4587 111.876 84.0708 112.631 84.0708Z" fill="#455A64"/>
<path d="M114.915 67.0836L120.923 74.1767L126.555 67.0836H123.635V57.3212L117.793 57.2495L117.863 67.0986L114.915 67.0836Z" fill="#606060"/>
<path d="M115.284 69.7516C115.352 69.8162 114.207 71.1267 112.727 72.6778C111.246 74.2295 109.992 75.4344 109.924 75.3699C109.856 75.3053 111.001 73.9955 112.481 72.4437C113.962 70.8926 115.216 69.6871 115.284 69.7516Z" fill="#263238"/>
<path d="M114.104 68.8981C114.16 68.9731 113.525 69.7034 112.684 70.5281C111.844 71.3529 111.109 71.9678 111.042 71.9019C110.976 71.8361 111.611 71.1065 112.461 70.2719C113.312 69.438 114.048 68.8232 114.104 68.8981Z" fill="#263238"/>
<path d="M262.361 66.6409V77.6669H258.573L266.738 87.1783L274.397 77.8618H270.525V66.6409H262.361Z" fill="#606060"/>
<path opacity="0.3" d="M262.361 66.6409V77.6669H258.573L266.738 87.1783L274.397 77.8618H270.525V66.6409H262.361Z" fill="black"/>
<path d="M288.989 42.041C286.546 32.5772 277.978 25.5754 267.75 25.5754C260.816 25.5754 254.642 28.7975 250.618 33.8173C249.925 33.7371 249.222 33.6856 248.506 33.6856C238.433 33.6856 230.267 41.8512 230.267 51.924C230.267 61.9967 238.433 70.1624 248.506 70.1624H288.218C295.994 70.1624 302.298 63.8588 302.298 56.0824C302.298 48.5662 296.404 42.4432 288.989 42.041Z" fill="#606060"/>
<path d="M293.187 65.2476C293.151 65.1967 293.94 64.7032 294.987 63.6554C296.032 62.6187 297.296 60.9581 298.062 58.8378C298.829 56.7168 298.918 54.6317 298.778 53.166C298.643 51.6912 298.352 50.8071 298.412 50.7908C298.433 50.7843 298.525 50.9975 298.65 51.3991C298.775 51.8001 298.918 52.3934 299.017 53.14C299.222 54.6246 299.17 56.7716 298.381 58.9525C297.594 61.1335 296.261 62.8169 295.154 63.8275C294.6 64.3387 294.111 64.7038 293.758 64.9314C293.406 65.1602 293.198 65.2652 293.187 65.2476Z" fill="#263238"/>
<path d="M251.121 39.1513C251.109 39.2139 250.115 38.9603 248.482 38.9224C246.859 38.8781 244.572 39.1324 242.293 40.1299C240.013 41.1269 238.273 42.6343 237.205 43.8561C236.124 45.0812 235.636 45.983 235.582 45.949C235.564 45.9386 235.667 45.7045 235.897 45.3036C236.126 44.9019 236.497 44.3412 237.022 43.6997C238.061 42.4172 239.818 40.8406 242.157 39.8183C244.493 38.7953 246.845 38.5743 248.491 38.6819C249.319 38.7314 249.982 38.8403 250.432 38.9446C250.884 39.0483 251.126 39.1311 251.121 39.1513Z" fill="#263238"/>
<path d="M263.439 30.1433C263.444 30.2059 262.716 30.2515 261.592 30.5475C260.47 30.8383 258.965 31.4447 257.53 32.4813C256.099 33.5252 255.056 34.7699 254.433 35.7466C253.805 36.7233 253.535 37.4013 253.477 37.3779C253.456 37.3694 253.507 37.1946 253.621 36.8843C253.729 36.5713 253.934 36.1358 254.228 35.6214C254.519 35.1037 254.931 34.5254 255.443 33.9288C255.967 33.3433 256.598 32.7454 257.33 32.2068C258.069 31.6774 258.832 31.2621 259.551 30.9459C260.276 30.6434 260.954 30.4301 261.536 30.3147C262.116 30.1941 262.594 30.1335 262.925 30.1283C263.256 30.1152 263.438 30.1198 263.439 30.1433Z" fill="#263238"/>
<path d="M280.52 70.0079C280.52 70.1017 275.157 70.1774 268.543 70.1774C261.927 70.1774 256.565 70.1011 256.565 70.0079C256.565 69.9146 261.927 69.8383 268.543 69.8383C275.157 69.8383 280.52 69.914 280.52 70.0079Z" fill="#263238"/>
<path d="M281.863 102.858C281.769 102.858 281.693 98.4657 281.693 93.0489C281.693 87.6301 281.77 83.2389 281.863 83.2389C281.957 83.2389 282.032 87.6301 282.032 93.0489C282.032 98.4657 281.957 102.858 281.863 102.858Z" fill="#263238"/>
<path d="M285.697 111.427C285.603 111.427 285.527 105.773 285.527 98.7995C285.527 91.8238 285.603 86.1703 285.697 86.1703C285.791 86.1703 285.866 91.8238 285.866 98.7995C285.866 105.773 285.791 111.427 285.697 111.427Z" fill="#263238"/>
<path d="M158.618 236.486V268.087H147.763L171.162 295.346L193.113 268.646H182.017V236.486H158.618Z" fill="#606060"/>
<path opacity="0.3" d="M158.618 236.486V268.087H147.763L171.162 295.346L193.113 268.646H182.017V236.486H158.618Z" fill="black"/>
<path d="M234.931 165.986C227.931 138.863 203.374 118.798 174.064 118.798C154.191 118.798 136.499 128.032 124.965 142.418C122.976 142.189 120.962 142.04 118.912 142.04C90.0444 142.04 66.6422 165.442 66.6422 194.31C66.6422 223.178 90.0438 246.579 118.912 246.579H232.724C255.01 246.579 273.076 228.513 273.076 206.228C273.076 184.686 256.184 167.139 234.931 165.986Z" fill="#606060"/>
<path d="M131.798 175.502C131.787 175.502 131.771 175.383 131.752 175.157C131.735 174.892 131.712 174.565 131.686 174.167C131.674 173.948 131.661 173.71 131.647 173.454C131.624 173.193 131.58 172.912 131.545 172.609C131.461 172.005 131.411 171.311 131.24 170.561C131.166 170.184 131.089 169.789 131.009 169.379C130.925 168.969 130.794 168.552 130.683 168.116C130.477 167.237 130.14 166.333 129.815 165.374C129.089 163.483 128.135 161.461 126.898 159.475C125.636 157.503 124.22 155.773 122.824 154.304C122.097 153.598 121.425 152.906 120.72 152.342C120.373 152.054 120.054 151.756 119.719 151.505C119.383 151.256 119.06 151.018 118.751 150.789C118.147 150.312 117.543 149.968 117.033 149.633C116.774 149.471 116.539 149.311 116.314 149.179C116.089 149.056 115.879 148.942 115.686 148.837C115.339 148.642 115.053 148.482 114.822 148.352C114.625 148.238 114.524 148.173 114.53 148.162C114.535 148.151 114.645 148.196 114.852 148.29C115.092 148.405 115.388 148.547 115.748 148.719C115.946 148.817 116.162 148.923 116.394 149.037C116.625 149.162 116.866 149.315 117.131 149.47C117.653 149.792 118.272 150.125 118.89 150.592C119.206 150.817 119.536 151.053 119.879 151.297C120.221 151.544 120.548 151.84 120.902 152.126C121.621 152.686 122.307 153.376 123.047 154.085C124.471 155.555 125.91 157.3 127.186 159.292C128.437 161.3 129.393 163.348 130.109 165.264C130.431 166.237 130.759 167.153 130.956 168.043C131.062 168.485 131.189 168.907 131.266 169.322C131.339 169.737 131.409 170.136 131.477 170.518C131.634 171.277 131.669 171.978 131.735 172.588C131.761 172.894 131.796 173.178 131.809 173.44C131.813 173.699 131.816 173.939 131.819 174.16C131.82 174.559 131.821 174.888 131.821 175.154C131.818 175.383 131.81 175.502 131.798 175.502Z" fill="#263238"/>
<path d="M110.415 165.395C110.372 165.439 109.686 164.76 108.445 163.837C107.208 162.911 105.374 161.789 103.169 160.953C100.96 160.125 98.8412 159.755 97.3012 159.633C95.7592 159.507 94.7962 159.565 94.7936 159.503C94.7923 159.479 95.0309 159.449 95.4664 159.413C95.9013 159.37 96.5351 159.361 97.3168 159.393C98.8784 159.455 101.043 159.793 103.288 160.636C105.529 161.486 107.378 162.662 108.591 163.647C109.2 164.138 109.669 164.564 109.968 164.884C110.272 165.197 110.431 165.378 110.415 165.395Z" fill="#263238"/>
<path d="M134.36 210.012C134.359 210.036 133.991 210.046 133.326 210.044C132.661 210.044 131.699 210.024 130.512 209.981C128.137 209.898 124.857 209.704 121.247 209.351C117.635 208.995 114.38 208.547 112.034 208.167C110.861 207.978 109.914 207.811 109.262 207.682C108.609 207.554 108.25 207.473 108.254 207.45C108.258 207.427 108.624 207.464 109.282 207.552C110 207.649 110.938 207.777 112.068 207.93C114.421 208.249 117.674 208.658 121.279 209.013C124.883 209.366 128.154 209.596 130.523 209.741C131.662 209.81 132.607 209.868 133.33 209.912C133.994 209.954 134.36 209.989 134.36 210.012Z" fill="#263238"/>
<path d="M233.224 165.663C233.224 165.675 233.098 165.691 232.858 165.712C232.58 165.731 232.233 165.754 231.809 165.783C231.353 165.804 230.797 165.838 230.153 165.92C229.51 165.995 228.774 166.045 227.972 166.19C227.568 166.253 227.147 166.32 226.709 166.389C226.27 166.46 225.821 166.571 225.351 166.665C224.409 166.84 223.425 167.121 222.385 167.394C220.321 168.001 218.089 168.798 215.833 169.838C213.587 170.9 211.542 172.101 209.752 173.294C208.874 173.916 208.027 174.491 207.288 175.1C206.915 175.4 206.541 175.674 206.205 175.964C205.871 176.256 205.549 176.537 205.242 176.805C204.615 177.326 204.104 177.858 203.634 178.304C203.159 178.745 202.775 179.149 202.467 179.485C202.172 179.792 201.932 180.043 201.739 180.243C201.57 180.414 201.476 180.501 201.467 180.493C201.458 180.485 201.534 180.384 201.687 180.198C201.868 179.986 202.093 179.721 202.369 179.396C202.664 179.045 203.035 178.626 203.499 178.169C203.959 177.71 204.461 177.163 205.081 176.626C205.385 176.35 205.704 176.063 206.035 175.764C206.369 175.466 206.741 175.185 207.113 174.879C207.849 174.255 208.696 173.668 209.576 173.034C211.369 171.817 213.426 170.599 215.689 169.528C217.963 168.48 220.216 167.685 222.3 167.091C223.35 166.823 224.344 166.551 225.295 166.387C225.768 166.298 226.222 166.193 226.664 166.129C227.107 166.067 227.531 166.008 227.938 165.951C228.747 165.82 229.489 165.786 230.136 165.729C230.784 165.665 231.344 165.65 231.802 165.649C232.229 165.646 232.577 165.643 232.856 165.641C233.097 165.645 233.224 165.652 233.224 165.663Z" fill="#263238"/>
<path d="M229.999 246.935C229.999 247.028 204.8 247.104 173.724 247.104C142.637 247.104 117.444 247.028 117.444 246.935C117.444 246.841 142.637 246.765 173.724 246.765C204.8 246.765 229.999 246.841 229.999 246.935Z" fill="#263238"/>
<path d="M94.0895 269.552C93.9956 269.552 93.9193 264.838 93.9193 259.023C93.9193 253.207 93.9956 248.494 94.0895 248.494C94.1834 248.494 94.259 253.207 94.259 259.023C94.2597 264.837 94.1834 269.552 94.0895 269.552Z" fill="#263238"/>
<path d="M98.3673 288.964C98.2734 288.964 98.1978 282.335 98.1978 274.159C98.1978 265.98 98.274 259.352 98.3673 259.352C98.4605 259.352 98.5368 265.98 98.5368 274.159C98.5368 282.335 98.4605 288.964 98.3673 288.964Z" fill="#263238"/>
<path d="M40.559 122.637V129.391H38.2385L43.2407 135.218L47.9331 129.511H45.5611V122.637H40.559Z" fill="#606060"/>
<path opacity="0.3" d="M40.559 122.637V129.391H38.2385L43.2407 135.218L47.9331 129.511H45.5611V122.637H40.559Z" fill="black"/>
<path d="M56.8727 107.566C55.3764 101.767 50.1271 97.4786 43.8614 97.4786C39.613 97.4786 35.8307 99.4528 33.3655 102.528C32.9404 102.479 32.5101 102.447 32.0713 102.447C25.9001 102.447 20.8979 107.45 20.8979 113.62C20.8979 119.791 25.9007 124.793 32.0713 124.793H56.4007C61.1648 124.793 65.0266 120.932 65.0266 116.167C65.0266 111.563 61.4158 107.812 56.8727 107.566Z" fill="#606060"/>
<path d="M59.4449 121.783C59.4129 121.736 59.8863 121.42 60.5155 120.773C61.144 120.133 61.9049 119.12 62.3698 117.833C62.8353 116.545 62.8979 115.279 62.8242 114.386C62.7544 113.486 62.5921 112.941 62.6462 112.925C62.6808 112.911 62.9279 113.438 63.0628 114.359C63.2011 115.273 63.1769 116.6 62.6892 117.948C62.2022 119.296 61.3729 120.332 60.6824 120.946C59.9887 121.569 59.4625 121.815 59.4449 121.783Z" fill="#263238"/>
<path d="M33.6732 105.795C33.6615 105.851 33.0499 105.712 32.055 105.701C31.0652 105.686 29.6765 105.848 28.2916 106.455C26.9061 107.06 25.844 107.971 25.1835 108.707C24.5159 109.445 24.2029 109.988 24.154 109.959C24.1214 109.944 24.362 109.351 25.001 108.551C25.6314 107.753 26.7118 106.774 28.1553 106.143C29.5982 105.511 31.0509 105.383 32.0641 105.46C33.0858 105.535 33.6843 105.76 33.6732 105.795Z" fill="#263238"/>
<path d="M41.2202 100.276C41.2241 100.332 40.7801 100.377 40.0994 100.569C39.4193 100.757 38.5091 101.132 37.6381 101.762C36.7696 102.395 36.132 103.145 35.7421 103.733C35.3496 104.321 35.169 104.729 35.1168 104.708C35.0816 104.696 35.1833 104.251 35.5373 103.607C35.8868 102.966 36.5284 102.15 37.4386 101.486C38.3514 100.827 39.3248 100.469 40.0433 100.335C40.7644 100.198 41.2195 100.24 41.2202 100.276Z" fill="#263238"/>
<path d="M51.684 124.7C51.684 124.793 48.3986 124.869 44.3464 124.869C40.293 124.869 37.0082 124.793 37.0082 124.7C37.0082 124.606 40.293 124.53 44.3464 124.53C48.3986 124.529 51.684 124.606 51.684 124.7Z" fill="#263238"/>
<path d="M52.5069 144.825C52.413 144.825 52.3374 142.134 52.3374 138.815C52.3374 135.495 52.4137 132.805 52.5069 132.805C52.6002 132.805 52.6764 135.495 52.6764 138.815C52.6771 142.134 52.6008 144.825 52.5069 144.825Z" fill="#263238"/>
<path d="M54.856 150.075C54.7622 150.075 54.6865 146.611 54.6865 142.338C54.6865 138.064 54.7628 134.601 54.856 134.601C54.9499 134.601 55.0256 138.064 55.0256 142.338C55.0256 146.611 54.9493 150.075 54.856 150.075Z" fill="#263238"/>
<g opacity="0.3">
<path d="M249.365 186.93C248.087 179.486 238.198 171.937 229.694 173.633C222.288 175.11 214.312 176.831 206.989 178.68C203.968 179.443 200.834 175.771 198.303 173.954C196.973 172.998 196.193 171.479 195.363 170.068C190.651 162.057 182.895 156.043 174.229 152.686C165.562 149.33 156.031 148.526 146.793 149.539C139.629 150.324 131.769 152.794 128.436 159.184C127.094 161.758 126.563 164.853 124.479 166.873C121.704 169.562 117.303 169.347 113.687 170.709C106.455 173.432 102.788 183.78 103.699 191.454C104.609 199.132 111.441 209.018 125.79 210.596C125.79 210.596 177.775 211.05 203.446 212.294C212.344 212.725 215.028 211.5 223.933 211.269C239.639 210.86 251.709 200.575 249.365 186.93Z" fill="black"/>
</g>
<path d="M153.869 224.318C154.742 224.102 155.715 223.199 156.469 222.714C158.32 221.522 160.151 220.3 161.962 219.047C155.455 217.153 149.931 215.661 143.424 213.812C143.235 216.359 143.414 219.122 144.142 221.57C144.742 223.585 145.891 225.728 147.924 226.262C149.772 226.748 151.65 225.73 153.277 224.726C153.428 224.633 153.579 224.54 153.73 224.446" fill="#E0E0E0"/>
<path d="M154.99 220.724C154.89 220.714 154.931 219.869 154.701 218.873C154.482 217.873 154.081 217.128 154.167 217.076C154.236 217.022 154.796 217.732 155.032 218.798C155.276 219.862 155.075 220.743 154.99 220.724Z" fill="#263238"/>
<path d="M156.391 220.384C156.295 220.364 156.374 219.712 156.287 218.923C156.208 218.134 155.995 217.512 156.085 217.473C156.163 217.43 156.538 218.034 156.625 218.888C156.717 219.741 156.477 220.41 156.391 220.384Z" fill="#263238"/>
<path d="M147.793 215.044C147.851 215.058 147.664 215.721 147.654 216.81C147.64 217.887 147.849 219.427 148.672 220.857C149.502 222.305 150.457 223.493 151.337 224.125C152.209 224.772 152.9 224.903 152.879 224.967C152.875 224.986 152.701 224.973 152.399 224.889C152.096 224.809 151.671 224.63 151.199 224.322C150.242 223.712 149.22 222.497 148.378 221.028C147.512 219.521 147.338 217.909 147.415 216.802C147.451 216.244 147.536 215.798 147.621 215.498C147.704 215.197 147.773 215.038 147.793 215.044Z" fill="#455A64"/>
<path d="M152.88 216.551C152.955 216.52 153.646 218.176 153.94 220.356C154.237 222.537 154.012 224.316 153.931 224.306C153.825 224.301 153.895 222.539 153.603 220.401C153.316 218.264 152.779 216.583 152.88 216.551Z" fill="#455A64"/>
<path d="M151.406 223.485C151.376 223.517 150.967 223.219 150.373 222.654C149.786 222.09 149 221.239 148.432 220.098C147.865 218.954 147.725 217.762 147.843 216.937C147.953 216.104 148.241 215.656 148.271 215.674C148.326 215.695 148.125 216.165 148.082 216.959C148.031 217.747 148.198 218.861 148.738 219.948C149.278 221.036 150.01 221.887 150.546 222.487C151.088 223.086 151.44 223.448 151.406 223.485Z" fill="#606060"/>
<path d="M160.523 219.951C160.563 220.036 159.536 220.676 158.229 221.381C156.921 222.087 155.822 222.593 155.774 222.513C155.726 222.432 156.752 221.792 158.068 221.082C159.383 220.373 160.483 219.866 160.523 219.951Z" fill="#606060"/>
<path d="M150.145 223.579C150.21 223.635 149.437 224.44 148.162 224.859C146.89 225.289 145.789 225.11 145.807 225.027C145.81 224.924 146.858 224.945 148.054 224.537C149.255 224.145 150.081 223.5 150.145 223.579Z" fill="#455A64"/>
<path d="M147.931 220.237C147.941 220.338 147.053 220.459 146.071 220.912C145.084 221.354 144.409 221.942 144.34 221.869C144.272 221.814 144.879 221.076 145.931 220.603C146.979 220.122 147.934 220.15 147.931 220.237Z" fill="#455A64"/>
<path d="M147.504 217.271C147.452 217.359 146.572 216.834 145.356 216.675C144.143 216.497 143.154 216.762 143.127 216.663C143.086 216.587 144.099 216.15 145.403 216.338C146.708 216.513 147.564 217.209 147.504 217.271Z" fill="#455A64"/>
<path d="M197.42 207.846C197.458 207.907 172.963 213.812 172.963 213.812L169.36 205.366L171.014 202.816C171.014 202.816 181.366 200.478 189.793 195.712L197.42 207.846Z" fill="#FFBE9D"/>
<path d="M139.936 183.823C139.936 183.823 138.82 182.189 134.062 179.862C130.118 177.933 119.993 176.311 115.896 184.233C111.798 192.156 114.939 204.312 121.769 206.907C128.599 209.503 139.936 213.053 144.58 214.556C149.224 216.059 164.522 219.883 164.522 219.883L170.806 216.195L171.546 204.469C171.546 204.469 162.883 195.57 155.507 193.111C148.131 190.653 139.936 183.823 139.936 183.823Z" fill="#263238"/>
<path d="M125.79 178.299C125.856 178.201 132.742 178.394 137.766 180.29C139.658 181.004 141.508 181.763 141.508 181.763L144.287 173.849L165.105 166.914H188.155L195.654 181.763V182.513C195.654 182.513 204.654 182.663 208.553 180.863C212.453 179.063 224.602 173.813 227.752 172.764C230.902 171.714 245.001 169.694 248.151 178.278C251.3 186.863 249.066 195.812 243.801 199.081C241.32 200.622 199.404 211.461 199.404 211.461L189.505 195.712C189.505 195.712 174.413 203.189 169.36 202.376C164.307 201.561 125.79 178.299 125.79 178.299Z" fill="#263238"/>
<path d="M168.299 170.741C168.311 170.738 168.346 170.842 168.403 171.043C168.465 171.284 168.542 171.575 168.634 171.927C168.822 172.698 169.066 173.821 169.312 175.218C169.82 178.011 170.326 181.9 170.721 186.209C171.107 190.521 171.32 194.434 171.405 197.268C171.451 198.685 171.464 199.833 171.462 200.626C171.457 200.99 171.453 201.291 171.449 201.54C171.441 201.748 171.432 201.858 171.421 201.859C171.409 201.859 171.395 201.75 171.38 201.541C171.367 201.293 171.35 200.993 171.33 200.63C171.288 199.785 171.233 198.653 171.165 197.279C171.02 194.451 170.768 190.545 170.383 186.24C169.989 181.937 169.522 178.053 169.075 175.258C168.861 173.859 168.653 172.733 168.505 171.955C168.438 171.598 168.382 171.303 168.336 171.059C168.301 170.853 168.288 170.743 168.299 170.741Z" fill="#455A64"/>
<path d="M195.422 182.88C195.433 182.973 190.205 183.631 183.749 184.347C177.291 185.064 172.049 185.57 172.038 185.477C172.028 185.384 177.253 184.727 183.712 184.01C190.168 183.293 195.412 182.788 195.422 182.88Z" fill="#455A64"/>
<path d="M191.983 182.914C191.978 182.937 191.713 182.915 191.238 182.854C190.763 182.79 190.074 182.707 189.224 182.615C187.524 182.432 185.164 182.267 182.556 182.31C179.947 182.358 177.595 182.604 175.902 182.848C175.055 182.968 174.37 183.076 173.898 183.156C173.426 183.233 173.161 183.265 173.156 183.242C173.15 183.219 173.405 183.144 173.872 183.026C174.337 182.906 175.018 182.761 175.864 182.61C177.555 182.305 179.923 182.018 182.55 181.971C185.177 181.927 187.552 182.131 189.253 182.377C190.104 182.499 190.79 182.619 191.259 182.723C191.73 182.825 191.987 182.891 191.983 182.914Z" fill="#455A64"/>
<path d="M195.169 182.014C195.117 182.112 193.288 180.909 190.702 180.355C188.122 179.771 185.957 180.095 185.951 179.983C185.945 179.944 186.474 179.811 187.353 179.751C188.23 179.691 189.458 179.735 190.775 180.023C192.091 180.315 193.225 180.79 193.994 181.214C194.767 181.637 195.191 181.981 195.169 182.014Z" fill="#455A64"/>
<path d="M175.972 194.906C176.025 194.975 175.146 195.688 173.861 196.199C172.578 196.716 171.451 196.806 171.441 196.718C171.424 196.62 172.494 196.384 173.735 195.883C174.979 195.39 175.916 194.823 175.972 194.906Z" fill="#455A64"/>
<path d="M174.865 197.825C174.895 197.91 174.144 198.248 173.147 198.388C172.15 198.533 171.335 198.419 171.34 198.329C171.344 198.231 172.138 198.192 173.099 198.052C174.061 197.917 174.834 197.733 174.865 197.825Z" fill="#455A64"/>
<path d="M210.291 181.437C210.297 181.448 210.191 181.519 209.985 181.647C209.745 181.79 209.444 181.97 209.076 182.19C208.237 182.672 207.094 183.33 205.699 184.133C202.794 185.766 198.852 187.983 194.496 190.432C190.119 192.849 186.159 195.035 183.242 196.646C181.825 197.409 180.665 198.036 179.813 198.494C179.432 198.692 179.121 198.853 178.873 198.982C178.656 199.09 178.54 199.142 178.534 199.131C178.528 199.121 178.634 199.049 178.84 198.921C179.081 198.778 179.382 198.598 179.75 198.378C180.588 197.895 181.732 197.237 183.127 196.435C186.031 194.801 189.973 192.585 194.331 190.135C198.705 187.72 202.664 185.534 205.581 183.923C206.998 183.16 208.159 182.533 209.01 182.074C209.392 181.877 209.703 181.715 209.951 181.587C210.168 181.479 210.285 181.428 210.291 181.437Z" fill="#455A64"/>
<path d="M227.872 178.117C227.874 178.129 227.729 178.166 227.451 178.224C227.139 178.289 226.736 178.372 226.236 178.475C225.181 178.692 223.662 179.043 221.81 179.565C218.103 180.594 213.104 182.461 207.856 185.1C202.603 187.736 198.054 190.512 194.763 192.516C193.146 193.507 191.824 194.316 190.87 194.901C190.432 195.163 190.078 195.375 189.804 195.539C189.559 195.682 189.427 195.752 189.42 195.742C189.414 195.732 189.534 195.642 189.767 195.481C190.032 195.303 190.374 195.074 190.799 194.789C191.698 194.195 193.007 193.345 194.636 192.312C197.896 190.255 202.433 187.441 207.703 184.796C212.969 182.149 218.007 180.306 221.746 179.334C223.613 178.839 225.145 178.523 226.21 178.345C226.741 178.246 227.158 178.198 227.439 178.157C227.722 178.12 227.871 178.106 227.872 178.117Z" fill="#455A64"/>
<path d="M238.198 175.155C238.192 175.212 237.437 175.146 236.223 175.181C235.01 175.214 233.334 175.391 231.549 175.882C229.765 176.38 228.238 177.09 227.181 177.687C226.121 178.282 225.509 178.726 225.474 178.681C225.46 178.662 225.6 178.534 225.867 178.317C226.131 178.096 226.538 177.808 227.059 177.48C228.098 176.822 229.642 176.062 231.459 175.556C233.278 175.055 234.993 174.913 236.222 174.942C236.838 174.955 237.335 174.994 237.675 175.046C238.015 175.093 238.2 175.131 238.198 175.155Z" fill="#455A64"/>
<path d="M234.569 177.91C234.554 178.011 232.823 177.783 230.686 177.862C228.548 177.93 226.837 178.276 226.815 178.176C226.79 178.094 228.496 177.592 230.674 177.523C232.851 177.442 234.588 177.827 234.569 177.91Z" fill="#455A64"/>
<path d="M227.008 175.248C227.055 175.339 225.553 176.136 223.883 177.382C222.205 178.619 221.007 179.826 220.934 179.755C220.868 179.7 221.973 178.37 223.68 177.109C225.381 175.841 226.975 175.17 227.008 175.248Z" fill="#455A64"/>
<path d="M249.067 182.688C249.073 182.692 249.05 182.738 249.002 182.827C248.942 182.932 248.87 183.059 248.781 183.215C248.585 183.555 248.278 184.049 247.844 184.656C246.991 185.877 245.579 187.558 243.459 189.199C241.339 190.833 238.584 192.462 235.375 193.937C232.168 195.419 228.508 196.72 224.675 198.066C217.011 200.746 210.075 203.172 205.021 204.941C202.522 205.797 200.491 206.494 199.052 206.987C198.367 207.215 197.823 207.395 197.423 207.527C197.252 207.58 197.112 207.624 196.997 207.659C196.9 207.687 196.849 207.699 196.847 207.693C196.845 207.688 196.892 207.665 196.985 207.626C197.097 207.582 197.234 207.528 197.4 207.462C197.795 207.315 198.331 207.114 199.007 206.861C200.437 206.344 202.457 205.612 204.941 204.713C209.986 202.921 216.911 200.462 224.562 197.744C228.396 196.398 232.048 195.11 235.246 193.652C238.443 192.2 241.195 190.602 243.313 189.008C245.432 187.406 246.856 185.768 247.738 184.577C248.186 183.985 248.509 183.505 248.724 183.177C248.823 183.029 248.906 182.908 248.973 182.807C249.03 182.726 249.062 182.685 249.067 182.688Z" fill="#455A64"/>
<path d="M170.113 216.612C170.108 216.623 169.944 216.565 169.636 216.445C169.3 216.309 168.853 216.13 168.294 215.905C167.134 215.425 165.461 214.715 163.406 213.811C159.293 212.008 153.653 209.42 147.495 206.414C141.341 203.394 135.841 200.514 131.951 198.264C130.002 197.147 128.454 196.192 127.398 195.511C126.898 195.177 126.497 194.91 126.195 194.707C125.923 194.52 125.783 194.418 125.789 194.408C125.796 194.398 125.948 194.482 126.233 194.65C126.543 194.838 126.954 195.088 127.469 195.399C128.544 196.045 130.108 196.967 132.069 198.055C135.983 200.249 141.495 203.091 147.644 206.11C153.797 209.113 159.417 211.734 163.503 213.593C165.523 214.507 167.17 215.252 168.346 215.784C168.894 216.034 169.332 216.233 169.662 216.383C169.963 216.522 170.117 216.601 170.113 216.612Z" fill="#455A64"/>
<path d="M127.407 182.409C127.397 182.391 127.598 182.252 127.984 182.041C128.37 181.829 128.951 181.558 129.697 181.297C131.178 180.77 133.387 180.356 135.798 180.666C138.18 180.953 140.316 181.562 141.702 182.342C142.398 182.722 142.917 183.103 143.246 183.399C143.576 183.692 143.735 183.878 143.721 183.893C143.678 183.946 142.987 183.243 141.593 182.555C140.211 181.848 138.117 181.289 135.756 181.003C133.406 180.702 131.248 181.066 129.772 181.526C128.284 181.982 127.435 182.465 127.407 182.409Z" fill="#455A64"/>
<path d="M171.546 204.469C171.538 204.478 171.433 204.396 171.241 204.234C171.022 204.046 170.746 203.809 170.406 203.519C169.684 202.896 168.616 202.02 167.284 200.954C164.622 198.819 160.865 195.968 156.725 192.804C155.694 192.01 154.686 191.235 153.713 190.486C152.731 189.761 151.732 189.13 150.769 188.548C148.837 187.39 147.05 186.404 145.637 185.433C144.213 184.477 143.155 183.567 142.486 182.881C142.14 182.549 141.905 182.259 141.741 182.068C141.579 181.875 141.498 181.77 141.507 181.763C141.534 181.738 141.878 182.141 142.578 182.786C143.271 183.438 144.34 184.309 145.769 185.233C147.189 186.171 148.979 187.131 150.929 188.279C151.902 188.856 152.913 189.488 153.911 190.219C154.904 190.958 155.891 191.747 156.932 192.535C161.071 195.698 164.808 198.582 167.436 200.768C168.75 201.86 169.796 202.765 170.494 203.42C170.848 203.741 171.108 204.006 171.287 204.184C171.465 204.363 171.554 204.461 171.546 204.469Z" fill="#455A64"/>
<path d="M154.357 188.214C154.378 188.167 155.254 188.526 156.678 189.079C158.102 189.633 160.08 190.363 162.3 191.067C164.521 191.77 166.56 192.312 168.043 192.679C169.525 193.047 170.448 193.257 170.438 193.307C170.433 193.33 170.197 193.306 169.774 193.242C169.349 193.179 168.74 193.068 167.989 192.913C166.488 192.605 164.429 192.097 162.197 191.391C159.967 190.683 157.991 189.913 156.587 189.301C155.884 188.995 155.321 188.735 154.939 188.542C154.555 188.35 154.347 188.234 154.357 188.214Z" fill="#455A64"/>
<path d="M161.565 182.434C161.57 182.482 160.674 182.62 159.225 182.837C157.776 183.055 155.777 183.361 153.579 183.754C151.379 184.148 149.398 184.554 147.964 184.853C146.529 185.152 145.641 185.334 145.629 185.286C145.623 185.263 145.838 185.188 146.232 185.071C146.625 184.953 147.199 184.798 147.91 184.619C149.333 184.26 151.313 183.815 153.519 183.42C155.724 183.026 157.736 182.756 159.195 182.599C159.925 182.521 160.516 182.467 160.926 182.441C161.335 182.415 161.562 182.411 161.565 182.434Z" fill="#455A64"/>
<path d="M158.476 178.608C158.479 178.662 157.578 178.737 156.139 178.953C154.7 179.167 152.725 179.558 150.606 180.213C148.488 180.873 146.639 181.669 145.332 182.307C144.023 182.944 143.239 183.393 143.21 183.346C143.198 183.325 143.381 183.192 143.724 182.969C144.066 182.742 144.577 182.441 145.222 182.093C146.51 181.396 148.365 180.555 150.505 179.888C152.646 179.226 154.651 178.869 156.108 178.715C156.837 178.636 157.428 178.595 157.838 178.588C158.248 178.578 158.475 178.584 158.476 178.608Z" fill="#455A64"/>
<path d="M184.675 211.526L180.775 220.643C182.214 221.937 187.692 222.779 189.624 222.682C191.558 222.585 194.343 222.607 196.265 222.387C198.707 222.108 201.174 222.29 203.627 222.441C206.08 222.592 208.557 222.71 210.981 222.307C213.406 221.904 215.801 220.936 217.527 219.186C219.253 217.437 220.207 214.827 219.598 212.446C219.072 210.387 217.443 208.716 215.514 207.824C213.585 206.931 211.387 206.752 209.273 206.968C207.158 207.185 205.103 207.778 203.064 208.376C200.896 209.012 198.67 209.662 196.418 209.484C195.959 209.448 195.503 209.463 195.05 209.38C192.105 208.838 189.031 208.808 186.378 210.478C185.832 210.823 185.228 211.121 184.675 211.526Z" fill="#E0E0E0"/>
<path d="M185.24 212.573C185.233 212.564 185.349 212.45 185.584 212.244C185.825 212.047 186.189 211.762 186.705 211.466C187.72 210.885 189.414 210.218 191.564 210.419C192.621 210.522 193.758 210.738 194.979 210.922C196.198 211.1 197.514 211.262 198.881 211.113C200.251 210.975 201.653 210.569 203.106 210.141C204.556 209.715 206.093 209.269 207.72 209.158C209.336 209.028 210.951 209.13 212.431 209.565C213.17 209.778 213.875 210.065 214.528 210.415C215.182 210.754 215.788 211.211 216.261 211.738C217.224 212.789 217.846 214.031 218.133 215.262C218.273 215.876 218.315 216.513 218.191 217.096C218.075 217.678 217.848 218.208 217.566 218.665C217.003 219.588 216.243 220.234 215.537 220.691C214.826 221.151 214.16 221.447 213.615 221.675C213.068 221.9 212.636 222.052 212.342 222.153C212.048 222.253 211.892 222.299 211.888 222.288C211.883 222.277 212.032 222.209 212.318 222.089C212.604 221.968 213.027 221.795 213.563 221.554C214.095 221.309 214.745 220.998 215.431 220.533C216.114 220.07 216.834 219.435 217.36 218.542C217.893 217.663 218.185 216.508 217.858 215.326C217.574 214.151 216.96 212.952 216.032 211.952C215.117 210.941 213.762 210.312 212.34 209.885C210.904 209.469 209.332 209.37 207.747 209.497C204.565 209.731 201.744 211.182 198.912 211.425C197.5 211.569 196.16 211.392 194.936 211.201C193.71 211.004 192.578 210.775 191.539 210.658C189.455 210.432 187.787 211.045 186.768 211.582C185.737 212.139 185.263 212.603 185.24 212.573Z" fill="#455A64"/>
<path d="M211.888 222.288C211.869 222.303 211.744 222.161 211.534 221.891C211.423 221.759 211.304 221.587 211.179 221.379C211.049 221.174 210.899 220.94 210.766 220.664C210.466 220.128 210.202 219.444 209.949 218.674C209.719 217.896 209.529 217.021 209.427 216.09C209.337 215.157 209.346 214.262 209.411 213.453C209.503 212.647 209.623 211.923 209.807 211.337C209.881 211.04 209.981 210.781 210.067 210.553C210.147 210.323 210.23 210.131 210.311 209.98C210.463 209.673 210.556 209.51 210.578 209.52C210.635 209.545 210.314 210.228 210.04 211.398C209.889 211.979 209.797 212.691 209.724 213.479C209.676 214.271 209.677 215.144 209.765 216.055C209.864 216.965 210.041 217.82 210.249 218.585C210.481 219.342 210.715 220.02 210.981 220.559C211.486 221.648 211.938 222.252 211.888 222.288Z" fill="#263238"/>
<path d="M187.078 210.253C187.161 210.299 187.058 210.638 186.892 211.03C186.724 211.421 186.55 211.729 186.46 211.701C186.371 211.674 186.404 211.306 186.58 210.897C186.754 210.486 186.997 210.207 187.078 210.253Z" fill="#455A64"/>
<path d="M189.863 209.166C189.949 209.205 189.879 209.541 189.752 209.933C189.623 210.325 189.479 210.636 189.387 210.617C189.296 210.598 189.293 210.239 189.429 209.827C189.563 209.415 189.778 209.127 189.863 209.166Z" fill="#455A64"/>
<path d="M193.439 209.1C193.528 209.129 193.482 209.513 193.336 209.957C193.191 210.402 193.001 210.738 192.911 210.709C192.822 210.679 192.868 210.296 193.014 209.851C193.16 209.407 193.35 209.07 193.439 209.1Z" fill="#455A64"/>
<path d="M196.798 209.519C196.888 209.545 196.856 209.931 196.726 210.38C196.596 210.83 196.418 211.174 196.328 211.148C196.238 211.122 196.27 210.736 196.4 210.286C196.529 209.836 196.708 209.493 196.798 209.519Z" fill="#455A64"/>
<path d="M199.63 211.292C199.536 211.291 199.463 210.837 199.466 210.277C199.469 209.717 199.547 209.264 199.641 209.265C199.735 209.265 199.809 209.719 199.806 210.279C199.802 210.839 199.723 211.292 199.63 211.292Z" fill="#455A64"/>
<path d="M202.783 210.493C202.691 210.506 202.558 210.103 202.487 209.593C202.417 209.083 202.434 208.66 202.528 208.647C202.62 208.634 202.753 209.037 202.824 209.547C202.894 210.057 202.876 210.481 202.783 210.493Z" fill="#455A64"/>
<path d="M205.679 207.639C205.771 207.622 205.921 208.004 206.014 208.494C206.106 208.984 206.106 209.394 206.014 209.411C205.923 209.429 205.773 209.046 205.68 208.557C205.587 208.068 205.587 207.657 205.679 207.639Z" fill="#455A64"/>
<path d="M209.435 206.949C209.527 206.969 209.491 207.505 209.355 208.147C209.218 208.789 209.034 209.294 208.943 209.274C208.851 209.255 208.886 208.719 209.023 208.077C209.158 207.434 209.343 206.93 209.435 206.949Z" fill="#455A64"/>
<path d="M212.654 207.04C212.739 207.078 212.51 207.672 212.141 208.365C211.772 209.058 211.408 209.58 211.328 209.531C211.248 209.481 211.478 208.888 211.841 208.206C212.205 207.523 212.568 207.002 212.654 207.04Z" fill="#455A64"/>
<path d="M215.936 207.905C216.014 207.956 215.713 208.558 215.262 209.248C214.811 209.939 214.382 210.458 214.303 210.407C214.225 210.355 214.526 209.754 214.978 209.063C215.428 208.372 215.858 207.853 215.936 207.905Z" fill="#455A64"/>
<path d="M218.045 209.882C218.122 209.936 217.836 210.481 217.406 211.099C216.976 211.717 216.565 212.175 216.488 212.122C216.411 212.068 216.698 211.523 217.127 210.904C217.557 210.287 217.968 209.829 218.045 209.882Z" fill="#455A64"/>
<path d="M219.524 212.401C219.599 212.454 219.308 212.984 218.813 213.53C218.318 214.078 217.82 214.419 217.759 214.35C217.696 214.279 218.08 213.835 218.561 213.302C219.043 212.771 219.447 212.344 219.524 212.401Z" fill="#455A64"/>
<path d="M219.309 216.24C219.382 216.295 219.212 216.612 218.828 216.78C218.444 216.95 218.095 216.862 218.104 216.77C218.107 216.675 218.386 216.607 218.691 216.469C218.998 216.338 219.236 216.177 219.309 216.24Z" fill="#455A64"/>
<path d="M217.222 219.528C217.252 219.616 217.159 219.725 217.018 219.701C216.877 219.676 216.826 219.541 216.885 219.469C216.943 219.395 217.024 219.359 217.077 219.366C217.129 219.378 217.192 219.438 217.222 219.528Z" fill="#455A64"/>
<path d="M194.485 220.829C194.393 220.775 195.246 219.543 195.551 217.775C195.88 216.011 195.509 214.56 195.614 214.541C195.687 214.499 196.229 215.98 195.885 217.835C195.562 219.693 194.538 220.894 194.485 220.829Z" fill="#263238"/>
<path d="M197.173 220.519C197.083 220.464 197.887 219.335 198.149 217.701C198.435 216.07 198.043 214.741 198.146 214.718C198.217 214.672 198.783 216.03 198.484 217.757C198.204 219.487 197.225 220.587 197.173 220.519Z" fill="#263238"/>
<path d="M200.555 220.541C200.465 220.483 201.421 219.296 201.735 217.512C202.08 215.733 201.611 214.284 201.716 214.262C201.754 214.249 201.925 214.589 202.054 215.189C202.183 215.786 202.239 216.648 202.07 217.574C201.897 218.499 201.537 219.284 201.202 219.795C200.867 220.31 200.585 220.566 200.555 220.541Z" fill="#263238"/>
<path d="M204.375 220.313C204.279 220.265 205.038 218.966 205.254 217.172C205.494 215.381 205.085 213.934 205.189 213.911C205.261 213.869 205.839 215.338 205.591 217.215C205.361 219.094 204.434 220.372 204.375 220.313Z" fill="#263238"/>
<path d="M193.801 217.449C193.804 217.467 193.611 217.536 193.247 217.525C192.886 217.514 192.353 217.394 191.796 217.051C191.236 216.712 190.688 216.15 190.175 215.483C189.922 215.153 189.626 214.796 189.471 214.318C189.397 214.082 189.365 213.82 189.413 213.553C189.458 213.288 189.607 213.027 189.82 212.851C190.248 212.493 190.828 212.428 191.305 212.571C191.784 212.712 192.161 213.006 192.469 213.307C193.081 213.918 193.467 214.606 193.694 215.209C193.921 215.815 193.993 216.337 194.012 216.694C194.029 217.052 193.999 217.248 193.979 217.248C193.914 217.256 193.954 216.447 193.471 215.299C193.226 214.733 192.836 214.093 192.251 213.532C191.96 213.257 191.614 213.004 191.214 212.891C190.825 212.776 190.359 212.842 190.04 213.109C189.714 213.37 189.665 213.829 189.789 214.22C189.911 214.616 190.177 214.96 190.424 215.293C190.915 215.958 191.418 216.505 191.927 216.849C192.961 217.557 193.814 217.392 193.801 217.449Z" fill="#263238"/>
<path d="M193.618 217.349C193.639 217.357 193.596 217.534 193.491 217.846C193.384 218.157 193.225 218.608 192.936 219.131C192.648 219.647 192.201 220.255 191.484 220.655C191.13 220.853 190.705 220.994 190.248 220.993C189.8 220.99 189.273 220.842 188.977 220.376C188.69 219.89 188.866 219.333 189.118 218.968C189.38 218.593 189.738 218.322 190.1 218.145C190.829 217.788 191.537 217.684 192.107 217.57C193.258 217.353 193.975 217.243 193.984 217.288C193.994 217.334 193.296 217.528 192.158 217.805C191.593 217.947 190.904 218.08 190.245 218.423C189.917 218.592 189.613 218.835 189.394 219.154C189.184 219.463 189.077 219.892 189.269 220.2C189.457 220.512 189.877 220.658 190.251 220.66C190.64 220.665 191.014 220.551 191.336 220.379C191.991 220.034 192.428 219.49 192.731 219.008C193.316 218.02 193.558 217.321 193.618 217.349Z" fill="#263238"/>
<path d="M193.375 220.126C193.3 220.061 193.676 219.561 193.786 218.833C193.913 218.107 193.716 217.514 193.807 217.476C193.881 217.423 194.263 218.047 194.121 218.887C193.989 219.729 193.429 220.199 193.375 220.126Z" fill="#263238"/>
<path d="M194.828 215.57C194.916 215.597 194.839 216.092 194.552 216.628C194.266 217.165 193.896 217.503 193.826 217.445C193.751 217.386 193.984 216.974 194.252 216.468C194.524 215.963 194.737 215.541 194.828 215.57Z" fill="#263238"/>
<path d="M205.273 210.719C205.289 210.756 204.749 211.052 203.82 211.404C202.892 211.757 201.567 212.144 200.064 212.369C198.561 212.591 197.18 212.607 196.19 212.539C195.198 212.472 194.596 212.348 194.601 212.307C194.608 212.197 197.05 212.486 200.014 212.032C202.981 211.604 205.233 210.616 205.273 210.719Z" fill="#606060"/>
<path d="M203.652 221.291C203.658 221.384 202.056 221.57 200.074 221.705C198.091 221.841 196.48 221.875 196.473 221.782C196.467 221.689 198.069 221.503 200.051 221.367C202.033 221.231 203.645 221.198 203.652 221.291Z" fill="#606060"/>
<path d="M212.304 221.544C212.282 221.467 213.321 221.55 214.601 220.694C215.223 220.269 215.881 219.609 216.305 218.708C216.735 217.814 216.874 216.678 216.658 215.549C216.437 214.418 215.898 213.417 215.214 212.691C214.533 211.955 213.748 211.468 213.058 211.149C211.656 210.524 210.664 210.521 210.677 210.451C210.678 210.432 210.921 210.414 211.356 210.462C211.791 210.51 212.42 210.634 213.153 210.929C213.879 211.23 214.712 211.714 215.441 212.477C216.176 213.231 216.757 214.288 216.992 215.485C217.22 216.681 217.063 217.893 216.587 218.843C216.117 219.798 215.402 220.476 214.732 220.896C214.053 221.313 213.422 221.488 212.986 221.542C212.547 221.597 212.303 221.558 212.304 221.544Z" fill="#606060"/>
<path d="M171.061 205.516L188.038 213.045C188.038 213.045 188.378 216.526 186.995 219.356C185.753 221.898 181.989 221.388 181.989 221.388L167.076 217.919L170.4 215.969L171.061 205.516Z" fill="#FFBE9D"/>
<path d="M186.209 220.689C185.559 220.194 184.902 219.693 184.386 219.06C183.871 218.426 183.502 217.636 183.528 216.819C183.551 216.078 183.89 215.385 184.259 214.741C184.667 214.027 185.173 213.298 185.943 213.009C186.882 212.657 187.924 213.059 188.818 213.51L188.999 217.289L186.209 220.689Z" fill="#E0E0E0"/>
<path d="M188.038 213.045C188 213.131 184.169 211.515 179.481 209.435C174.792 207.356 171.023 205.601 171.061 205.516C171.099 205.43 174.93 207.046 179.619 209.125C184.306 211.204 188.076 212.96 188.038 213.045Z" fill="#EB996E"/>
<path d="M207.315 144.682C207.992 144.704 208.568 144.18 208.592 143.503C208.783 138.148 205.249 126.006 203.554 120.968C202.516 117.886 199.017 115.641 196.567 113.983C193.608 111.982 183.138 109.531 179.695 108.577L178.534 108.578L162.541 107.383L153.736 111.605C153.736 111.605 141.524 116.229 137.983 122.67C134.444 129.112 131.751 148.014 131.751 148.014C131.751 148.014 130.129 153.411 131.751 155.849C132.761 157.366 136.52 158.681 139.906 159.331C138.075 165.433 139.519 169.961 139.454 170.74C139.32 172.345 138.09 176.078 140.975 175.848C143.861 175.617 166.451 169.656 173.156 169.389C179.861 169.122 185.757 171.331 189.422 173.381C192.805 175.274 192.775 175.414 193.979 172.069C195.183 168.725 191.335 164.974 191.335 164.974C191.335 164.974 194.795 152.489 196.4 144.329L207.315 144.682Z" fill="#455A64"/>
<path d="M153.549 137.438C153.531 137.452 153.351 137.258 153.043 136.895C152.689 136.475 152.256 135.959 151.745 135.351C150.636 134.064 149.112 132.264 147.16 130.569C146.183 129.725 145.198 128.985 144.243 128.404C143.281 127.84 142.384 127.375 141.587 127.091C140.007 126.487 138.954 126.34 138.967 126.27C138.971 126.247 139.233 126.277 139.707 126.353C139.945 126.384 140.233 126.441 140.56 126.534C140.89 126.619 141.268 126.711 141.669 126.866C142.49 127.126 143.415 127.577 144.403 128.136C145.384 128.712 146.392 129.457 147.382 130.313C149.361 132.031 150.865 133.869 151.93 135.199C152.456 135.872 152.871 136.423 153.146 136.813C153.424 137.202 153.568 137.423 153.549 137.438Z" fill="#263238"/>
<path d="M150.63 155.462C150.63 155.485 150.349 155.506 149.841 155.524C149.332 155.544 148.597 155.553 147.687 155.544C145.869 155.525 143.35 155.429 140.596 155.021C137.841 154.611 135.403 153.908 133.711 153.229C132.864 152.892 132.191 152.588 131.742 152.346C131.29 152.11 131.046 151.97 131.057 151.949C131.084 151.894 132.092 152.394 133.795 153.004C135.495 153.62 137.914 154.279 140.646 154.686C143.378 155.09 145.882 155.224 147.694 155.304C148.545 155.339 149.264 155.368 149.841 155.392C150.349 155.415 150.63 155.438 150.63 155.462Z" fill="#263238"/>
<path d="M184.488 161.581C184.508 161.593 184.424 161.764 184.255 162.064C184.089 162.367 183.816 162.786 183.453 163.285C182.73 164.284 181.583 165.57 180.095 166.735C178.603 167.896 177.077 168.697 175.933 169.157C175.361 169.388 174.889 169.551 174.555 169.638C174.222 169.729 174.036 169.769 174.029 169.747C174.012 169.693 174.731 169.45 175.837 168.937C176.943 168.427 178.42 167.608 179.886 166.467C181.348 165.322 182.501 164.088 183.264 163.139C184.029 162.19 184.439 161.551 184.488 161.581Z" fill="#263238"/>
<path d="M184.779 166.589C184.804 166.623 184.418 166.971 183.716 167.429C183.016 167.888 181.987 168.438 180.779 168.868C179.569 169.295 178.423 169.515 177.59 169.598C176.756 169.683 176.237 169.656 176.235 169.615C176.225 169.506 178.293 169.4 180.665 168.548C183.044 167.718 184.72 166.499 184.779 166.589Z" fill="#263238"/>
<path d="M203.554 120.968C203.577 120.973 203.549 121.169 203.478 121.52C203.41 121.871 203.281 122.373 203.093 122.985C202.72 124.21 202.06 125.866 201.076 127.561C200.088 129.254 198.974 130.646 198.094 131.576C197.655 132.042 197.282 132.402 197.01 132.635C196.74 132.87 196.583 132.992 196.567 132.974C196.529 132.934 197.09 132.379 197.915 131.416C198.742 130.455 199.809 129.06 200.783 127.39C201.753 125.719 202.438 124.102 202.865 122.909C203.294 121.717 203.5 120.954 203.554 120.968Z" fill="#263238"/>
<path d="M207.659 141.818C207.66 141.863 207.057 141.914 206.081 141.941C205.105 141.968 203.756 141.968 202.267 141.912C200.778 141.854 199.432 141.749 198.461 141.647C197.49 141.545 196.893 141.449 196.897 141.403C196.901 141.356 197.505 141.367 198.479 141.408C199.577 141.455 200.862 141.511 202.28 141.573C203.699 141.621 204.984 141.664 206.083 141.701C207.056 141.734 207.659 141.77 207.659 141.818Z" fill="#263238"/>
<path d="M194.919 123.123C194.942 123.119 195.021 123.426 195.143 123.984C195.274 124.608 195.44 125.402 195.64 126.352C196.042 128.354 196.621 131.123 196.967 134.233C197.312 137.346 197.214 140.201 196.928 142.231C196.782 143.246 196.633 144.063 196.488 144.617C196.353 145.174 196.268 145.478 196.246 145.473C196.223 145.468 196.264 145.153 196.359 144.591C196.463 144.031 196.575 143.213 196.69 142.203C196.913 140.18 196.971 137.36 196.63 134.27C196.287 131.182 195.747 128.411 195.404 126.397C195.231 125.391 195.094 124.575 195.014 124.008C194.931 123.442 194.897 123.127 194.919 123.123Z" fill="#263238"/>
<path d="M153.549 139.694C153.573 139.697 153.556 139.964 153.506 140.445C153.457 140.927 153.373 141.621 153.26 142.478C153.031 144.19 152.685 146.554 152.209 149.15C151.733 151.746 151.192 154.079 150.673 155.735C150.419 156.563 150.161 157.219 149.967 157.663C149.753 158.101 149.626 158.336 149.605 158.326C149.553 158.301 150.01 157.337 150.443 155.667C150.899 154.007 151.4 151.677 151.875 149.088C152.35 146.499 152.733 144.144 153.022 142.442C153.161 141.647 153.279 140.973 153.375 140.426C153.466 139.952 153.526 139.69 153.549 139.694Z" fill="#263238"/>
<path d="M151.354 129.303C151.394 129.285 151.66 129.767 152.005 130.585C152.35 131.402 152.762 132.561 153.095 133.876C153.426 135.192 153.615 136.408 153.699 137.291C153.784 138.175 153.779 138.725 153.736 138.728C153.633 138.737 153.43 136.56 152.766 133.959C152.115 131.356 151.259 129.343 151.354 129.303Z" fill="#263238"/>
<path d="M169.808 152.427C169.8 152.422 169.862 152.295 169.991 152.054C170.135 151.791 170.327 151.443 170.567 151.006C171.096 150.07 171.84 148.756 172.764 147.121C174.674 143.797 177.328 139.179 180.378 133.875L180.592 134.105C178.668 135.041 176.588 135.967 174.411 136.829C171.787 137.869 169.204 138.748 166.792 139.46L166.283 139.61L166.62 139.201C170.303 134.731 173.484 130.87 175.767 128.099C176.893 126.752 177.797 125.672 178.44 124.901C178.742 124.549 178.982 124.269 179.165 124.055C179.333 123.865 179.423 123.769 179.43 123.775C179.438 123.781 179.362 123.889 179.209 124.091C179.037 124.312 178.81 124.604 178.525 124.969C177.899 125.754 177.02 126.855 175.925 128.228C173.665 131.017 170.517 134.905 166.872 139.406L166.699 139.147C169.1 138.429 171.672 137.549 174.285 136.513C176.455 135.653 178.528 134.734 180.449 133.807L180.936 133.573L180.663 134.039C177.573 139.32 174.883 143.917 172.947 147.226C171.987 148.84 171.216 150.138 170.666 151.062C170.406 151.488 170.199 151.826 170.042 152.082C169.896 152.314 169.817 152.432 169.808 152.427Z" fill="white"/>
<g opacity="0.3">
<path d="M181.503 170.272C182.271 170.472 183.749 168.141 184.6 166.716C181.981 168.164 179.477 169.899 176.553 169.266C179.835 168.46 182.479 165.877 183.596 162.687C181.437 165.857 178.649 168.106 175.029 169.369C175.028 169.369 180.283 169.953 181.503 170.272Z" fill="black"/>
</g>
<path d="M151.354 101.024C151.366 100.993 151.801 101.21 152.64 101.395C153.459 101.563 154.781 101.715 156.157 101.05C156.828 100.715 157.489 100.163 157.929 99.3994C158.377 98.647 158.552 97.652 158.213 96.7255C157.894 95.8153 157.1 94.9547 156.056 94.7969C155.035 94.6411 153.877 95.2911 153.461 96.3095C153.249 96.8155 153.29 97.3899 153.522 97.8698C153.759 98.3483 154.161 98.7389 154.625 98.9893C155.085 99.2468 155.608 99.3818 156.113 99.3726C156.622 99.3655 157.122 99.2344 157.57 99.0303C158.475 98.6189 159.194 97.9513 159.748 97.2543C160.304 96.5514 160.715 95.814 160.999 95.1046C161.579 93.6839 161.682 92.4171 161.68 91.563C161.669 90.7023 161.573 90.2296 161.605 90.2244C161.617 90.2225 161.647 90.3385 161.693 90.5628C161.738 90.7871 161.787 91.1229 161.812 91.5591C161.854 92.4249 161.789 93.7218 161.222 95.1927C160.944 95.9268 160.535 96.6936 159.969 97.4277C159.404 98.1567 158.664 98.8647 157.699 99.314C157.22 99.5363 156.682 99.6836 156.118 99.696C155.552 99.7084 154.975 99.5624 154.463 99.2794C153.949 99.0029 153.493 98.5707 153.217 98.0158C152.945 97.4636 152.897 96.7738 153.145 96.1824C153.636 95.0049 154.913 94.2923 156.105 94.467C157.307 94.6587 158.167 95.6243 158.508 96.6212C158.874 97.6422 158.664 98.7448 158.171 99.5402C157.687 100.354 156.978 100.924 156.262 101.264C154.792 101.937 153.435 101.731 152.609 101.522C152.186 101.41 151.87 101.285 151.661 101.19C151.453 101.095 151.349 101.034 151.354 101.024Z" fill="#263238"/>
<path d="M202.473 86.673C202.726 84.0272 201.866 81.2542 200.014 79.3478C198.162 77.4413 195.313 76.4972 192.726 77.1068C190.878 77.5417 189.075 78.2687 187.766 79.6933C187.228 80.2977 187.126 80.4125 186.756 81.1329C186.713 81.2151 186.672 81.2998 186.631 81.3859C186.58 81.4928 186.531 81.6011 186.484 81.7099C186.476 81.7282 186.467 81.7445 186.46 81.7628L186.464 81.7556C185.673 83.5981 185.437 85.678 185.89 87.6301C186.578 90.5947 188.871 93.1604 191.774 94.0738C194.677 94.9879 198.082 94.1631 200.171 91.949C201.51 90.5269 202.287 88.6185 202.473 86.673Z" fill="#263238"/>
<path d="M201.302 91.0225C201.244 91.0342 201.126 90.2831 200.669 89.1669C200.221 88.0559 199.365 86.585 197.996 85.3644C196.626 84.1432 195.067 83.4625 193.911 83.1444C192.749 82.8184 191.991 82.7884 191.995 82.7284C191.996 82.7069 192.186 82.6919 192.529 82.7056C192.873 82.7186 193.369 82.7753 193.971 82.9116C195.168 83.1763 196.802 83.8446 198.222 85.1108C199.642 86.3757 200.493 87.9216 200.894 89.0808C201.098 89.663 201.211 90.1494 201.264 90.4891C201.317 90.8288 201.324 91.0192 201.302 91.0225Z" fill="#455A64"/>
<path d="M198.758 85.8736C198.794 85.8873 198.616 86.493 198.16 87.4052C197.707 88.3147 196.938 89.5163 195.843 90.6319C194.745 91.7442 193.555 92.5318 192.653 92.9993C191.748 93.4688 191.146 93.6559 191.131 93.6207C191.068 93.5131 193.454 92.5866 195.601 90.3939C197.76 88.2124 198.649 85.8117 198.758 85.8736Z" fill="#455A64"/>
<path d="M191.721 83.0726C191.62 83.0153 192.403 81.7582 193.053 80.0982C193.722 78.4304 193.638 76.9503 193.737 76.9477C193.777 76.9438 193.862 77.3103 193.851 77.916C193.842 78.5204 193.699 79.3569 193.371 80.2182C192.696 81.9368 191.779 83.1124 191.721 83.0726Z" fill="#606060"/>
<path d="M191.82 80.8004C192.129 73.1818 186.473 66.3201 178.751 65.5482C170.559 64.7286 163.437 70.7192 162.909 78.6938L161.595 110.878C161.569 111.5 161.758 112.111 162.119 112.619C164.058 115.343 167.519 117.437 170.579 117.804C173.545 118.159 176.531 117.335 179.018 115.889C179.861 115.399 180.366 114.485 180.365 113.51L180.362 106.311C180.362 106.284 180.382 106.262 180.41 106.263C180.856 106.287 181.993 106.283 182.426 106.169C184.322 105.67 189.138 103.714 190.632 96.5632C191.126 94.1912 191.548 87.4788 191.82 80.8004Z" fill="#FFBE9D"/>
<path d="M181.446 91.5082C181.443 91.4371 182.239 91.3432 183.526 91.2474C183.852 91.2311 184.161 91.1835 184.226 90.9684C184.313 90.7421 184.193 90.3913 184.052 90.0125C183.783 89.2256 183.501 88.4008 183.204 87.5362C182.03 84.0115 181.195 81.1205 181.339 81.0762C181.484 81.0319 182.553 83.8524 183.727 87.3771C184.009 88.2456 184.279 89.0736 184.535 89.8658C184.641 90.2342 184.833 90.656 184.646 91.1255C184.548 91.3596 184.301 91.5199 184.091 91.5643C183.88 91.6158 183.698 91.6099 183.537 91.6112C182.246 91.6145 181.448 91.5799 181.446 91.5082Z" fill="#263238"/>
<path d="M188.722 85.6004C188.716 86.2146 188.183 86.7121 187.53 86.7134C186.879 86.7147 186.355 86.2192 186.361 85.605C186.368 84.9915 186.901 84.4927 187.552 84.4914C188.204 84.4901 188.728 84.9869 188.722 85.6004Z" fill="#263238"/>
<path d="M189.895 82.0575C189.779 82.1846 188.833 82.124 187.629 82.5315C186.424 82.9292 185.637 83.5694 185.484 83.5316C185.409 83.5173 185.51 83.3243 185.851 83.0394C186.186 82.7577 186.79 82.39 187.541 82.139C188.292 81.8886 188.966 81.828 189.372 81.8619C189.787 81.8951 189.953 81.9988 189.895 82.0575Z" fill="#263238"/>
<path d="M176.491 84.7991C176.485 85.4126 175.951 85.9108 175.299 85.9121C174.648 85.9134 174.124 85.4179 174.13 84.8043C174.136 84.1908 174.67 83.692 175.32 83.6907C175.973 83.6888 176.496 84.1849 176.491 84.7991Z" fill="#263238"/>
<path d="M176.906 83.1013C176.721 83.1098 176.029 82.3613 174.79 81.7699C173.557 81.1701 172.47 81.0612 172.378 80.9191C172.331 80.8532 172.551 80.7835 173.028 80.8258C173.499 80.865 174.241 81.0403 175.012 81.4113C175.782 81.783 176.352 82.2394 176.643 82.5667C176.94 82.8992 176.995 83.1 176.906 83.1013Z" fill="#263238"/>
<path d="M180.362 106.26C180.362 106.26 175.439 106.406 169.47 102.47C169.47 102.47 171.114 108.941 180.365 108.563L180.362 106.26Z" fill="#EB996E"/>
<path d="M180.772 94.4904C180.342 93.8737 179.556 93.5066 178.758 93.5503C178.204 93.5803 177.635 93.8137 177.28 94.2375C176.924 94.6619 176.826 95.2846 177.111 95.7208C177.432 96.2117 178.143 96.3578 178.757 96.2196C179.371 96.0813 179.91 95.7156 180.423 95.3491C180.566 95.2481 180.71 95.1425 180.803 94.9984C180.895 94.8543 180.922 94.6619 180.823 94.5335" fill="#EB996E"/>
<path d="M177.668 92.1824C177.875 92.1811 177.816 93.5366 178.953 94.5583C180.086 95.5832 181.563 95.5056 181.565 95.696C181.581 95.7821 181.226 95.9425 180.605 95.9275C179.995 95.917 179.116 95.6797 178.42 95.0544C177.727 94.4279 177.453 93.6253 177.431 93.0665C177.405 92.4973 177.574 92.1693 177.668 92.1824Z" fill="#263238"/>
<path d="M177.764 78.0601C177.584 78.3737 176.359 77.9975 174.86 77.9166C173.362 77.8058 172.105 78.0229 171.96 77.6884C171.898 77.5293 172.157 77.2503 172.691 77.009C173.221 76.7678 174.031 76.5917 174.93 76.6485C175.829 76.7072 176.614 76.9849 177.113 77.2926C177.617 77.5991 177.843 77.9101 177.764 78.0601Z" fill="#263238"/>
<path d="M189.871 78.2543C189.634 78.5269 188.773 78.1878 187.721 78.1207C186.672 78.017 185.769 78.212 185.578 77.9055C185.495 77.7569 185.648 77.4798 186.049 77.2314C186.445 76.9836 187.097 76.7971 187.818 76.8558C188.54 76.9151 189.155 77.204 189.508 77.513C189.867 77.8227 189.976 78.1207 189.871 78.2543Z" fill="#263238"/>
<path d="M179.851 63.9182C179.166 62.8013 177.92 62.3084 176.538 62.1252C170.891 61.378 164.668 64.8864 161.602 69.6864C158.536 74.4864 158.5 81.5626 160.908 86.7245L163.026 87.0544C167.421 86.7088 174.591 74.3137 180.633 67.4279C181.383 66.5731 180.446 64.8883 179.851 63.9182Z" fill="#263238"/>
<path d="M190.7 67.4103C188.294 64.7756 184.407 61.5788 179.552 63.5322C178.857 64.9151 180.341 66.6644 181.572 67.6802C183.374 69.1674 184.944 70.1656 186.128 71.2323C188.522 73.3885 191.506 76.9738 191.811 81.0064C191.831 81.2594 192.024 81.2927 192.278 81.2483C192.607 81.1916 193.334 79.529 193.681 77.3298C194.421 72.64 193.106 70.045 190.7 67.4103Z" fill="#263238"/>
<path d="M163.37 79.6874C163.12 78.6182 162.602 77.6069 161.887 76.7626C161.417 76.2064 160.863 75.7207 160.241 75.3438C157.967 73.9674 154.965 73.9877 152.616 75.2317C150.267 76.475 148.595 78.8483 148.022 81.4439C147.6 83.3523 147.75 85.4074 148.588 87.1731C149.893 89.9225 152.878 91.756 155.922 91.7801C158.965 91.8049 161.937 90.0699 163.505 87.4612C164.61 85.6206 164.321 82.3724 163.37 79.6874Z" fill="#263238"/>
<path d="M164.377 84.4614C164.245 84.3923 159.005 82.4324 158.776 87.9098C158.548 93.3873 164.095 92.4862 164.11 92.3297C164.127 92.1732 164.377 84.4614 164.377 84.4614Z" fill="#FFBE9D"/>
<path d="M162.524 90.1853C162.501 90.1664 162.426 90.2479 162.261 90.315C162.101 90.3802 161.829 90.4187 161.547 90.3C160.978 90.0634 160.528 89.1245 160.543 88.136C160.55 87.6373 160.674 87.1665 160.867 86.7812C161.051 86.3874 161.322 86.1181 161.616 86.0783C161.909 86.0236 162.107 86.2061 162.168 86.3633C162.235 86.5197 162.196 86.6273 162.225 86.6378C162.239 86.6521 162.346 86.551 162.312 86.3228C162.293 86.2133 162.235 86.0816 162.111 85.9708C161.984 85.858 161.793 85.796 161.589 85.8097C161.165 85.8215 160.769 86.1937 160.557 86.6175C160.322 87.042 160.17 87.5701 160.163 88.1302C160.151 89.2353 160.674 90.2916 161.456 90.5537C161.838 90.6704 162.164 90.5674 162.335 90.4454C162.508 90.317 162.543 90.1957 162.524 90.1853Z" fill="#EB996E"/>
<path d="M191.827 68.5069C191.831 68.5487 191.224 68.6576 190.231 68.7169C189.238 68.7769 187.858 68.7678 186.347 68.5865C184.837 68.4026 183.493 68.0832 182.543 67.7884C181.592 67.4944 181.029 67.244 181.043 67.2043C181.059 67.1554 181.649 67.3242 182.606 67.557C183.564 67.7904 184.897 68.0682 186.387 68.2494C187.878 68.4281 189.238 68.475 190.224 68.477C191.21 68.4796 191.822 68.4561 191.827 68.5069Z" fill="#455A64"/>
<path d="M193.673 72.4352C193.682 72.4737 193.235 72.6269 192.48 72.7176C191.728 72.8095 190.663 72.8056 189.525 72.5591C188.387 72.3088 187.417 71.868 186.771 71.4709C186.123 71.0739 185.782 70.7485 185.806 70.7172C185.862 70.6227 187.376 71.7578 189.597 72.2279C191.811 72.7267 193.661 72.3257 193.673 72.4352Z" fill="#455A64"/>
<path d="M160.906 71.5557C160.915 71.4866 162.093 71.6972 164.005 71.6444C164.961 71.6398 166.093 71.497 167.34 71.3027C168.581 71.0687 169.931 70.7348 171.314 70.2732C172.695 69.8005 173.97 69.2431 175.106 68.6876C176.228 68.1066 177.224 67.5498 178.018 67.0132C179.62 65.9655 180.515 65.1772 180.556 65.2254C180.572 65.243 180.358 65.4497 179.956 65.8096C179.758 65.9941 179.505 66.2054 179.2 66.4369C178.898 66.6735 178.555 66.9448 178.153 67.2114C177.369 67.778 176.375 68.3622 175.249 68.9653C174.108 69.5423 172.822 70.1154 171.425 70.5934C170.024 71.0608 168.654 71.3894 167.394 71.6098C166.128 71.7904 164.978 71.9091 164.01 71.883C163.526 71.896 163.089 71.8621 162.707 71.8321C162.323 71.8113 161.995 71.7741 161.729 71.7233C161.193 71.6372 160.902 71.5785 160.906 71.5557Z" fill="#455A64"/>
<path d="M180.191 67.1449C180.211 67.1573 180.055 67.4272 179.755 67.9065C179.607 68.1477 179.42 68.4398 179.176 68.7593C178.934 69.0801 178.679 69.4621 178.344 69.8422C177.707 70.6292 176.88 71.5127 175.882 72.4079C174.874 73.2907 173.696 74.1872 172.366 74.9826C171.029 75.7663 169.676 76.3694 168.414 76.8239C167.145 77.2601 165.97 77.5521 164.97 77.7145C164.474 77.8188 164.015 77.8482 163.616 77.8977C163.218 77.9505 162.872 77.9642 162.589 77.9701C162.023 77.9883 161.712 77.987 161.711 77.9636C161.707 77.8938 162.959 77.8664 164.926 77.4785C165.91 77.2881 167.063 76.9758 168.309 76.5298C169.547 76.0656 170.875 75.4631 172.193 74.6912C173.503 73.9075 174.669 73.0318 175.675 72.1731C176.671 71.3021 177.506 70.4467 178.16 69.6877C179.473 68.1692 180.135 67.1071 180.191 67.1449Z" fill="#455A64"/>
<path d="M176.537 62.1252C176.535 62.0893 176.965 62.0306 177.636 62.2002C178.299 62.3723 179.182 62.8235 179.887 63.6182C180.06 63.8191 180.218 64.0244 180.345 64.2461C180.478 64.4698 180.549 64.7182 180.614 64.917C180.754 65.3356 180.872 65.7275 180.924 66.0685C181.035 66.7583 180.879 67.1814 180.843 67.1684C180.788 67.1612 180.852 66.7472 180.689 66.1161C180.611 65.8005 180.476 65.4347 180.319 65.02C180.238 64.8023 180.176 64.6028 180.057 64.413C179.942 64.2181 179.793 64.0284 179.633 63.8425C178.976 63.1019 178.174 62.6487 177.565 62.4283C176.95 62.2119 176.534 62.1825 176.537 62.1252Z" fill="#455A64"/>
<path d="M162.081 83.9848C162.025 83.9672 162.192 83.4188 162.306 82.5152C162.422 81.6148 162.449 80.3407 162.104 79.0015C161.754 77.6623 161.066 76.5885 160.447 75.9293C159.829 75.2669 159.342 74.9578 159.378 74.9044C159.391 74.8848 159.519 74.9481 159.744 75.0824C159.973 75.2089 160.275 75.4416 160.619 75.7611C161.305 76.3994 162.068 77.5156 162.432 78.9155C162.793 80.314 162.724 81.6389 162.544 82.5523C162.364 83.4716 162.114 83.9978 162.081 83.9848Z" fill="#606060"/>
<path d="M162.49 82.7779C162.458 82.8262 161.785 82.3919 160.633 81.8228C159.484 81.2523 157.83 80.5866 155.921 80.1575C154.009 79.7344 152.23 79.634 150.947 79.662C149.662 79.6874 148.869 79.795 148.86 79.7377C148.856 79.7148 149.051 79.6672 149.408 79.6007C149.765 79.5297 150.287 79.4658 150.936 79.4227C152.232 79.3328 154.048 79.3954 155.994 79.827C157.938 80.2638 159.608 80.9778 160.744 81.6108C161.312 81.9258 161.759 82.2055 162.051 82.4213C162.346 82.6325 162.503 82.7584 162.49 82.7779Z" fill="#455A64"/>
<path d="M157.503 80.6029C157.541 80.6126 157.433 81.2399 157.094 82.2094C156.756 83.1776 156.153 84.4764 155.258 85.7686C154.359 87.059 153.352 88.0774 152.563 88.7313C151.773 89.3879 151.222 89.7074 151.2 89.6754C151.125 89.5894 153.226 88.1282 154.98 85.575C156.76 83.0413 157.396 80.5624 157.503 80.6029Z" fill="#455A64"/>
<path d="M161.11 91.2396C161.15 91.1346 161.347 91.0746 161.673 91.1594C161.993 91.2435 162.447 91.4854 162.82 92.0142C163.197 92.5299 163.41 93.4186 163.096 94.2838C162.945 94.7147 162.658 95.1529 162.222 95.473C161.791 95.7892 161.262 95.9614 160.721 95.9744C160.184 95.992 159.634 95.8342 159.206 95.5512C158.777 95.2728 158.462 94.8993 158.254 94.5048C158.047 94.0986 157.942 93.7113 157.943 93.2653C157.952 92.8526 158.054 92.5299 158.179 92.2443C158.433 91.6797 158.836 91.3048 159.183 91.1815C159.531 91.0538 159.739 91.1411 159.765 91.2461C159.805 91.4808 159.393 91.7957 159.327 92.5983C159.307 92.7887 159.306 93.0111 159.348 93.1858C159.383 93.3253 159.478 93.5503 159.603 93.7133C159.868 94.0679 160.241 94.2962 160.68 94.2785C161.139 94.2583 161.455 94.0556 161.648 93.6937C161.841 93.326 161.864 92.9263 161.759 92.5755C161.545 91.8466 161.014 91.4606 161.11 91.2396Z" fill="#455A64"/>
<path d="M166.66 82.5745C166.653 82.4937 167.976 82.6175 169.958 81.9955C171.928 81.4003 174.488 79.8941 176.47 77.4263C178.45 74.9526 179.504 72.2234 180.125 70.2511C180.436 69.2587 180.648 68.4424 180.791 67.8771C180.935 67.3118 181.016 66.9989 181.04 67.0034C181.062 67.0073 181.024 67.3294 180.92 67.9052C180.817 68.4809 180.639 69.3102 180.354 70.3195C179.788 72.3238 178.757 75.1111 176.734 77.6389C174.706 80.1647 172.058 81.6773 170.027 82.225C169.011 82.5106 168.157 82.6104 167.57 82.6188C167.276 82.6377 167.048 82.6104 166.894 82.6064C166.739 82.5973 166.659 82.5862 166.66 82.5745Z" fill="#263238"/>
<path d="M180.182 111.092C180.186 111.084 180.305 111.132 180.51 111.26C180.715 111.389 180.999 111.617 181.287 111.982C181.574 112.344 181.849 112.858 182.006 113.501C182.167 114.14 182.185 114.924 181.947 115.727C181.495 117.345 179.998 118.932 177.95 119.719C176.934 120.127 175.808 120.375 174.638 120.527C173.468 120.677 172.242 120.744 170.988 120.674C168.484 120.539 166.111 119.802 164.304 118.566C162.481 117.352 161.249 115.708 160.641 114.174C160.334 113.408 160.18 112.656 160.2 111.993C160.214 111.329 160.409 110.77 160.644 110.372C160.879 109.968 161.152 109.719 161.349 109.577C161.547 109.436 161.668 109.391 161.672 109.399C161.704 109.43 161.189 109.64 160.76 110.436C160.551 110.828 160.386 111.362 160.39 111.995C160.388 112.628 160.551 113.345 160.863 114.083C161.482 115.56 162.696 117.138 164.478 118.305C166.244 119.492 168.551 120.201 171.007 120.334C172.236 120.403 173.442 120.34 174.595 120.196C175.748 120.052 176.848 119.815 177.834 119.427C179.819 118.682 181.257 117.184 181.716 115.656C182.201 114.118 181.688 112.763 181.18 112.06C180.65 111.331 180.154 111.127 180.182 111.092Z" fill="#263238"/>
<path d="M165.836 119.546C165.747 119.546 165.729 118.789 166.154 117.987C166.572 117.18 167.204 116.764 167.254 116.837C167.319 116.912 166.835 117.405 166.454 118.144C166.064 118.878 165.935 119.557 165.836 119.546Z" fill="#263238"/>
<path d="M171.955 120.703C171.861 120.7 171.809 120.088 171.839 119.336C171.869 118.584 171.968 117.979 172.062 117.983C172.156 117.987 172.208 118.598 172.178 119.35C172.149 120.101 172.048 120.707 171.955 120.703Z" fill="#263238"/>
<path d="M178.096 119.795C178.004 119.814 177.79 119.152 177.619 118.316C177.447 117.48 177.382 116.787 177.474 116.768C177.566 116.749 177.779 117.412 177.951 118.247C178.123 119.083 178.188 119.776 178.096 119.795Z" fill="#263238"/>
<path d="M181.683 115.886C181.597 115.932 181.34 115.59 180.918 115.317C180.502 115.034 180.088 114.929 180.097 114.832C180.094 114.742 180.605 114.699 181.106 115.034C181.609 115.366 181.768 115.854 181.683 115.886Z" fill="#263238"/>
<path d="M162.594 113.451C162.608 113.547 162.248 113.673 161.901 113.955C161.548 114.229 161.345 114.551 161.254 114.515C161.166 114.492 161.258 114.03 161.69 113.689C162.12 113.346 162.591 113.36 162.594 113.451Z" fill="#263238"/>
<path d="M173.319 157.078C172.354 157.047 171.717 156.05 172.109 155.168C173.868 151.205 178.671 143.575 178.989 143.085C179.441 142.389 179.683 141.539 181.143 141.363C181.706 141.295 190.51 141.093 192.574 141.047C192.911 141.039 193.247 141.15 193.491 141.384C193.902 141.778 194.327 142.521 193.679 143.685C192.946 145 187.627 153.251 185.466 156.435C185.038 157.066 184.317 157.431 183.555 157.407L173.319 157.078Z" fill="#263238"/>
<path d="M186.9 143.894C186.769 143.653 186.344 143.627 186.197 143.702C185.949 143.768 185.767 143.924 185.578 144.099C185.389 144.273 185.298 144.583 185.45 144.791C185.578 144.968 185.826 145.009 186.044 144.989C186.318 144.965 186.594 144.863 186.777 144.658C186.961 144.453 187.03 144.136 186.9 143.894Z" fill="white"/>
<path d="M191.428 145.689C191.407 145.678 191.53 145.408 191.77 144.929C191.902 144.671 192.049 144.382 192.215 144.059C192.304 143.888 192.398 143.708 192.497 143.519C192.596 143.319 192.725 143.139 192.718 142.939C192.724 142.737 192.627 142.521 192.45 142.391C192.268 142.246 192.056 142.249 191.758 142.271C191.191 142.294 190.591 142.319 189.962 142.345C188.688 142.39 187.301 142.439 185.845 142.49C184.388 142.532 183 142.572 181.726 142.609C181.572 142.614 181.419 142.618 181.268 142.622C181.145 142.634 181.025 142.682 180.93 142.757C180.757 142.896 180.617 143.209 180.46 143.428C180.16 143.898 179.878 144.338 179.616 144.748C179.12 145.505 178.704 146.141 178.373 146.646C178.073 147.09 177.898 147.33 177.878 147.317C177.859 147.305 177.995 147.042 178.261 146.576C178.567 146.055 178.953 145.401 179.412 144.621C179.663 144.204 179.933 143.756 180.221 143.28C180.294 143.159 180.368 143.036 180.444 142.913C180.513 142.798 180.599 142.635 180.744 142.525C180.881 142.412 181.055 142.338 181.238 142.318C181.396 142.311 181.555 142.304 181.717 142.296C182.99 142.251 184.379 142.202 185.835 142.15C187.292 142.108 188.679 142.068 189.952 142.031C190.582 142.016 191.182 142.002 191.75 141.989C192.004 141.97 192.38 141.972 192.613 142.184C192.853 142.373 192.975 142.671 192.959 142.946C192.952 143.084 192.916 143.218 192.853 143.33C192.796 143.43 192.741 143.527 192.687 143.623C192.581 143.807 192.479 143.982 192.382 144.15C192.199 144.463 192.034 144.742 191.888 144.992C191.61 145.451 191.448 145.701 191.428 145.689Z" fill="#455A64"/>
<path d="M206.164 144.697C206.164 144.697 205.272 150.907 204.356 154.896C203.539 158.45 202.247 170.457 198.944 171.971C195.641 173.485 191.533 172.54 190.01 169.615C188.488 166.689 186.862 158.891 186.862 158.891L179.954 155.983C179.954 155.983 178.364 150.19 179.267 149.538C180.171 148.885 189.09 149.864 189.09 149.864L191.483 149.32C191.483 149.32 187.678 148.776 186.861 148.558C186.044 148.34 185.507 147.688 185.699 146.927C185.892 146.165 186.044 145.404 188.11 145.404C190.177 145.404 193.402 145.095 193.984 145.295C194.711 145.545 195.534 145.967 195.697 147.797C195.855 149.586 194.994 153.024 194.994 153.024L195.181 153.313L196.399 144.328L206.164 144.697Z" fill="#FFBE9D"/>
<path d="M194.558 155.418C194.564 155.44 194.365 155.519 193.997 155.642C193.632 155.769 193.091 155.917 192.414 156.068C191.063 156.369 189.141 156.618 187.019 156.481C184.897 156.34 183.023 155.832 181.732 155.329C181.085 155.078 180.573 154.847 180.233 154.661C179.89 154.48 179.707 154.371 179.717 154.35C179.742 154.296 180.514 154.664 181.813 155.103C183.11 155.542 184.956 156.003 187.041 156.143C189.126 156.277 191.018 156.071 192.367 155.833C193.719 155.594 194.542 155.362 194.558 155.418Z" fill="#EB996E"/>
<path d="M193.248 152.927C193.253 152.949 193.054 153.014 192.688 153.106C192.321 153.198 191.787 153.312 191.12 153.421C189.789 153.639 187.908 153.827 185.842 153.616C183.773 153.406 181.964 152.786 180.767 152.147C180.165 151.831 179.705 151.529 179.404 151.299C179.101 151.07 178.949 150.925 178.962 150.908C178.997 150.859 179.664 151.366 180.873 151.931C182.076 152.503 183.85 153.073 185.877 153.278C187.903 153.485 189.757 153.339 191.086 153.183C192.418 153.025 193.238 152.875 193.248 152.927Z" fill="#EB996E"/>
<path d="M195.402 146.519C195.442 146.508 195.567 146.822 195.538 147.355C195.518 147.617 195.478 147.942 195.281 148.272C195.191 148.437 195 148.591 194.837 148.676C194.668 148.773 194.483 148.853 194.291 148.917C193.525 149.162 192.808 149.227 192.301 149.257C191.797 149.285 191.502 149.363 191.483 149.32C191.461 149.277 191.757 149.11 192.269 149.019C192.772 148.929 193.464 148.825 194.182 148.596C194.528 148.47 194.872 148.331 195.018 148.101C195.183 147.857 195.253 147.564 195.299 147.327C195.386 146.841 195.351 146.527 195.402 146.519Z" fill="#EB996E"/>
<path d="M192.12 156.962C192.149 156.942 192.352 157.392 192.127 158.092C192.013 158.433 191.79 158.818 191.428 159.138C191.067 159.46 190.572 159.689 190.031 159.782C189.489 159.874 188.961 159.832 188.505 159.713C188.049 159.591 187.674 159.406 187.369 159.25C186.764 158.926 186.393 158.74 186.406 158.699C186.42 158.651 186.841 158.765 187.469 159.033C188.09 159.298 188.978 159.629 189.973 159.448C190.46 159.364 190.9 159.168 191.225 158.9C191.553 158.632 191.772 158.303 191.902 158.007C192.162 157.403 192.062 156.967 192.12 156.962Z" fill="#EB996E"/>
<path d="M194.994 145.893C195 145.885 195.042 145.909 195.121 145.965C195.197 146.023 195.296 146.129 195.394 146.286C195.588 146.603 195.734 147.13 195.783 147.791C195.878 149.12 195.655 150.975 195.152 153.065L195.148 152.969C195.457 153.804 195.88 154.677 196.384 155.543C197.092 156.759 197.872 157.856 198.627 158.817C199.375 159.77 200.169 160.586 200.56 161.47C200.967 162.346 200.932 163.179 200.749 163.678C200.66 163.931 200.547 164.108 200.46 164.217C200.37 164.324 200.314 164.371 200.306 164.364C200.278 164.344 200.489 164.129 200.622 163.64C200.756 163.16 200.752 162.381 200.343 161.573C199.95 160.753 199.161 159.973 198.382 159.012C197.606 158.053 196.809 156.949 196.09 155.713C195.579 154.833 195.15 153.941 194.841 153.08L194.824 153.033L194.837 152.983C195.352 150.93 195.615 149.095 195.577 147.803C195.558 147.157 195.449 146.65 195.297 146.338C195.144 146.027 194.977 145.914 194.994 145.893Z" fill="#EB996E"/>
<path d="M133.98 157.493C133.98 157.493 132.971 171.353 139.415 173.677C148.304 176.882 158.438 168.025 158.477 167.883C158.515 167.741 169.26 159.087 169.26 159.087L165.913 149.875C165.913 149.875 164.574 149.875 162.398 151.425C161.611 151.985 149.156 158.552 149.156 158.552C149.156 158.552 143.721 158.506 133.98 157.493Z" fill="#FFBE9D"/>
<path d="M149.608 158.345C149.652 158.45 147.305 159.402 144.472 160.672C143.057 161.313 141.809 161.957 140.916 162.447C140.025 162.937 139.482 163.26 139.453 163.218C139.43 163.183 139.927 162.788 140.794 162.24C141.661 161.694 142.906 161.009 144.33 160.363C145.753 159.715 147.071 159.206 148.029 158.852C148.989 158.499 149.59 158.302 149.608 158.345Z" fill="#EB996E"/>
<path d="M177.828 144.856C177.828 144.856 176.146 142.472 175.479 142.48C174.81 142.487 170.807 143.143 170.807 143.143L165.141 149.289C165.141 149.289 164.751 151.293 165.976 152.017C165.976 152.017 165.564 155.166 167.078 156.069C167.078 156.069 168.202 159.031 169.261 159.087C170.318 159.142 170.606 159.087 170.606 159.087C170.606 159.087 170.374 160.868 171.988 160.979C173.164 161.06 175.54 160.702 176.743 160.502C177.212 160.423 177.627 160.163 177.902 159.775L179.289 157.822C179.731 157.2 179.728 156.366 179.283 155.747C179.283 155.747 179.948 154.952 180.115 154.291C180.282 153.631 180.115 152.43 180.115 152.43C180.115 152.43 182.509 150.405 182.565 149.875C182.62 149.345 182.509 148.839 181.451 148.897C181.451 148.897 181.229 147.257 179.892 147.299C178.556 147.341 172.229 147.299 172.229 147.299L173.431 146.126C173.431 146.126 176.581 147.325 176.913 146.528L177.828 144.856Z" fill="#FFBE9D"/>
<path d="M168.741 151.947C168.741 151.922 169.105 151.909 169.767 151.874C170.429 151.84 171.389 151.782 172.574 151.642C173.759 151.503 175.171 151.273 176.724 150.905C177.5 150.718 178.311 150.497 179.144 150.233C179.95 150.009 180.652 149.384 181.334 148.775L181.376 148.738L181.422 148.731C181.697 148.689 182.018 148.646 182.344 148.82C182.505 148.91 182.621 149.079 182.67 149.243C182.722 149.408 182.73 149.569 182.733 149.717C182.729 149.794 182.743 149.819 182.725 149.932C182.706 150.055 182.662 150.098 182.629 150.173C182.552 150.293 182.47 150.398 182.387 150.499C182.218 150.7 182.041 150.882 181.864 151.061C181.507 151.418 181.145 151.751 180.778 152.073L180.774 152.077L180.768 152.082C179.398 153.103 178.134 154.122 176.865 154.858C175.601 155.61 174.321 155.989 173.248 156.146C172.169 156.3 171.287 156.215 170.706 156.083C170.414 156.02 170.194 155.951 170.048 155.895C169.903 155.839 169.829 155.805 169.832 155.795C169.836 155.72 171.095 156.288 173.215 155.931C174.259 155.749 175.494 155.358 176.717 154.607C177.951 153.869 179.194 152.849 180.57 151.814L180.559 151.821C180.916 151.505 181.276 151.171 181.624 150.823C181.797 150.647 181.969 150.469 182.126 150.281C182.203 150.188 182.276 150.092 182.338 149.997C182.357 149.957 182.393 149.895 182.388 149.888C182.401 149.877 182.391 149.772 182.393 149.722C182.393 149.444 182.342 149.204 182.17 149.111C181.995 149.011 181.725 149.019 181.48 149.063L181.567 149.019C181.215 149.346 180.856 149.644 180.478 149.916C180.109 150.182 179.678 150.434 179.241 150.542C178.397 150.802 177.577 151.019 176.792 151.198C175.221 151.551 173.795 151.757 172.598 151.866C171.4 151.978 170.434 152.001 169.769 151.998C169.437 151.998 169.179 151.987 169.005 151.977C168.832 151.968 168.741 151.957 168.741 151.947Z" fill="#EB996E"/>
<path d="M180.114 152.43C180.146 152.428 180.218 152.788 180.251 153.422C180.259 153.581 180.262 153.757 180.257 153.948C180.255 154.044 180.25 154.145 180.24 154.249C180.235 154.356 180.185 154.495 180.142 154.587C180.05 154.795 179.938 154.998 179.815 155.211C179.752 155.316 179.687 155.424 179.622 155.533L179.518 155.698C179.494 155.733 179.495 155.737 179.447 155.8C179.433 155.815 179.417 155.828 179.4 155.839C179.371 155.836 179.41 155.886 179.245 155.826C179.152 155.752 179.183 155.657 179.189 155.644C179.198 155.619 179.205 155.61 179.205 155.61L179.211 155.599L179.239 155.554L179.504 155.712C179.121 156.409 178.564 157.132 177.842 157.749C176.517 158.903 174.92 159.353 173.8 159.421C173.235 159.462 172.776 159.426 172.465 159.383C172.154 159.331 171.985 159.29 171.989 159.267C171.996 159.202 172.686 159.321 173.776 159.183C174.856 159.055 176.36 158.591 177.622 157.492C178.311 156.903 178.852 156.221 179.236 155.561L179.501 155.718C180.283 154.008 180.015 152.406 180.114 152.43Z" fill="#EB996E"/>
<path d="M173.581 146.181C173.557 146.254 172.916 146.016 172.614 145.259C172.474 144.889 172.498 144.522 172.56 144.286C172.624 144.046 172.713 143.918 172.755 143.931C172.86 143.954 172.704 144.533 172.932 145.14C173.161 145.747 173.647 146.096 173.581 146.181Z" fill="#EB996E"/>
<path d="M170.745 159.148C170.749 159.166 170.578 159.241 170.244 159.267C169.915 159.293 169.413 159.262 168.861 159.006C168.311 158.757 167.732 158.237 167.421 157.485C167.26 157.122 167.192 156.66 167.185 156.262C167.166 156.062 167.123 155.937 166.974 155.822C166.827 155.709 166.606 155.559 166.458 155.375C166.04 154.884 165.871 154.272 165.828 153.716C165.783 153.155 165.843 152.638 165.89 152.174L165.963 152.314C165.064 151.746 164.841 150.804 164.867 150.246C164.893 149.657 165.107 149.373 165.122 149.386C165.162 149.4 165.013 149.7 165.039 150.244C165.06 150.763 165.323 151.599 166.111 152.059L166.19 152.106L166.184 152.2C166.151 152.665 166.106 153.169 166.155 153.686C166.202 154.198 166.363 154.74 166.716 155.153C166.85 155.315 166.997 155.412 167.191 155.562C167.4 155.707 167.518 156.017 167.518 156.233C167.525 156.67 167.575 157.019 167.713 157.367C167.978 158.05 168.478 158.536 168.97 158.791C169.983 159.306 170.752 159.078 170.745 159.148Z" fill="#EB996E"/>
<g opacity="0.3">
<path d="M153.43 140.513C152.667 147.429 151.591 152.709 149.966 157.486C152.224 155.567 153.775 152.847 154.207 149.914C154.638 146.982 153.953 143.43 153.43 140.513Z" fill="black"/>
</g>
<g opacity="0.3">
<path d="M197.842 136.714C197.642 134.259 196.927 131.87 196.02 129.58C197.04 134.456 197.157 139.52 196.362 144.438L196.601 143.907C197.705 141.704 198.042 139.169 197.842 136.714Z" fill="black"/>
</g>
</svg>
