<svg width="346" height="297" viewBox="0 0 346 297" fill="none" xmlns="http://www.w3.org/2000/svg">
<path d="M29.4939 71.118C18.144 101.059 72.8455 149.555 151.673 179.437C230.501 209.32 303.605 209.273 314.955 179.332" stroke="#E0E0E0" stroke-width="1.9163" stroke-miterlimit="10" stroke-linecap="round" stroke-linejoin="round"/>
<path d="M81.412 251.971C107.149 271.02 168.67 231.533 218.824 163.774C268.979 96.0141 288.773 25.6412 263.036 6.591" stroke="#E0E0E0" stroke-width="1.9163" stroke-miterlimit="10" stroke-linecap="round" stroke-linejoin="round"/>
<path d="M290.375 139.143C290.403 135.197 290.239 131.303 289.89 127.46C286.92 94.5463 270.506 65.4659 246.159 45.8006C225.978 29.499 200.34 19.6626 172.382 19.4646C171.657 19.4595 170.932 19.4629 170.217 19.4663C155.28 19.6313 141.003 22.55 127.873 27.7385H127.864C87.7275 43.6205 58.2469 80.7209 53.3993 125.311C52.9695 129.306 52.7318 133.355 52.7022 137.457C52.632 147.365 53.7766 156.992 55.9982 166.2C62.5615 193.491 78.5517 217.148 100.364 233.487C119.98 248.169 144.299 256.949 170.695 257.136C184.836 257.236 198.418 254.862 211.019 250.421C256.948 234.249 290.01 190.635 290.375 139.143Z" fill="#EBEBEB"/>
<path opacity="0.4" d="M207.144 224.869C209.375 225.086 210.379 227.828 210.834 230.063C211.508 233.42 212.192 236.777 212.866 240.134C208.776 242.051 209.116 247.038 211.021 250.421C256.948 234.248 290.009 190.635 290.375 139.143C290.403 135.197 290.239 131.303 289.89 127.46C289.795 127.398 289.69 127.345 289.586 127.292C286.347 125.761 283.791 128.53 281.349 130.093C280.797 130.446 273.676 133.905 273.583 132.943C273.883 136.051 273.715 139.204 273.088 142.263C273.04 142.495 272.975 142.749 272.781 142.882C272.317 143.201 271.792 142.56 271.623 142.025C271.191 140.654 271.006 139.21 270.491 137.868C269.976 136.526 269.038 135.238 267.667 134.807C266.289 134.373 264.788 134.884 263.357 134.684C261.612 134.44 260.156 133.144 259.275 131.618C258.425 130.145 258.03 128.442 257.601 126.821C255.922 130.549 251.664 128.25 249.161 131.264C248.357 132.231 247.391 133.626 246.225 133.158C245.115 132.712 244.987 130.816 243.799 130.669C242.968 130.566 242.359 131.478 242.237 132.307C242.114 133.135 242.248 134.021 241.897 134.781C241.406 135.851 239.914 136.308 238.908 135.699C238.004 135.152 237.655 134.041 237.09 133.148C236.524 132.254 235.312 131.502 234.461 132.129C234.261 132.276 234.112 132.484 233.997 132.705C233.172 134.293 234.107 136.219 235.211 137.627C236.316 139.034 237.679 140.442 237.796 142.228C237.155 142.686 236.14 142.473 235.737 141.795C235.597 141.559 235.519 141.276 235.309 141.099C234.852 140.715 234.176 141.08 233.675 141.405C231.317 142.929 228.337 143.458 225.598 142.837C225.394 139.215 225.19 135.593 224.986 131.971C224.165 131.943 223.674 131.89 223.362 131.049C220.645 133.694 218.155 136.543 215.16 138.928C214.802 139.214 214.418 139.526 214.297 139.968C214.17 140.43 214.362 140.918 214.332 141.395C214.236 142.976 212.117 143.391 210.533 143.349C210.073 143.605 210.337 144.36 210.798 144.615C211.257 144.871 211.832 144.895 212.248 145.218C212.868 145.701 212.879 146.644 212.652 147.397C211.864 150.013 208.665 151.608 206.101 150.661C205.796 150.548 205.488 150.393 205.306 150.124C204.905 149.532 205.284 148.749 205.358 148.037C205.646 145.232 202.618 145.884 201.223 146.66C199.329 147.711 198.268 150.502 197.915 152.498C197.502 154.831 195.739 170.31 190.573 168.17C190.088 167.97 189.738 167.533 189.492 167.07C188.746 165.664 188.798 163.971 188.252 162.477C187.705 160.983 186.005 159.62 184.615 160.394C184.057 160.704 183.702 161.288 183.169 161.639C181.684 162.617 179.572 161.443 177.953 162.18C177.21 162.519 176.694 163.212 176.019 163.674C175.345 164.136 174.287 164.284 173.811 163.619C173.278 162.874 173.903 161.751 173.466 160.946C173.008 160.101 171.582 160.276 171.098 161.107C170.614 161.938 170.906 163.036 171.503 163.79C171.815 164.184 172.217 164.546 172.321 165.038C172.507 165.921 171.67 166.653 170.929 167.167C169.751 167.982 168.573 168.798 167.394 169.614C167.471 170.429 168.267 170.998 169.056 171.219C169.844 171.441 170.688 171.432 171.471 171.691C175.243 172.949 175.228 178.547 180.177 177.448C179.882 175.962 181.468 174.448 182.938 174.811C184.752 175.257 185.924 177.842 187.721 177.331C188.346 177.153 188.823 176.609 189.455 176.459C191.201 176.045 192.055 178.728 192.546 179.87C194.175 183.659 191.641 184.117 191.743 187.499C191.79 189.046 192.935 190.352 193.219 191.874C193.481 193.275 192.989 194.724 193.18 196.136C193.702 200.017 198.839 197.664 201.114 197.213C199.877 199.413 201.717 202.089 203.723 203.613C206.805 205.955 206.277 205.755 206.662 209.134C206.763 210.027 207.276 210.932 208.123 211.233C209.596 211.755 211.031 210.299 212.588 210.146C213.335 210.073 214.093 210.308 214.833 210.183C216.775 209.855 217.452 207.474 218.719 205.964C219.827 204.644 221.611 203.924 223.325 204.105C223.464 205.102 223.468 206.118 223.338 207.116C222.25 207.788 221.161 208.459 220.073 209.132C219.11 209.726 218.113 210.354 217.518 211.316C217.185 211.855 216.978 212.496 216.496 212.906C215.536 213.721 214.098 213.229 212.841 213.148C209.793 212.95 204.832 214.849 201.895 215.814C198.766 216.841 197.671 219.055 194.785 220.047C194.277 220.222 194.163 220.959 194.462 221.406C194.763 221.852 195.317 222.051 195.846 222.145C197.075 222.362 198.377 222.148 199.471 221.548C198.036 222.335 202.232 225.8 202.992 225.971C204.236 226.251 205.909 225.312 207.176 225.248C210.316 225.089 212.136 225.713 210.073 229.128C209.285 230.433 208.364 232.097 209.231 233.354C210.062 233.009 211.064 233.508 211.529 234.278C211.995 235.048 212.029 236.004 211.928 236.898C211.859 237.501 211.713 238.138 211.272 238.555C211.036 238.778 210.727 238.928 210.546 239.198C209.962 240.078 211.163 241.041 212.15 241.42" fill="#F5F5F5"/>
<path opacity="0.4" d="M103.15 88.7377C104.127 88.005 105.517 88.5955 106.535 89.2698C107.553 89.944 108.748 90.7317 109.896 90.3163C109.918 88.9001 109.941 87.4839 109.963 86.0677C109.967 85.8012 109.984 85.5042 110.177 85.3207C110.372 85.1345 110.675 85.1354 110.945 85.1481C111.856 85.1895 112.767 85.231 113.679 85.2733C114.44 86.1091 112.321 87.1294 112.623 88.2182C112.755 88.6996 113.299 88.9085 113.739 89.1446C117.492 91.1581 115.112 95.3449 113.411 97.619C111.437 100.258 111.569 103.857 111.781 107.148C111.86 108.318 111.999 109.629 112.901 110.394C113.777 111.152 115.07 111.099 116.194 111.431C118.136 111.994 119.512 113.715 121.33 114.609C127.683 117.736 131.871 110.936 129.802 105.578C128.729 102.802 128.269 103.329 128.884 100.361C129.14 99.1231 128.73 97.663 130.017 96.8186C131.382 95.9236 133.351 96.8846 133.46 98.5462C133.566 100.177 133.94 101.727 133.27 103.258C135.149 102.56 137.387 103.004 139.441 103.004C139.148 104.896 141.59 106.564 143.245 105.601C143.19 104.674 143.442 103.397 144.371 103.405C144.641 103.406 144.893 103.537 145.127 103.675C146.101 104.249 146.963 105.015 147.99 105.495C149.568 106.231 154.104 105.883 154.813 108.011C154.937 108.385 154.935 108.795 155.083 109.16C155.399 109.939 156.388 110.32 157.191 110.07C157.994 109.822 158.57 109.052 158.726 108.225C158.83 107.675 158.772 107.098 158.916 106.557C159.68 103.681 162.633 105.933 163.952 105.158C164.585 104.786 167.191 99.8829 167.249 99.289C168.503 100.851 170.38 102.168 172.467 102.07C174.752 101.963 175.727 100.146 176.241 97.9261C176.783 95.5818 176.811 92.7883 177.324 91.0904C177.6 90.1784 177.836 89.071 177.19 88.3696C176.383 87.4932 174.665 87.8282 174.079 86.791C173.893 86.4619 173.877 86.0677 173.813 85.6946C173.437 83.5085 170.987 81.9248 168.839 82.4806C168.137 82.0204 168.125 81.023 168.085 80.1846C168.043 79.3462 167.689 78.309 166.851 78.2498C165.889 78.1813 165.452 79.441 165.468 80.4054C165.484 81.3893 165.637 82.3707 165.922 83.3123C166.135 84.0153 166.422 84.7691 166.172 85.4603C165.983 85.9831 165.523 86.3528 165.073 86.6776C163.987 87.4593 162.751 88.1632 161.411 88.1539C160.073 88.1446 158.664 87.1717 158.611 85.8342C158.597 85.4755 158.677 85.1092 158.593 84.7598C158.378 83.8622 157.231 83.5525 156.317 83.676C155.402 83.7995 154.49 84.1819 153.586 83.9984C152.682 83.8148 151.93 82.6363 152.571 81.9722C151.356 81.5458 149.617 81.3343 149.139 82.5297C148.985 82.9138 149.028 83.3427 149.02 83.7564C148.974 86.3088 145.8 89.9931 143.635 87.324C142.212 85.5694 144.663 82.3774 142.109 80.9333C140.888 80.243 139.231 80.8529 138.022 80.1398C137.645 79.6922 138.293 79.0865 138.86 78.9376C140.65 78.4672 142.672 79.0154 143.978 80.3267C144.702 78.8395 143.584 76.6593 144.846 75.5908C146.092 74.5359 148.491 75.7778 149.425 74.4386C149.692 74.0553 149.734 73.5638 149.767 73.096C149.932 70.7915 149.222 66.5631 152.478 66.1765C152.872 66.13 153.283 66.1596 153.654 66.0158C154.777 65.5784 154.768 64.0065 154.559 62.8196C153.336 62.2934 152.024 63.1994 150.848 63.8221C149.672 64.4448 147.804 64.5488 147.404 63.2798C147.117 62.3712 147.83 61.2333 147.228 60.4948C146.949 60.1522 146.456 60.0219 146.22 59.6488C145.648 58.7453 147.038 57.84 147.286 56.7995C147.626 55.3663 145.711 54.445 144.241 54.5542C142.772 54.6633 141.128 55.1574 139.941 54.2835C139.565 54.0068 139.287 53.6185 138.937 53.308C137.861 52.3546 136.295 52.2683 134.858 52.2311C132.565 52.171 137.783 42.7381 137.835 42.1637C138.229 37.7881 133.745 35.4583 131.174 32.6758C129.831 31.2088 128.848 29.4728 127.864 27.7377C89.2206 43.0291 60.6444 78.5154 54.1632 119.592C53.8722 121.434 53.527 123.338 53.5135 125.174C56.2258 124.409 60.4448 122.379 63.1985 124.029C66.6959 126.125 64.1646 131.313 68.1958 132.847C69.1941 132.834 68.9056 131.19 69.4843 130.376C69.8058 129.923 70.3937 129.772 70.8895 129.522C71.3852 129.272 71.8641 128.737 71.6636 128.22C72.5358 127.535 73.7388 128.409 74.5493 129.167C75.5019 130.058 76.5915 130.878 77.8681 131.146C80.528 131.705 82.9848 129.798 85.3806 128.514C87.3611 127.452 89.5201 126.776 91.6647 126.106C90.6275 126.168 90.1021 124.733 90.5015 123.774C90.9008 122.815 91.8043 122.178 92.4659 121.375C93.5927 120.008 92.7273 118.415 93.6689 116.962C94.8338 115.155 97.0783 113.887 97.2678 111.75C97.5046 109.158 94.6359 107.506 92.2239 106.546C93.5022 103.622 96.9641 101.613 96.9607 98.4176C96.9607 97.1867 96.4108 96.0395 95.8769 94.9355C94.7839 92.6758 93.6917 90.4153 92.5987 88.1641C92.1427 87.2267 91.6791 86.1937 91.9566 85.1912C92.2704 84.006 93.4802 83.3249 94.5665 82.7827C95.7492 82.1888 96.9319 81.5949 98.1146 81.001C98.6053 80.7599 99.14 80.5111 99.6713 80.6017C100.247 80.7015 100.671 81.1583 101.026 81.6236C102.955 84.1253 103.874 87.379 103.555 90.5278C107.75 89.9026 111.87 88.7622 115.783 87.1226C115.348 89.5464 116.348 92.2215 115.598 94.4913" fill="#F5F5F5"/>
<path opacity="0.4" d="M201.407 108.569C202.536 109.379 203.442 110.617 203.512 112.004C203.555 112.86 203.282 113.7 203.227 114.555C203.172 115.41 203.413 116.387 204.163 116.8C205.122 117.327 206.278 116.672 207.17 116.038C207.894 115.523 208.674 114.926 208.852 114.056C208.982 113.419 208.756 112.76 208.813 112.113C208.925 110.831 210.06 109.929 210.965 109.015C211.87 108.102 212.64 106.663 211.927 105.592C211.457 104.888 210.504 104.642 210 103.961C208.77 102.301 210.995 99.9784 209.975 98.4675C208.768 96.6773 205.775 97.5927 204.118 98.4979C202.442 99.4141 201.223 101.111 200.024 102.549C196.634 106.615 197.818 105.993 201.407 108.569Z" fill="#F5F5F5"/>
<path opacity="0.4" d="M246.062 45.7659C226.18 28.5177 198.432 19.6491 172.382 19.4646C171.658 19.4595 170.933 19.4629 170.218 19.4663C166.78 23.3418 164.957 30.6826 171.767 32.0531C171.77 32.7959 171.341 32.9803 170.966 33.5742C170.377 34.5073 171.36 35.6816 172.38 36.1029C175.724 37.4844 179.784 37.4041 179.254 41.9335C178.62 47.3361 176.068 43.8979 173.263 45.8539C172.857 46.1373 172.619 46.5984 172.294 46.9715C171.102 48.3411 169.009 48.3301 167.197 48.21C167.652 47.1483 166.946 45.76 165.821 45.5003C165.396 45.4021 164.92 45.436 164.567 45.1805C163.809 44.6323 164.383 43.3379 165.248 42.9817C166.113 42.6256 167.107 42.7736 168.005 42.5122C168.904 42.2508 169.723 41.1865 169.178 40.426C168.95 40.1087 168.555 39.9607 168.174 39.8744C166.574 39.514 164.808 40.0038 163.623 41.1366C163.324 40.2771 162.395 39.6823 161.489 39.7712C160.583 39.8591 159.787 40.6222 159.66 41.5241C159.474 42.8421 160.379 44.6365 159.2 45.2541C160.247 44.98 161.434 45.3548 162.135 46.1796C164.891 49.4283 163.251 57.3282 170.515 56.0042C171.682 55.7919 172.799 55.2944 173.983 55.2318C175.167 55.1692 176.524 55.72 176.838 56.8646C178.365 54.6506 182.278 55.1227 183.58 52.77C184.193 51.6625 183.914 50.1397 182.949 49.3208C182.788 49.1846 182.604 49.056 182.527 48.8606C182.369 48.4621 182.726 48.0535 182.783 47.6288C182.884 46.8903 182.084 46.3184 181.986 45.579C181.849 44.5494 183.046 43.892 184.051 43.6315C185.057 43.3709 186.286 43.0012 186.489 41.9826C186.559 41.6357 186.484 41.2711 186.555 40.9243C186.696 40.2238 187.408 39.7551 188.116 39.6637C188.825 39.5724 189.535 39.7771 190.22 39.9793C190.687 40.3769 190.48 41.1654 190.062 41.6138C189.644 42.0621 189.066 42.3574 188.722 42.865C188.53 43.1492 189.475 49.3081 189.011 49.1482C191.214 49.9079 195.916 50.0205 194.968 53.3114C194.634 54.4729 193.956 55.6836 194.387 56.8138C192.839 56.3781 191.285 55.9611 189.727 55.5618C189.348 56.0617 189.971 56.7453 190.579 56.8993C191.187 57.0532 191.91 57.0313 192.324 57.5033C192.614 57.8341 192.653 58.3104 192.677 58.7503C192.757 60.1818 192.837 61.6123 192.917 63.0438C193.004 64.597 193.211 66.3762 194.497 67.2509C195.96 68.2467 198.028 67.454 199.257 66.1816C199.552 65.8762 199.876 65.5192 200.3 65.5175C200.685 65.5158 200.996 65.8085 201.283 66.064C202.791 67.4125 204.901 68.2238 206.87 67.7585C208.84 67.2924 210.469 65.3119 210.138 63.3153C210.01 62.5472 209.678 61.6073 210.272 61.1031C210.622 60.807 211.218 60.7706 211.375 60.3408C211.571 59.8002 210.881 59.4102 210.419 59.0676C209.584 58.4475 209.285 57.2055 209.747 56.2741C209.983 55.7969 214.277 54.0339 214.944 54.3587C216.473 55.1041 216.204 59.2046 216.394 60.7866C216.467 61.3975 216.58 62.0785 217.073 62.4457C217.844 63.0192 218.957 62.4228 219.555 61.6699C220.152 60.9178 220.589 59.9626 221.455 59.5456C221.958 59.3028 222.535 59.2816 223.093 59.2655C224.224 59.2325 225.495 59.2512 226.292 60.054C226.665 60.4296 226.883 60.9355 227.256 61.312C228.106 62.1699 229.524 62.1284 230.661 61.7215C231.798 61.3145 232.822 60.6115 233.989 60.2993C236.472 59.6361 239.311 60.8129 241.595 59.6336C242.699 59.0634 243.495 57.4881 242.621 56.6049C241.866 55.8426 240.229 55.9738 240.029 54.9205C239.837 53.9112 242.31 52.4544 242.745 51.5712C243.089 50.8715 242.336 49.5712 243.133 48.2752C243.781 47.221 245.358 46.8987 246.062 45.7659Z" fill="#F5F5F5"/>
<path opacity="0.4" d="M100.127 215.934C98.7153 214.987 97.1298 214.442 96.6383 212.5C95.9683 209.854 97.3946 208.727 100.026 209.708C100.26 209.795 100.515 209.887 100.752 209.811C101.513 209.568 100.974 208.446 100.478 207.82C99.321 206.357 99.2415 204.393 99.8413 202.693C99.9834 202.289 92.5741 202.119 91.7586 202.566C88.9025 204.129 90.7637 210.221 87.4491 209.194C87.2249 206.877 87.3475 204.48 87.3416 202.137C86.2131 202.094 85.0845 202.051 83.9559 202.008C84.7977 202.04 84.2977 197.72 84.0109 197.248C82.8993 195.415 79.4662 196.194 79.7716 192.73C80.1591 188.344 88.6504 187.453 87.6343 192.484C90.2214 193.474 93.2459 193.696 96.0123 193.615C96.0757 194.505 96.1307 195.405 96.1857 196.296C96.8287 196.693 97.6755 196.76 98.3752 196.46C99.7178 194.208 99.513 191.126 97.887 189.062C98.8574 187.577 97.6755 185.665 96.5419 184.295C99.6484 182.021 98.755 176.244 95.1062 175.014C91.449 173.783 87.2469 177.848 88.3467 181.54C86.5642 181.745 84.8561 182.528 83.538 183.74C83.3443 179.077 79.8308 174.74 75.3081 173.591C73.0341 173.007 70.3362 173.041 68.7863 171.275C68.0934 170.493 67.7517 169.46 67.1112 168.636C65.6578 166.792 63.0589 166.416 60.7121 166.285C59.1411 166.204 57.57 166.176 55.999 166.2C62.5623 193.491 78.5525 217.148 100.365 233.487C101.194 233.519 102.049 233.507 102.768 233.128C104.1 232.413 104.514 230.731 104.786 229.24C105.859 223.443 105.257 219.833 100.539 216.227C100.405 216.125 100.267 216.028 100.127 215.934Z" fill="#F5F5F5"/>
<path d="M207.144 224.869C209.375 225.086 210.379 227.828 210.834 230.063C211.508 233.42 212.192 236.777 212.866 240.134C208.776 242.051 209.116 247.038 211.021 250.421C256.948 234.248 290.009 190.635 290.375 139.143C290.403 135.197 290.239 131.303 289.89 127.46C289.795 127.398 289.69 127.345 289.586 127.292C286.347 125.761 283.791 128.53 281.349 130.093C280.797 130.446 273.676 133.905 273.583 132.943C273.883 136.051 273.715 139.204 273.088 142.263C273.04 142.495 272.975 142.749 272.781 142.882C272.317 143.201 271.792 142.56 271.623 142.025C271.191 140.654 271.006 139.21 270.491 137.868C269.976 136.526 269.038 135.238 267.667 134.807C266.289 134.373 264.788 134.884 263.357 134.684C261.612 134.44 260.156 133.144 259.275 131.618C258.425 130.145 258.03 128.442 257.601 126.821C255.922 130.549 251.664 128.25 249.161 131.264C248.357 132.231 247.391 133.626 246.225 133.158C245.115 132.712 244.987 130.816 243.799 130.669C242.968 130.566 242.359 131.478 242.237 132.307C242.114 133.135 242.248 134.021 241.897 134.781C241.406 135.851 239.914 136.308 238.908 135.699C238.004 135.152 237.655 134.041 237.09 133.148C236.524 132.254 235.312 131.502 234.461 132.129C234.261 132.276 234.112 132.484 233.997 132.705C233.172 134.293 234.107 136.219 235.211 137.627C236.316 139.034 237.679 140.442 237.796 142.228C237.155 142.686 236.14 142.473 235.737 141.795C235.597 141.559 235.519 141.276 235.309 141.099C234.852 140.715 234.176 141.08 233.675 141.405C231.317 142.929 228.337 143.458 225.598 142.837C225.394 139.215 225.19 135.593 224.986 131.971C224.165 131.943 223.674 131.89 223.362 131.049C220.645 133.694 218.155 136.543 215.16 138.928C214.802 139.214 214.418 139.526 214.297 139.968C214.17 140.43 214.362 140.918 214.332 141.395C214.236 142.976 212.117 143.391 210.533 143.349C210.073 143.605 210.337 144.36 210.798 144.615C211.257 144.871 211.832 144.895 212.248 145.218C212.868 145.701 212.879 146.644 212.652 147.397C211.864 150.013 208.665 151.608 206.101 150.661C205.796 150.548 205.488 150.393 205.306 150.124C204.905 149.532 205.284 148.749 205.358 148.037C205.646 145.232 202.618 145.884 201.223 146.66C199.329 147.711 198.268 150.502 197.915 152.498C197.502 154.831 195.739 170.31 190.573 168.17C190.088 167.97 189.738 167.533 189.492 167.07C188.746 165.664 188.798 163.971 188.252 162.477C187.705 160.983 186.005 159.62 184.615 160.394C184.057 160.704 183.702 161.288 183.169 161.639C181.684 162.617 179.572 161.443 177.953 162.18C177.21 162.519 176.694 163.212 176.019 163.674C175.345 164.136 174.287 164.284 173.811 163.619C173.278 162.874 173.903 161.751 173.466 160.946C173.008 160.101 171.582 160.276 171.098 161.107C170.614 161.938 170.906 163.036 171.503 163.79C171.815 164.184 172.217 164.546 172.321 165.038C172.507 165.921 171.67 166.653 170.929 167.167C169.751 167.982 168.573 168.798 167.394 169.614C167.471 170.429 168.267 170.998 169.056 171.219C169.844 171.441 170.688 171.432 171.471 171.691C175.243 172.949 175.228 178.547 180.177 177.448C179.882 175.962 181.468 174.448 182.938 174.811C184.752 175.257 185.924 177.842 187.721 177.331C188.346 177.153 188.823 176.609 189.455 176.459C191.201 176.045 192.055 178.728 192.546 179.87C194.175 183.659 191.641 184.117 191.743 187.499C191.79 189.046 192.935 190.352 193.219 191.874C193.481 193.275 192.989 194.724 193.18 196.136C193.702 200.017 198.839 197.664 201.114 197.213C199.877 199.413 201.717 202.089 203.723 203.613C206.805 205.955 206.277 205.755 206.662 209.134C206.763 210.027 207.276 210.932 208.123 211.233C209.596 211.755 211.031 210.299 212.588 210.146C213.335 210.073 214.093 210.308 214.833 210.183C216.775 209.855 217.452 207.474 218.719 205.964C219.827 204.644 221.611 203.924 223.325 204.105C223.464 205.102 223.468 206.118 223.338 207.116C222.25 207.788 221.161 208.459 220.073 209.132C219.11 209.726 218.113 210.354 217.518 211.316C217.185 211.855 216.978 212.496 216.496 212.906C215.536 213.721 214.098 213.229 212.841 213.148C209.793 212.95 204.832 214.849 201.895 215.814C198.766 216.841 197.671 219.055 194.785 220.047C194.277 220.222 194.163 220.959 194.462 221.406C194.763 221.852 195.317 222.051 195.846 222.145C197.075 222.362 198.377 222.148 199.471 221.548C198.036 222.335 202.232 225.8 202.992 225.971C204.236 226.251 205.909 225.312 207.176 225.248C210.316 225.089 212.136 225.713 210.073 229.128C209.285 230.433 208.364 232.097 209.231 233.354C210.062 233.009 211.064 233.508 211.529 234.278C211.995 235.048 212.029 236.004 211.928 236.898C211.859 237.501 211.713 238.138 211.272 238.555C211.036 238.778 210.727 238.928 210.546 239.198C209.962 240.078 211.163 241.041 212.15 241.42" fill="#F5F5F5"/>
<path d="M103.15 88.7377C104.127 88.005 105.517 88.5955 106.535 89.2698C107.553 89.944 108.748 90.7317 109.896 90.3163C109.918 88.9001 109.941 87.4839 109.963 86.0677C109.967 85.8012 109.984 85.5042 110.177 85.3207C110.372 85.1345 110.675 85.1354 110.945 85.1481C111.856 85.1895 112.767 85.231 113.679 85.2733C114.44 86.1091 112.321 87.1294 112.623 88.2182C112.755 88.6996 113.299 88.9085 113.739 89.1446C117.492 91.1581 115.112 95.3449 113.411 97.619C111.437 100.258 111.569 103.857 111.781 107.148C111.86 108.318 111.999 109.629 112.901 110.394C113.777 111.152 115.07 111.099 116.194 111.431C118.136 111.994 119.512 113.715 121.33 114.609C127.683 117.736 131.871 110.936 129.802 105.578C128.729 102.802 128.269 103.329 128.884 100.361C129.14 99.1231 128.73 97.663 130.017 96.8186C131.382 95.9236 133.351 96.8846 133.46 98.5462C133.566 100.177 133.94 101.727 133.27 103.258C135.149 102.56 137.387 103.004 139.441 103.004C139.148 104.896 141.59 106.564 143.245 105.601C143.19 104.674 143.442 103.397 144.371 103.405C144.641 103.406 144.893 103.537 145.127 103.675C146.101 104.249 146.963 105.015 147.99 105.495C149.568 106.231 154.104 105.883 154.813 108.011C154.937 108.385 154.935 108.795 155.083 109.16C155.399 109.939 156.388 110.32 157.191 110.07C157.994 109.822 158.57 109.052 158.726 108.225C158.83 107.675 158.772 107.098 158.916 106.557C159.68 103.681 162.633 105.933 163.952 105.158C164.585 104.786 167.191 99.8829 167.249 99.289C168.503 100.851 170.38 102.168 172.467 102.07C174.752 101.963 175.727 100.146 176.241 97.9261C176.783 95.5818 176.811 92.7883 177.324 91.0904C177.6 90.1784 177.836 89.071 177.19 88.3696C176.383 87.4932 174.665 87.8282 174.079 86.791C173.893 86.4619 173.877 86.0677 173.813 85.6946C173.437 83.5085 170.987 81.9248 168.839 82.4806C168.137 82.0204 168.125 81.023 168.085 80.1846C168.043 79.3462 167.689 78.309 166.851 78.2498C165.889 78.1813 165.452 79.441 165.468 80.4054C165.484 81.3893 165.637 82.3707 165.922 83.3123C166.135 84.0153 166.422 84.7691 166.172 85.4603C165.983 85.9831 165.523 86.3528 165.073 86.6776C163.987 87.4593 162.751 88.1632 161.411 88.1539C160.073 88.1446 158.664 87.1717 158.611 85.8342C158.597 85.4755 158.677 85.1092 158.593 84.7598C158.378 83.8622 157.231 83.5525 156.317 83.676C155.402 83.7995 154.49 84.1819 153.586 83.9984C152.682 83.8148 151.93 82.6363 152.571 81.9722C151.356 81.5458 149.617 81.3343 149.139 82.5297C148.985 82.9138 149.028 83.3427 149.02 83.7564C148.974 86.3088 145.8 89.9931 143.635 87.324C142.212 85.5694 144.663 82.3774 142.109 80.9333C140.888 80.243 139.231 80.8529 138.022 80.1398C137.645 79.6922 138.293 79.0865 138.86 78.9376C140.65 78.4672 142.672 79.0154 143.978 80.3267C144.702 78.8395 143.584 76.6593 144.846 75.5908C146.092 74.5359 148.491 75.7778 149.425 74.4386C149.692 74.0553 149.734 73.5638 149.767 73.096C149.932 70.7915 149.222 66.5631 152.478 66.1765C152.872 66.13 153.283 66.1596 153.654 66.0158C154.777 65.5784 154.768 64.0065 154.559 62.8196C153.336 62.2934 152.024 63.1994 150.848 63.8221C149.672 64.4448 147.804 64.5488 147.404 63.2798C147.117 62.3712 147.83 61.2333 147.228 60.4948C146.949 60.1522 146.456 60.0219 146.22 59.6488C145.648 58.7453 147.038 57.84 147.286 56.7995C147.626 55.3663 145.711 54.445 144.241 54.5542C142.772 54.6633 141.128 55.1574 139.941 54.2835C139.565 54.0068 139.287 53.6185 138.937 53.308C137.861 52.3546 136.295 52.2683 134.858 52.2311C132.565 52.171 137.783 42.7381 137.835 42.1637C138.229 37.7881 133.745 35.4583 131.174 32.6758C129.831 31.2088 128.848 29.4728 127.864 27.7377C89.2206 43.0291 60.6444 78.5154 54.1632 119.592C53.8722 121.434 53.527 123.338 53.5135 125.174C56.2258 124.409 60.4448 122.379 63.1985 124.029C66.6959 126.125 64.1646 131.313 68.1958 132.847C69.1941 132.834 68.9056 131.19 69.4843 130.376C69.8058 129.923 70.3937 129.772 70.8895 129.522C71.3852 129.272 71.8641 128.737 71.6636 128.22C72.5358 127.535 73.7388 128.409 74.5493 129.167C75.5019 130.058 76.5915 130.878 77.8681 131.146C80.528 131.705 82.9848 129.798 85.3806 128.514C87.3611 127.452 89.5201 126.776 91.6647 126.106C90.6275 126.168 90.1021 124.733 90.5015 123.774C90.9008 122.815 91.8043 122.178 92.4659 121.375C93.5927 120.008 92.7273 118.415 93.6689 116.962C94.8338 115.155 97.0783 113.887 97.2678 111.75C97.5046 109.158 94.6359 107.506 92.2239 106.546C93.5022 103.622 96.9641 101.613 96.9607 98.4176C96.9607 97.1867 96.4108 96.0395 95.8769 94.9355C94.7839 92.6758 93.6917 90.4153 92.5987 88.1641C92.1427 87.2267 91.6791 86.1937 91.9566 85.1912C92.2704 84.006 93.4802 83.3249 94.5665 82.7827C95.7492 82.1888 96.9319 81.5949 98.1146 81.001C98.6053 80.7599 99.14 80.5111 99.6713 80.6017C100.247 80.7015 100.671 81.1583 101.026 81.6236C102.955 84.1253 103.874 87.379 103.555 90.5278C107.75 89.9026 111.87 88.7622 115.783 87.1226C115.348 89.5464 116.348 92.2215 115.598 94.4913" fill="#F5F5F5"/>
<path d="M201.407 108.569C202.536 109.379 203.442 110.617 203.512 112.004C203.555 112.86 203.282 113.7 203.227 114.555C203.172 115.41 203.413 116.387 204.163 116.8C205.122 117.327 206.278 116.672 207.17 116.038C207.894 115.523 208.674 114.926 208.852 114.056C208.982 113.419 208.756 112.76 208.813 112.113C208.925 110.831 210.06 109.929 210.965 109.015C211.87 108.102 212.64 106.663 211.927 105.592C211.457 104.888 210.504 104.642 210 103.961C208.77 102.301 210.995 99.9784 209.975 98.4675C208.768 96.6773 205.775 97.5927 204.118 98.4979C202.442 99.4141 201.223 101.111 200.024 102.549C196.634 106.615 197.818 105.993 201.407 108.569Z" fill="#F5F5F5"/>
<path d="M246.062 45.7659C226.18 28.5177 198.432 19.6491 172.382 19.4646C171.658 19.4595 170.933 19.4629 170.218 19.4663C166.78 23.3418 164.957 30.6826 171.767 32.0531C171.77 32.7959 171.341 32.9803 170.966 33.5742C170.377 34.5073 171.36 35.6816 172.38 36.1029C175.724 37.4844 179.784 37.4041 179.254 41.9335C178.62 47.3361 176.068 43.8979 173.263 45.8539C172.857 46.1373 172.619 46.5984 172.294 46.9715C171.102 48.3411 169.009 48.3301 167.197 48.21C167.652 47.1483 166.946 45.76 165.821 45.5003C165.396 45.4021 164.92 45.436 164.567 45.1805C163.809 44.6323 164.383 43.3379 165.248 42.9817C166.113 42.6256 167.107 42.7736 168.005 42.5122C168.904 42.2508 169.723 41.1865 169.178 40.426C168.95 40.1087 168.555 39.9607 168.174 39.8744C166.574 39.514 164.808 40.0038 163.623 41.1366C163.324 40.2771 162.395 39.6823 161.489 39.7712C160.583 39.8591 159.787 40.6222 159.66 41.5241C159.474 42.8421 160.379 44.6365 159.2 45.2541C160.247 44.98 161.434 45.3548 162.135 46.1796C164.891 49.4283 163.251 57.3282 170.515 56.0042C171.682 55.7919 172.799 55.2944 173.983 55.2318C175.167 55.1692 176.524 55.72 176.838 56.8646C178.365 54.6506 182.278 55.1227 183.58 52.77C184.193 51.6625 183.914 50.1397 182.949 49.3208C182.788 49.1846 182.604 49.056 182.527 48.8606C182.369 48.4621 182.726 48.0535 182.783 47.6288C182.884 46.8903 182.084 46.3184 181.986 45.579C181.849 44.5494 183.046 43.892 184.051 43.6315C185.057 43.3709 186.286 43.0012 186.489 41.9826C186.559 41.6357 186.484 41.2711 186.555 40.9243C186.696 40.2238 187.408 39.7551 188.116 39.6637C188.825 39.5724 189.535 39.7771 190.22 39.9793C190.687 40.3769 190.48 41.1654 190.062 41.6138C189.644 42.0621 189.066 42.3574 188.722 42.865C188.53 43.1492 189.475 49.3081 189.011 49.1482C191.214 49.9079 195.916 50.0205 194.968 53.3114C194.634 54.4729 193.956 55.6836 194.387 56.8138C192.839 56.3781 191.285 55.9611 189.727 55.5618C189.348 56.0617 189.971 56.7453 190.579 56.8993C191.187 57.0532 191.91 57.0313 192.324 57.5033C192.614 57.8341 192.653 58.3104 192.677 58.7503C192.757 60.1818 192.837 61.6123 192.917 63.0438C193.004 64.597 193.211 66.3762 194.497 67.2509C195.96 68.2467 198.028 67.454 199.257 66.1816C199.552 65.8762 199.876 65.5192 200.3 65.5175C200.685 65.5158 200.996 65.8085 201.283 66.064C202.791 67.4125 204.901 68.2238 206.87 67.7585C208.84 67.2924 210.469 65.3119 210.138 63.3153C210.01 62.5472 209.678 61.6073 210.272 61.1031C210.622 60.807 211.218 60.7706 211.375 60.3408C211.571 59.8002 210.881 59.4102 210.419 59.0676C209.584 58.4475 209.285 57.2055 209.747 56.2741C209.983 55.7969 214.277 54.0339 214.944 54.3587C216.473 55.1041 216.204 59.2046 216.394 60.7866C216.467 61.3975 216.58 62.0785 217.073 62.4457C217.844 63.0192 218.957 62.4228 219.555 61.6699C220.152 60.9178 220.589 59.9626 221.455 59.5456C221.958 59.3028 222.535 59.2816 223.093 59.2655C224.224 59.2325 225.495 59.2512 226.292 60.054C226.665 60.4296 226.883 60.9355 227.256 61.312C228.106 62.1699 229.524 62.1284 230.661 61.7215C231.798 61.3145 232.822 60.6115 233.989 60.2993C236.472 59.6361 239.311 60.8129 241.595 59.6336C242.699 59.0634 243.495 57.4881 242.621 56.6049C241.866 55.8426 240.229 55.9738 240.029 54.9205C239.837 53.9112 242.31 52.4544 242.745 51.5712C243.089 50.8715 242.336 49.5712 243.133 48.2752C243.781 47.221 245.358 46.8987 246.062 45.7659Z" fill="#F5F5F5"/>
<path d="M100.127 215.934C98.7153 214.987 97.1298 214.442 96.6383 212.5C95.9683 209.854 97.3946 208.727 100.026 209.708C100.26 209.795 100.515 209.887 100.752 209.811C101.513 209.568 100.974 208.446 100.478 207.82C99.321 206.357 99.2415 204.393 99.8413 202.693C99.9834 202.289 92.5741 202.119 91.7586 202.566C88.9025 204.129 90.7637 210.221 87.4491 209.194C87.2249 206.877 87.3475 204.48 87.3416 202.137C86.2131 202.094 85.0845 202.051 83.9559 202.008C84.7977 202.04 84.2977 197.72 84.0109 197.248C82.8993 195.415 79.4662 196.194 79.7716 192.73C80.1591 188.344 88.6504 187.453 87.6343 192.484C90.2214 193.474 93.2459 193.696 96.0123 193.615C96.0757 194.505 96.1307 195.405 96.1857 196.296C96.8287 196.693 97.6755 196.76 98.3752 196.46C99.7178 194.208 99.513 191.126 97.887 189.062C98.8574 187.577 97.6755 185.665 96.5419 184.295C99.6484 182.021 98.755 176.244 95.1062 175.014C91.449 173.783 87.2469 177.848 88.3467 181.54C86.5642 181.745 84.8561 182.528 83.538 183.74C83.3443 179.077 79.8308 174.74 75.3081 173.591C73.0341 173.007 70.3362 173.041 68.7863 171.275C68.0934 170.493 67.7517 169.46 67.1112 168.636C65.6578 166.792 63.0589 166.416 60.7121 166.285C59.1411 166.204 57.57 166.176 55.999 166.2C62.5623 193.491 78.5525 217.148 100.365 233.487C101.194 233.519 102.049 233.507 102.768 233.128C104.1 232.413 104.514 230.731 104.786 229.24C105.859 223.443 105.257 219.833 100.539 216.227C100.405 216.125 100.267 216.028 100.127 215.934Z" fill="#F5F5F5"/>
<path d="M31.4295 75.1094C31.4295 71.3159 34.5056 68.2399 38.299 68.2399C38.9851 68.2399 39.6467 68.3431 40.2719 68.5309C40.1721 67.8422 40.1179 67.1384 40.1179 66.4218C40.1179 58.3873 46.6313 51.8748 54.6649 51.8748C55.5803 51.8748 56.4753 51.9637 57.3442 52.1253C59.5802 48.4663 63.5995 46.0154 68.2017 46.0154C75.1669 46.0154 80.8173 51.6117 80.9205 58.5532C80.9916 58.5515 81.0609 58.5422 81.132 58.5422C87.6039 58.5422 92.8508 63.7891 92.8508 70.261C92.8508 76.7329 87.6039 81.9797 81.132 81.9797H38.0968L38.1053 81.9704C34.4023 81.8664 31.4295 78.8385 31.4295 75.1094Z" fill="#FAFAFA"/>
<path d="M264.055 97.1376C264.055 93.8839 266.693 91.246 269.947 91.246C270.535 91.246 271.102 91.3349 271.639 91.4956C271.552 90.9051 271.507 90.301 271.507 89.6869C271.507 82.7962 277.093 77.2101 283.983 77.2101C284.768 77.2101 285.537 77.2862 286.282 77.4249C288.2 74.2863 291.647 72.1848 295.594 72.1848C301.568 72.1848 306.414 76.985 306.503 82.9383C306.564 82.9375 306.623 82.929 306.685 82.929C312.236 82.929 316.735 87.4289 316.735 92.9795C316.735 98.5301 312.236 103.03 306.685 103.03H269.774L269.782 103.022C266.604 102.933 264.055 100.335 264.055 97.1376Z" fill="#FAFAFA"/>
<path d="M130.291 150.814C130.291 147.019 133.367 143.944 137.161 143.944C137.847 143.944 138.509 144.047 139.134 144.235C139.034 143.547 138.98 142.843 138.98 142.126C138.98 134.092 145.493 127.579 153.527 127.579C154.443 127.579 155.337 127.668 156.207 127.83C158.443 124.171 162.462 121.72 167.064 121.72C174.03 121.72 179.679 127.317 179.783 134.258C179.854 134.256 179.924 134.247 179.995 134.247C186.467 134.247 191.714 139.493 191.714 145.965C191.714 152.437 186.467 157.684 179.995 157.684H136.96L136.968 157.675C133.263 157.57 130.291 154.542 130.291 150.814Z" fill="#FAFAFA"/>
<path d="M24.2258 214.627C24.2258 211.997 26.3577 209.865 28.988 209.865C29.4634 209.865 29.922 209.937 30.3551 210.067C30.2857 209.59 30.2485 209.101 30.2485 208.605C30.2485 203.035 34.7636 198.52 40.3337 198.52C40.9682 198.52 41.5891 198.581 42.1915 198.693C43.7414 196.157 46.5281 194.457 49.7183 194.457C54.5473 194.457 58.4643 198.337 58.5362 203.149C58.5853 203.148 58.6335 203.141 58.6834 203.141C63.1697 203.141 66.8075 206.778 66.8075 211.265C66.8075 215.752 63.1706 219.39 58.6834 219.39H28.8484L28.8543 219.383C26.2867 219.312 24.2258 217.213 24.2258 214.627Z" fill="#FAFAFA"/>
<path d="M280.938 218.066C280.938 215.605 282.933 213.611 285.393 213.611C285.838 213.611 286.267 213.677 286.672 213.799C286.607 213.353 286.572 212.896 286.572 212.431C286.572 207.221 290.796 202.997 296.007 202.997C296.601 202.997 297.181 203.054 297.744 203.159C299.194 200.786 301.801 199.196 304.786 199.196C309.303 199.196 312.968 202.827 313.035 207.328C313.082 207.327 313.125 207.321 313.172 207.321C317.37 207.321 320.772 210.724 320.772 214.922C320.772 219.12 317.37 222.522 313.172 222.522H285.26L285.266 222.516C282.866 222.447 280.938 220.483 280.938 218.066Z" fill="#FAFAFA"/>
<path d="M314.955 179.332C326.305 149.392 271.603 100.895 192.775 71.0122C113.948 41.1298 40.8438 41.1763 29.4939 71.1171" stroke="#E0E0E0" stroke-width="1.9163" stroke-miterlimit="10" stroke-linecap="round" stroke-linejoin="round"/>
<path d="M263.036 6.59102C237.299 -12.4584 175.778 27.0287 125.624 94.7882C75.4697 162.548 55.6759 232.921 81.4129 251.971" stroke="#E0E0E0" stroke-width="1.9163" stroke-miterlimit="10" stroke-linecap="round" stroke-linejoin="round"/>
<path d="M172.5 295.717C263.091 295.717 336.53 291.428 336.53 286.137C336.53 280.847 263.091 276.558 172.5 276.558C81.9087 276.558 8.46991 280.847 8.46991 286.137C8.46991 291.428 81.9087 295.717 172.5 295.717Z" fill="#F5F5F5"/>
<path d="M191.271 73.4013C191.271 73.4013 116.439 61.7375 76.7117 67.5115V225.653C76.7117 225.653 159.889 218.462 186.834 227.535L191.271 224.461V73.4013Z" fill="#263238"/>
<path opacity="0.6" d="M191.271 73.4013C191.271 73.4013 116.439 61.7375 76.7117 67.5115V225.653C76.7117 225.653 159.889 218.462 186.834 227.535L191.271 224.461V73.4013Z" fill="white"/>
<path d="M191.271 73.4013C191.271 73.4013 266.103 61.7375 305.83 67.5115V225.653C305.83 225.653 222.653 218.462 195.708 227.535L191.271 224.461V73.4013Z" fill="#263238"/>
<path opacity="0.6" d="M191.271 73.4013C191.271 73.4013 266.103 61.7375 305.83 67.5115V225.653C305.83 225.653 222.653 218.462 195.708 227.535L191.271 224.461V73.4013Z" fill="white"/>
<path d="M191.271 224.969V73.9089C191.271 73.9089 150.688 51.4764 80.1515 65.2248V222.245C80.1515 222.245 140.951 212.081 191.271 224.969Z" fill="#606060"/>
<path opacity="0.8" d="M191.271 224.969V73.9089C191.271 73.9089 150.688 51.4764 80.1515 65.2248V222.245C80.1515 222.245 140.951 212.081 191.271 224.969Z" fill="white"/>
<path d="M191.271 224.969V73.9089C191.271 73.9089 151.371 49.5771 82.028 60.01V217.03C82.028 217.03 141.802 209.716 191.271 224.969Z" fill="#606060"/>
<path opacity="0.7" d="M191.271 224.969V73.9089C191.271 73.9089 151.371 49.5771 82.028 60.01V217.03C82.028 217.03 141.802 209.716 191.271 224.969Z" fill="white"/>
<path d="M191.271 224.906V73.8472C191.271 73.8472 151.642 48.2218 84.0008 56.3959V213.417C84.0008 213.417 143.016 208.042 191.271 224.906Z" fill="#606060"/>
<path opacity="0.8" d="M191.271 224.906V73.8472C191.271 73.8472 151.642 48.2218 84.0008 56.3959V213.417C84.0008 213.417 143.016 208.042 191.271 224.906Z" fill="white"/>
<path d="M191.271 224.461V73.4014C191.271 73.4014 152.715 46.9749 86.2004 53.7505V210.771C86.2004 210.771 143.82 206.599 191.271 224.461Z" fill="#606060"/>
<path opacity="0.7" d="M191.271 224.461V73.4014C191.271 73.4014 152.715 46.9749 86.2004 53.7505V210.771C86.2004 210.771 143.82 206.599 191.271 224.461Z" fill="white"/>
<path d="M191.271 224.969V73.9089C191.271 73.9089 231.855 51.4764 302.391 65.2248V222.245C302.391 222.245 241.591 212.081 191.271 224.969Z" fill="#606060"/>
<path opacity="0.7" d="M191.271 224.969V73.9089C191.271 73.9089 231.855 51.4764 302.391 65.2248V222.245C302.391 222.245 241.591 212.081 191.271 224.969Z" fill="white"/>
<path d="M191.271 224.969V73.9089C191.271 73.9089 231.171 49.5771 300.514 60.01V217.03C300.514 217.03 240.74 209.716 191.271 224.969Z" fill="#606060"/>
<path opacity="0.8" d="M191.271 224.969V73.9089C191.271 73.9089 231.171 49.5771 300.514 60.01V217.03C300.514 217.03 240.74 209.716 191.271 224.969Z" fill="white"/>
<path d="M191.271 224.906V73.8472C191.271 73.8472 230.9 48.2218 298.541 56.3959V213.417C298.541 213.417 239.526 208.042 191.271 224.906Z" fill="#606060"/>
<path opacity="0.7" d="M191.271 224.906V73.8472C191.271 73.8472 230.9 48.2218 298.541 56.3959V213.417C298.541 213.417 239.526 208.042 191.271 224.906Z" fill="white"/>
<path d="M191.271 224.461V73.4014C191.271 73.4014 229.827 46.9749 296.342 53.7505V210.771C296.342 210.771 238.722 206.599 191.271 224.461Z" fill="#606060"/>
<path opacity="0.8" d="M191.271 224.461V73.4014C191.271 73.4014 229.827 46.9749 296.342 53.7505V210.771C296.342 210.771 238.722 206.599 191.271 224.461Z" fill="white"/>
<path d="M223.032 167.682C220.323 164.987 216.781 163.626 213.24 163.626C209.699 163.626 206.158 164.987 203.449 167.682C198.031 173.1 198.031 181.86 203.449 187.277L213.24 197.068L223.032 187.277C228.449 181.859 228.449 173.1 223.032 167.682ZM217.772 182.005C216.517 183.247 214.879 183.881 213.24 183.881C211.601 183.881 209.963 183.247 208.708 182.005C206.211 179.508 206.211 175.451 208.708 172.954C209.963 171.698 211.601 171.064 213.24 171.064C214.879 171.064 216.517 171.699 217.772 172.954C220.27 175.451 220.27 179.508 217.772 182.005Z" fill="#606060"/>
<path opacity="0.3" d="M208.708 172.955C206.211 175.452 206.211 179.509 208.708 182.006C209.963 183.248 211.601 183.882 213.24 183.882V197.069L203.449 187.278C198.031 181.86 198.031 173.101 203.449 167.683C206.158 164.988 209.699 163.627 213.24 163.627V171.065C211.602 171.065 209.963 171.699 208.708 172.955Z" fill="white"/>
<path d="M282.376 70.7975C279.514 67.9499 275.772 66.5117 272.031 66.5117C268.29 66.5117 264.548 67.9499 261.687 70.7975C255.963 76.5215 255.963 85.7768 261.687 91.5008L272.031 101.846L282.376 91.5008C288.099 85.7776 288.099 76.5215 282.376 70.7975ZM276.819 85.9307C275.494 87.2429 273.762 87.9129 272.031 87.9129C270.3 87.9129 268.569 87.2429 267.243 85.9307C264.604 83.2921 264.604 79.0062 267.243 76.3676C268.569 75.0419 270.3 74.371 272.031 74.371C273.762 74.371 275.494 75.041 276.819 76.3676C279.458 79.0062 279.458 83.2921 276.819 85.9307Z" fill="#606060"/>
<path opacity="0.3" d="M267.243 76.3674C264.604 79.0061 264.604 83.2919 267.243 85.9306C268.569 87.2428 270.3 87.9128 272.031 87.9128V101.845L261.687 91.4998C255.963 85.7766 255.963 76.5205 261.687 70.7965C264.549 67.9489 268.29 66.5107 272.031 66.5107V74.37C270.3 74.3717 268.569 75.0417 267.243 76.3674Z" fill="white"/>
<path opacity="0.4" d="M216.261 198.79C232.28 202.504 250.26 204.431 265.065 195.584C272.294 191.265 277.905 184.474 281.374 176.801C284.378 170.159 285.837 162.71 284.773 155.499C282.016 136.818 264.261 129.103 247.78 136.989C242.572 139.481 237.485 142.485 231.806 143.524C223.331 145.074 214.17 141.893 208.88 135.025C204.547 129.399 202.794 122.025 203.345 114.945C204.202 103.938 209.555 92.4626 220.533 88.6107C226.694 86.4484 234.679 87.6226 238.452 93.3492C242.247 99.1096 241.426 106.865 246.117 112.183C248.546 114.937 251.95 116.744 255.535 117.542C264.39 119.513 275.942 115.25 273.539 104.406" stroke="black" stroke-width="0.9724" stroke-miterlimit="10" stroke-linecap="round" stroke-linejoin="round" stroke-dasharray="1.94 4.86"/>
<g opacity="0.2">
<path d="M100.064 72.7626C100.064 72.7626 141.929 70.475 181.06 87.3908" stroke="black" stroke-width="0.9724" stroke-miterlimit="10" stroke-linecap="round" stroke-linejoin="round"/>
<path d="M100.064 90.0007C100.064 90.0007 141.685 87.439 181.06 103.688" stroke="black" stroke-width="0.9724" stroke-miterlimit="10" stroke-linecap="round" stroke-linejoin="round"/>
<path d="M100.064 107.24C100.064 107.24 141.443 104.404 181.06 119.986" stroke="black" stroke-width="0.9724" stroke-miterlimit="10" stroke-linecap="round" stroke-linejoin="round"/>
<path d="M100.064 124.477C100.064 124.477 141.2 121.367 181.06 136.283" stroke="black" stroke-width="0.9724" stroke-miterlimit="10" stroke-linecap="round" stroke-linejoin="round"/>
<path d="M100.064 141.716C100.064 141.716 140.956 138.332 181.06 152.581" stroke="black" stroke-width="0.9724" stroke-miterlimit="10" stroke-linecap="round" stroke-linejoin="round"/>
<path d="M100.064 158.954C100.064 158.954 140.713 155.296 181.06 168.878" stroke="black" stroke-width="0.9724" stroke-miterlimit="10" stroke-linecap="round" stroke-linejoin="round"/>
<path d="M100.064 176.192C100.064 176.192 140.47 172.261 181.06 185.176" stroke="black" stroke-width="0.9724" stroke-miterlimit="10" stroke-linecap="round" stroke-linejoin="round"/>
<path d="M100.064 193.43C100.064 193.43 140.227 189.225 181.06 201.473" stroke="black" stroke-width="0.9724" stroke-miterlimit="10" stroke-linecap="round" stroke-linejoin="round"/>
</g>
<path d="M121.488 118.964C121.488 116.711 119.661 114.885 117.408 114.885C117.001 114.885 116.608 114.947 116.237 115.058C116.296 114.648 116.328 114.23 116.328 113.805C116.328 109.033 112.46 105.165 107.689 105.165C107.145 105.165 106.614 105.218 106.097 105.314C104.769 103.141 102.383 101.686 99.6501 101.686C95.5132 101.686 92.1579 105.01 92.0962 109.131C92.0539 109.13 92.0133 109.125 91.9701 109.125C88.1267 109.125 85.0109 112.241 85.0109 116.085C85.0109 119.928 88.1267 123.044 91.9701 123.044H117.528L117.523 123.038C119.722 122.977 121.488 121.179 121.488 118.964Z" fill="white"/>
<path d="M197.795 108.285C197.795 106.032 195.969 104.206 193.716 104.206C193.308 104.206 192.916 104.268 192.544 104.378C192.603 103.969 192.636 103.551 192.636 103.126C192.636 98.3541 188.768 94.4862 183.996 94.4862C183.452 94.4862 182.921 94.5386 182.405 94.6351C181.077 92.4617 178.69 91.0066 175.958 91.0066C171.821 91.0066 168.465 94.3305 168.404 98.4522C168.361 98.4514 168.321 98.4455 168.278 98.4455C164.434 98.4455 161.318 101.561 161.318 105.405C161.318 109.248 164.434 112.364 168.278 112.364H193.835L193.83 112.358C196.03 112.298 197.795 110.5 197.795 108.285Z" fill="white"/>
<path d="M174.734 168.243C174.734 165.99 172.908 164.164 170.655 164.164C170.247 164.164 169.855 164.225 169.483 164.336C169.542 163.927 169.575 163.509 169.575 163.083C169.575 158.312 165.707 154.444 160.935 154.444C160.391 154.444 159.86 154.496 159.344 154.593C158.016 152.419 155.629 150.964 152.896 150.964C148.76 150.964 145.403 154.288 145.343 158.41C145.3 158.409 145.26 158.403 145.217 158.403C141.373 158.403 138.257 161.519 138.257 165.362C138.257 169.206 141.373 172.322 145.217 172.322H170.774L170.769 172.316C172.97 172.256 174.734 170.457 174.734 168.243Z" fill="white"/>
<path d="M186.834 227.534C186.834 227.534 189.976 229.062 195.708 227.534C195.708 227.534 194.749 224.461 191.271 224.461C187.793 224.461 186.834 227.534 186.834 227.534Z" fill="black"/>
<path opacity="0.5" d="M186.834 227.534C186.834 227.534 189.976 229.062 195.708 227.534C195.708 227.534 194.749 224.461 191.271 224.461C187.793 224.461 186.834 227.534 186.834 227.534Z" fill="white"/>
<path d="M271.72 267.352C271.72 267.352 275.738 258.584 271.147 249.94C266.556 241.297 265.224 239.26 268.151 237.49C271.078 235.719 272.421 244.404 272.421 244.404C272.421 244.404 274.888 238.429 272.851 232.176C270.814 225.922 269.536 215.737 272.319 214.645C275.101 213.553 272.85 227.351 275.264 232.054C275.264 232.054 277.291 226.818 277.625 221.796C277.958 216.773 277.437 208.753 279.634 206.695C281.831 204.638 283.239 206.062 281.079 217.146C278.92 228.23 278.936 237.24 278.936 237.24C278.936 237.24 283.705 222.701 286.905 222.276C290.106 221.852 290.102 226.561 287.362 230.645C284.623 234.728 279.34 242.046 278.473 245.81C278.473 245.81 283.708 234.868 288.416 238.222C293.125 241.575 284.318 248.184 280.393 250.572C276.467 252.961 273.742 267.931 273.742 267.931L271.72 267.352Z" fill="#606060"/>
<path opacity="0.2" d="M271.72 267.352C271.72 267.352 275.738 258.584 271.147 249.94C266.556 241.297 265.224 239.26 268.151 237.49C271.078 235.719 272.421 244.404 272.421 244.404C272.421 244.404 274.888 238.429 272.851 232.176C270.814 225.922 269.536 215.737 272.319 214.645C275.101 213.553 272.85 227.351 275.264 232.054C275.264 232.054 277.291 226.818 277.625 221.796C277.958 216.773 277.437 208.753 279.634 206.695C281.831 204.638 283.239 206.062 281.079 217.146C278.92 228.23 278.936 237.24 278.936 237.24C278.936 237.24 283.705 222.701 286.905 222.276C290.106 221.852 290.102 226.561 287.362 230.645C284.623 234.728 279.34 242.046 278.473 245.81C278.473 245.81 283.708 234.868 288.416 238.222C293.125 241.575 284.318 248.184 280.393 250.572C276.467 252.961 273.742 267.931 273.742 267.931L271.72 267.352Z" fill="black"/>
<path d="M274.892 270.947C274.892 270.947 270.979 262.12 275.674 253.546C280.368 244.972 281.724 242.956 278.819 241.141C275.913 239.327 274.466 247.991 274.466 247.991C274.466 247.991 272.071 241.98 274.182 235.757C276.295 229.535 277.694 219.369 274.925 218.236C272.156 217.102 274.242 230.933 271.771 235.6C271.771 235.6 269.807 230.334 269.534 225.307C269.26 220.28 269.877 212.268 267.705 210.178C265.533 208.088 264.109 209.49 266.134 220.605C268.16 231.721 268.036 240.73 268.036 240.73C268.036 240.73 263.442 226.12 260.247 225.648C257.052 225.176 256.999 229.885 259.69 234.009C262.38 238.134 267.575 245.529 268.397 249.306C268.397 249.306 263.294 238.287 258.546 241.57C253.797 244.853 262.525 251.593 266.42 254.039C270.317 256.486 272.863 271.495 272.863 271.495L274.892 270.947Z" fill="#606060"/>
<path d="M256.844 264.655H289.17L286.553 287.788H259.459L256.844 264.655Z" fill="#263238"/>
<path d="M142.554 93.1647L142.13 93.4253L141.43 93.8601L125.756 92.4101H125.745L131.279 87.9889L142.424 91.9262C142.972 92.1165 143.048 92.861 142.554 93.1647Z" fill="#606060"/>
<path opacity="0.2" d="M142.13 93.4253L141.43 93.8601L125.756 92.4101L130.589 88.554L141.728 92.4913C142.141 92.6377 142.288 93.0835 142.13 93.4253Z" fill="black"/>
<path d="M128.928 85.9086L119.689 91.9203L119.608 91.7198L114.497 79.0492L116.941 77.8488C116.969 77.8327 116.996 77.8217 117.029 77.8107C118.153 77.2997 119.484 77.496 120.412 78.3267L128.928 85.9086Z" fill="#606060"/>
<path opacity="0.2" d="M128.184 86.137L119.608 91.7198L114.497 79.0493L116.941 77.8488C116.969 77.8327 116.996 77.8217 117.029 77.8107C117.963 77.6424 118.941 77.9029 119.673 78.5552L128.184 86.137Z" fill="black"/>
<path d="M234.676 67.6984C234.654 67.7204 234.633 67.7416 234.611 67.7585L230.809 70.8269H177.307L184.058 64.0547L189.554 58.5422L194.79 59.2807L233.791 64.7983C235.213 64.9997 235.724 66.7644 234.676 67.6984Z" fill="#606060"/>
<path opacity="0.9" d="M213.104 70.8269H177.308L184.059 64.0547L189.555 58.5422L194.791 59.2807C197.137 60.1496 199.087 61.0565 200.059 61.5675C201.623 62.3923 208.998 67.7906 213.104 70.8269Z" fill="white"/>
<path opacity="0.2" d="M234.676 67.6984C234.654 67.7204 234.633 67.7416 234.611 67.7585L230.809 70.8269H177.845L189.011 59.6284L233.247 65.8846C234.209 66.02 234.752 66.8727 234.676 67.6984Z" fill="black"/>
<path d="M208.219 65.4963C208.639 64.9828 208.891 64.2637 208.881 63.4279C208.859 61.5963 207.599 59.9085 206.065 59.6589C205.397 59.5498 204.788 59.7325 204.314 60.1234C201.418 61.9981 191.622 68.9581 190.068 72.5866C189.091 74.8666 192.54 73.6433 194.925 73.1611C197.259 72.6899 204.014 68.7035 207.675 65.9861C207.757 65.9337 207.836 65.8762 207.91 65.8136L207.913 65.8119C208.035 65.7197 208.135 65.6131 208.219 65.4963Z" fill="#606060"/>
<path opacity="0.9" d="M208.878 63.4295C208.889 64.2662 208.638 64.9828 208.22 65.4988C208.133 65.6131 208.036 65.7213 207.911 65.8136C207.835 65.8787 207.753 65.9328 207.672 65.987C207.172 66.3567 206.619 66.7475 206.027 67.1545C202.258 69.7179 196.946 72.7541 194.926 73.1611C192.542 73.6441 189.092 74.8666 190.07 72.5858C191.336 69.6316 198.065 64.4667 202.084 61.6419C203.001 60.9956 203.778 60.4685 204.315 60.1208C204.788 59.73 205.397 59.5506 206.064 59.6589C207.596 59.9102 208.857 61.5996 208.878 63.4295Z" fill="white"/>
<path d="M208.878 63.4295C208.889 64.2662 208.639 64.9828 208.221 65.4988C208.133 65.6131 208.036 65.7213 207.911 65.8136C207.835 65.8787 207.754 65.9328 207.672 65.987C207.172 66.3567 206.619 66.7475 206.027 67.1545C205.261 67.1494 204.55 66.9971 203.969 66.6545C201.953 65.4709 201.704 63.2925 202.084 61.6419C203.002 60.9956 203.778 60.4685 204.315 60.1208C204.788 59.73 205.397 59.5506 206.064 59.6589C207.596 59.9102 208.857 61.5996 208.878 63.4295Z" fill="#606060"/>
<path opacity="0.2" d="M208.679 62.8568C208.695 64.2256 207.78 65.1841 206.633 64.9972C205.487 64.8102 204.545 63.5488 204.529 62.18C204.513 60.8112 205.429 59.8526 206.574 60.0396C207.721 60.2257 208.662 61.4871 208.679 62.8568Z" fill="black"/>
<path d="M206.003 61.8035C206.215 61.5184 207.518 61.4609 207.542 61.8129C207.613 62.8289 206.991 63.5277 206.497 63.4448C206.419 63.4304 205.26 62.8061 206.003 61.8035Z" fill="#606060"/>
<path opacity="0.2" d="M190.834 73.9233C189.323 74.2203 204.452 63.949 204.452 63.949C204.452 63.949 205.417 66.0377 207.549 65.3373C207.549 65.3373 200.063 72.1086 190.834 73.9233Z" fill="black"/>
<path d="M222.392 66.8465C222.702 66.4675 222.888 65.937 222.88 65.3212C222.864 63.9701 221.934 62.7248 220.802 62.5404C220.309 62.46 219.86 62.5945 219.51 62.883C217.374 64.2662 210.147 69.4006 209.001 72.0773C208.28 73.7592 210.825 72.8565 212.583 72.5012C214.306 72.1535 219.29 69.2119 221.99 67.2077C222.05 67.1697 222.109 67.1265 222.164 67.08L222.165 67.0783C222.256 67.0115 222.33 66.9328 222.392 66.8465Z" fill="#606060"/>
<path opacity="0.9" d="M222.878 65.322C222.886 65.9387 222.702 66.4683 222.394 66.849C222.329 66.9328 222.257 67.0131 222.165 67.0817C222.109 67.1299 222.049 67.1696 221.989 67.2094C221.62 67.4818 221.212 67.7703 220.775 68.0706C217.994 69.9614 214.076 72.2016 212.585 72.502C210.826 72.8581 208.281 73.76 209.003 72.0773C209.937 69.898 214.901 66.0868 217.867 64.0031C218.543 63.5259 219.117 63.1376 219.514 62.8813C219.862 62.5928 220.312 62.4608 220.804 62.5403C221.932 62.7256 222.862 63.9718 222.878 65.322Z" fill="white"/>
<path d="M222.878 65.322C222.886 65.9388 222.702 66.4684 222.394 66.8491C222.329 66.9328 222.257 67.0132 222.165 67.0817C222.109 67.1299 222.049 67.1697 221.989 67.2095C221.62 67.4819 221.212 67.7704 220.775 68.0707C220.21 68.0665 219.686 67.9548 219.257 67.7018C217.77 66.8279 217.586 65.2214 217.867 64.0031C218.544 63.526 219.117 63.1377 219.514 62.8813C219.862 62.5928 220.312 62.4609 220.804 62.5404C221.933 62.7257 222.862 63.9718 222.878 65.322Z" fill="#606060"/>
<path opacity="0.2" d="M222.731 64.899C222.743 65.9092 222.067 66.6164 221.222 66.4777C220.376 66.3398 219.681 65.4092 219.669 64.3991C219.657 63.3889 220.333 62.6817 221.178 62.8204C222.024 62.9583 222.719 63.8889 222.731 64.899Z" fill="black"/>
<path d="M220.757 64.1224C220.913 63.9126 221.875 63.8695 221.893 64.1292C221.945 64.8787 221.487 65.394 221.122 65.333C221.064 65.3229 220.208 64.8627 220.757 64.1224Z" fill="#606060"/>
<path opacity="0.2" d="M209.909 72.8802C208.823 73.0942 219.697 65.7112 219.697 65.7112C219.697 65.7112 220.39 67.2128 221.922 66.7095C221.922 66.7095 216.543 71.5757 209.909 72.8802Z" fill="black"/>
<path d="M218.377 42.2381C218.208 42.8464 217.894 43.5739 217.345 44.3726C216.568 45.5189 215.302 46.8166 213.271 48.1584C212.967 48.3597 212.652 48.5653 212.348 48.7667H212.337C210.659 49.8639 209.035 50.8791 208.052 51.4874L165.315 78.6102C157.945 83.2919 149.886 86.7842 141.424 88.9508L138.665 89.6623L124.094 93.4042C123.018 93.68 121.877 93.4702 120.971 92.8289L118.836 91.3188L130.356 83.1718C132.577 81.6025 134.858 80.1084 137.183 78.7024L194.492 44.0308C203.035 39.2297 205.403 39.4201 210.285 40.2398C212.848 39.7018 215.227 39.7669 216.753 39.9141C217.422 39.9793 217.97 40.3921 218.247 40.9352C218.443 41.3253 218.508 41.7813 218.377 42.2381Z" fill="#606060"/>
<path opacity="0.9" d="M218.377 42.2381C218.209 42.8464 217.894 43.5739 217.345 44.3726C216.568 45.5189 215.303 46.8166 213.271 48.1584C212.967 48.3597 212.652 48.5653 212.348 48.7667H212.337C212.305 48.7887 212.278 48.8098 212.245 48.8318C212.24 48.8318 212.24 48.8318 212.24 48.8318C210.595 49.902 209.014 50.8901 208.053 51.4874L195.252 59.6124L165.317 78.6102C165.072 78.7675 164.828 78.9198 164.578 79.0721C157.409 83.5204 149.605 86.8553 141.426 88.9517L138.667 89.6632L124.095 93.405C123.02 93.6817 121.88 93.4702 120.973 92.8297L118.838 91.3196L130.357 83.1726C132.579 81.6033 134.86 80.1093 137.185 78.7032L143.914 74.6357L174.453 56.1539L194.494 44.0316C203.036 39.2306 205.404 39.4209 210.287 40.2407C210.471 40.2026 210.656 40.1646 210.835 40.1324C213.187 39.7145 215.337 39.7796 216.754 39.915C217.423 39.9801 217.971 40.393 218.247 40.9361C218.443 41.3253 218.508 41.7813 218.377 42.2381Z" fill="white"/>
<path d="M218.377 42.2381C218.209 42.8464 217.894 43.5739 217.345 44.3725C216.568 45.5189 215.302 46.8166 213.271 48.1584C212.967 48.3597 212.652 48.5653 212.348 48.7667H212.337C212.305 48.7887 212.278 48.8098 212.245 48.8318C212.24 48.8318 212.24 48.8318 212.24 48.8318C210.442 48.2185 209.036 46.7303 208.873 44.3895C208.743 42.4995 209.71 41.0985 210.834 40.1315C213.186 39.7136 215.336 39.7788 216.753 39.9141C217.422 39.9793 217.97 40.3921 218.247 40.9352C218.443 41.3253 218.508 41.7812 218.377 42.2381Z" fill="#606060"/>
<path d="M134.945 82.2344C135.098 82.1414 135.252 82.0483 135.408 81.9544" stroke="#263238" stroke-width="1.9259" stroke-linecap="round" stroke-linejoin="round"/>
<path d="M137.697 80.5687C154.506 70.3913 182.072 53.6989 194.302 46.2938" stroke="#263238" stroke-width="1.9259" stroke-linecap="round" stroke-linejoin="round" stroke-dasharray="1.27 3.17"/>
<path d="M195.449 45.5992C195.607 45.5036 195.761 45.4106 195.912 45.3192" stroke="#263238" stroke-width="1.9259" stroke-linecap="round" stroke-linejoin="round"/>
<path d="M200.074 43.7507L200.056 41.8574C201.796 40.9817 204.326 39.4725 208.202 39.9344L210.283 40.2398C207.004 39.9733 203.715 41.546 200.899 43.2507L200.074 43.7507Z" fill="#263238"/>
<path opacity="0.2" d="M218.377 42.2381C218.208 42.8464 217.894 43.5739 217.345 44.3725C216.155 45.2575 214.645 46.2735 212.902 47.3758C207.461 50.814 168.362 75.3564 163.197 79.0501C159.439 81.7327 151.391 85.7902 138.665 89.6623C134.337 90.977 129.464 92.2688 124.032 93.4803C122.994 93.7121 121.904 93.4888 121.036 92.8746L120.971 92.8289C120.971 92.8289 138.133 87.0558 142 84.9052C145.867 82.7598 201.448 48.419 207.102 45.3184C211.572 42.8743 215.813 41.2889 218.247 40.9352C218.443 41.3252 218.508 41.7812 218.377 42.2381Z" fill="black"/>
<path d="M179.203 59.9373L178.953 60.1006L176.042 61.9685L163.394 70.0774C162.633 70.5664 161.748 70.827 160.846 70.827H101.023L103.25 68.388C105.145 66.3187 107.741 65.026 110.538 64.7713L162.421 60.0303L178.725 58.5422C179.518 58.4661 179.876 59.5084 179.203 59.9373Z" fill="#606060"/>
<path opacity="0.9" d="M179.203 59.9373L178.953 60.1006L176.042 61.9685L163.394 70.0774C162.633 70.5664 161.748 70.827 160.846 70.827H119.738C133.778 68.1714 155.643 63.636 162.421 60.0303L178.725 58.5422C179.518 58.4661 179.876 59.5084 179.203 59.9373Z" fill="white"/>
<path opacity="0.2" d="M178.953 60.1006L163.394 70.0775C162.633 70.5664 161.748 70.827 160.846 70.827H101.474L102.707 69.4751C104.602 67.4058 107.198 66.1131 109.995 65.8576L178.182 59.6285C178.562 59.5955 178.839 59.8129 178.953 60.1006Z" fill="black"/>
<path d="M159.308 65.493C159.729 64.9794 159.98 64.2603 159.971 63.4245C159.949 61.5929 158.688 59.9051 157.154 59.6556C156.486 59.5464 155.877 59.7292 155.403 60.12C152.507 61.9948 142.711 68.9548 141.157 72.5833C140.18 74.8633 143.629 73.6399 146.014 73.1577C148.348 72.6865 155.104 68.6993 158.764 65.9828C158.846 65.9303 158.924 65.8728 159 65.8102L159.002 65.8085C159.125 65.7163 159.225 65.6097 159.308 65.493Z" fill="#606060"/>
<path opacity="0.9" d="M159.968 63.4262C159.979 64.2629 159.73 64.9794 159.311 65.4955C159.224 65.6097 159.126 65.718 159.001 65.8102C158.925 65.8753 158.844 65.9295 158.763 65.9836C158.263 66.3533 157.709 66.7442 157.117 67.1511C153.348 69.7145 148.036 72.7508 146.016 73.1577C143.632 73.6408 140.183 74.8633 141.161 72.5824C142.426 69.6282 149.156 64.4625 153.174 61.6386C154.092 60.9922 154.869 60.4652 155.406 60.1175C155.879 59.7266 156.487 59.5473 157.154 59.6556C158.687 59.9077 159.946 61.5963 159.968 63.4262Z" fill="white"/>
<path d="M159.968 63.4262C159.979 64.2629 159.73 64.9794 159.311 65.4955C159.224 65.6097 159.126 65.718 159.001 65.8102C158.925 65.8753 158.844 65.9295 158.763 65.9836C158.263 66.3533 157.709 66.7442 157.117 67.1511C156.352 67.146 155.64 66.9938 155.059 66.6511C153.044 65.4667 152.794 63.2891 153.174 61.6386C154.092 60.9922 154.868 60.4652 155.406 60.1175C155.879 59.7266 156.487 59.5473 157.154 59.6556C158.686 59.9077 159.946 61.5963 159.968 63.4262Z" fill="#606060"/>
<path opacity="0.2" d="M159.768 62.8534C159.785 64.2223 158.869 65.1808 157.723 64.9938C156.577 64.8068 155.634 63.5454 155.618 62.1766C155.602 60.8078 156.518 59.8493 157.664 60.0362C158.81 60.2232 159.752 61.4846 159.768 62.8534Z" fill="black"/>
<path d="M157.093 61.8002C157.305 61.5151 158.608 61.4576 158.632 61.8095C158.703 62.8255 158.082 63.5243 157.587 63.4414C157.508 63.4279 156.349 62.8035 157.093 61.8002Z" fill="#606060"/>
<path opacity="0.2" d="M141.924 73.92C140.412 74.2169 155.541 63.9456 155.541 63.9456C155.541 63.9456 156.506 66.0344 158.638 65.3339C158.638 65.3339 151.154 72.1053 141.924 73.92Z" fill="black"/>
<path d="M135.44 66.8466C135.751 66.4676 135.936 65.9371 135.928 65.3212C135.912 63.9702 134.982 62.7248 133.85 62.5404C133.357 62.46 132.908 62.5946 132.559 62.883C130.422 64.2663 123.195 69.4006 122.049 72.0774C121.328 73.7592 123.873 72.8565 125.632 72.5012C127.354 72.1535 132.338 69.212 135.038 67.2078C135.098 67.1697 135.157 67.1266 135.212 67.08L135.213 67.0784C135.304 67.0115 135.378 66.9329 135.44 66.8466Z" fill="#606060"/>
<path opacity="0.9" d="M135.926 65.322C135.934 65.9388 135.75 66.4684 135.442 66.8491C135.377 66.9328 135.305 67.0132 135.213 67.0817C135.157 67.1299 135.097 67.1697 135.037 67.2095C134.668 67.4819 134.26 67.7704 133.823 68.0707C131.042 69.9615 127.124 72.2017 125.633 72.502C123.874 72.8582 121.33 73.76 122.051 72.0773C122.985 69.8981 127.949 66.0868 130.915 64.0031C131.592 63.526 132.165 63.1377 132.562 62.8813C132.91 62.5928 133.36 62.4609 133.852 62.5404C134.981 62.7257 135.91 63.9718 135.926 65.322Z" fill="white"/>
<path d="M135.927 65.3221C135.934 65.9388 135.751 66.4684 135.442 66.8491C135.378 66.9329 135.306 67.0133 135.213 67.0818C135.158 67.13 135.097 67.1698 135.037 67.2095C134.669 67.4819 134.26 67.7704 133.823 68.0707C133.258 68.0665 132.734 67.9548 132.305 67.7019C130.818 66.828 130.634 65.2214 130.915 64.0032C131.592 63.526 132.165 63.1377 132.562 62.8814C132.911 62.5929 133.36 62.4609 133.852 62.5404C134.981 62.7257 135.91 63.9719 135.927 65.3221Z" fill="#606060"/>
<path opacity="0.2" d="M135.779 64.8991C135.791 65.9092 135.115 66.6165 134.27 66.4777C133.424 66.3398 132.73 65.4092 132.717 64.3991C132.705 63.389 133.381 62.6817 134.226 62.8205C135.072 62.9584 135.768 63.889 135.779 64.8991Z" fill="black"/>
<path d="M133.806 64.1225C133.961 63.9127 134.923 63.8695 134.941 64.1292C134.993 64.8788 134.535 65.394 134.17 65.3331C134.112 65.323 133.257 64.8627 133.806 64.1225Z" fill="#606060"/>
<path opacity="0.2" d="M122.957 72.8802C121.871 73.0943 132.745 65.7112 132.745 65.7112C132.745 65.7112 133.438 67.2129 134.971 66.7095C134.971 66.7095 129.591 71.5757 122.957 72.8802Z" fill="black"/>
<path d="M102.388 93.9228L121.924 92.5049L131.282 87.9872L106.58 90.9931C105.719 91.098 104.915 91.4804 104.291 92.0836L102.388 93.9228Z" fill="#606060"/>
<path d="M128.678 89.2275C128.651 89.2545 128.619 89.2766 128.581 89.2926L121.922 92.5074L103.25 93.8593L102.386 93.9245L104.292 92.0836C104.916 91.4804 105.721 91.1005 106.579 90.9922L128.303 88.3527C128.824 88.2876 129.053 88.9449 128.678 89.2275Z" fill="#606060"/>
<path opacity="0.2" d="M128.678 89.2275C128.651 89.2546 128.619 89.2766 128.581 89.2926L121.922 92.5074L103.25 93.8593L104.292 92.8602C104.916 92.257 105.721 91.8721 106.579 91.7689L128.303 89.1243C128.456 89.1074 128.586 89.1513 128.678 89.2275Z" fill="black"/>
<path d="M101.098 163.441H90.7418V210.132H101.098V163.441Z" stroke="#263238" stroke-width="2.9172" stroke-miterlimit="10"/>
<path d="M92.8728 281.207C92.5869 281.207 91.5125 281.207 91.2265 281.207C89.3755 281.207 87.8755 282.647 87.8755 284.498C87.8755 286.349 89.3755 287.789 91.2265 287.789C91.5125 287.789 92.5869 287.789 92.8728 287.789C94.7239 287.789 96.2238 286.349 96.2238 284.498C96.2238 282.647 94.7239 281.207 92.8728 281.207Z" fill="#263238"/>
<path opacity="0.1" d="M96.2238 284.437C96.2238 286.288 94.7238 287.788 92.8728 287.788C91.0217 287.788 89.5218 286.288 89.5218 284.437C89.5218 282.586 91.0217 281.086 92.8728 281.086C94.7238 281.086 96.2238 282.586 96.2238 284.437Z" fill="white"/>
<path d="M101.922 281.207C101.637 281.207 100.562 281.207 100.276 281.207C98.4251 281.207 96.9252 282.647 96.9252 284.498C96.9252 286.349 98.4251 287.789 100.276 287.789C100.562 287.789 101.637 287.789 101.922 287.789C103.774 287.789 105.273 286.349 105.273 284.498C105.273 282.647 103.773 281.207 101.922 281.207Z" fill="#263238"/>
<path opacity="0.2" d="M105.273 284.437C105.273 286.288 103.774 287.788 101.922 287.788C100.071 287.788 98.5715 286.288 98.5715 284.437C98.5715 282.586 100.071 281.086 101.922 281.086C103.774 281.086 105.273 282.586 105.273 284.437Z" fill="white"/>
<path d="M132.081 211.983V270.185C132.081 275.977 127.384 281.207 121.592 281.207H92.5936V201.41H121.592C125.615 201.41 129.111 203.723 130.872 207.046C131.644 208.51 132.081 210.214 132.081 211.983Z" fill="#606060"/>
<path d="M103.353 282.313H90.5142C89.29 282.313 88.2977 281.32 88.2977 280.097V202.136C88.2977 200.912 89.29 199.921 90.5142 199.921H103.353C104.577 199.921 105.569 200.913 105.569 202.136V280.097C105.57 281.32 104.577 282.313 103.353 282.313Z" fill="#263238"/>
<path opacity="0.2" d="M96.9582 282.313H90.5142C89.29 282.313 88.2977 281.32 88.2977 280.097V202.136C88.2977 200.912 89.29 199.921 90.5142 199.921H96.9582C98.1823 199.921 99.1738 200.913 99.1738 202.136V280.097C99.1747 281.32 98.1823 282.313 96.9582 282.313Z" fill="white"/>
<path opacity="0.2" d="M132.081 211.983V270.185C132.081 275.977 127.384 281.207 121.592 281.207H109.943C109.499 280.385 109.047 278.906 109.047 277.91V212.929C109.047 209.704 111.868 207.167 115.093 207.167H130.871C131.644 208.814 132.081 210.214 132.081 211.983Z" fill="black"/>
<path opacity="0.2" d="M95.3981 280.223H91.0573C90.2087 280.223 89.5218 279.535 89.5218 278.688V203.647C89.5218 202.799 90.2096 202.112 91.0573 202.112H95.3981C96.2466 202.112 96.9336 202.8 96.9336 203.647V278.688C96.9336 279.535 96.2466 280.223 95.3981 280.223Z" fill="black"/>
<path d="M101.231 164.984H90.4338C89.5252 164.984 88.7883 164.247 88.7883 163.339V162.311C88.7883 161.402 89.5252 160.665 90.4338 160.665H101.231C102.14 160.665 102.877 161.402 102.877 162.311V163.339C102.876 164.247 102.14 164.984 101.231 164.984Z" fill="#263238"/>
<path opacity="0.2" d="M101.231 164.984H90.4338C89.5252 164.984 88.7883 164.247 88.7883 163.339V162.311C88.7883 161.402 89.5252 160.665 90.4338 160.665H101.231C102.14 160.665 102.877 161.402 102.877 162.311V163.339C102.876 164.247 102.14 164.984 101.231 164.984Z" fill="white"/>
<path opacity="0.2" d="M101.231 164.984H100.312C99.4031 164.984 98.6662 164.247 98.6662 163.339V162.311C98.6662 161.402 99.4031 160.665 100.312 160.665H101.231C102.14 160.665 102.877 161.402 102.877 162.311V163.339C102.876 164.247 102.14 164.984 101.231 164.984Z" fill="black"/>
<path d="M64.3178 114.02C56.1251 112.95 48.1896 111.436 48.1896 111.436L47.501 112.225C47.501 112.225 33.2247 115.066 31.0065 117.669C28.7883 120.272 29.4389 131.609 29.4389 131.609L30.3636 132.406C30.3636 132.406 30.0903 156.471 33.1816 160.665C36.2729 164.858 49.9959 165.385 60.4651 162.518C70.9327 159.651 72.5105 115.09 64.3178 114.02Z" fill="#263238"/>
<path opacity="0.4" d="M60.4643 162.516C58.7528 162.984 56.9517 163.363 55.1336 163.643C45.7887 165.115 35.7687 164.177 33.1774 160.665C30.0929 156.469 30.3636 132.407 30.3636 132.407L29.4423 131.609C29.4423 131.609 28.7841 120.272 31.0057 117.673C32.8483 115.51 43.0079 113.182 46.3978 112.458C47.089 112.31 47.5002 112.228 47.5002 112.228L48.1914 111.438C48.1914 111.438 56.1218 112.951 64.3153 114.02C72.5079 115.09 70.9285 159.653 60.4643 162.516Z" fill="white"/>
<path opacity="0.2" d="M60.4642 162.516C58.7528 162.984 56.9516 163.363 55.1336 163.643C48.7497 163.519 43.0163 162.655 42.0121 160.665C40.2355 157.111 42.3497 142.624 40.9842 132.407C39.6188 122.189 41.914 114.415 46.4139 112.548L46.3969 112.457C47.0881 112.309 47.4993 112.227 47.4993 112.227L48.1905 111.437C48.1905 111.437 56.1209 112.95 64.3144 114.02C72.5079 115.09 70.9284 159.653 60.4642 162.516Z" fill="black"/>
<path d="M91.6647 154.681L97.5893 157.203L101.023 161.303L96.5267 162.519L94.1046 160.983C94.1046 160.983 89.8831 160.846 88.7883 157.499L91.6647 154.681Z" fill="#CE7A63"/>
<path d="M89.323 158.6C88.2866 158.081 83.8773 155.193 79.6566 152.158C75.897 149.459 72.2938 146.646 71.3319 145.272C70.1391 143.569 68.7982 138.486 67.7779 133.171C66.4861 126.549 65.6967 119.581 66.2889 118.404C67.3507 116.29 71.3319 115.089 71.3319 115.089C76.1364 117.919 78.4147 136.576 79.3935 140.106C79.3935 140.106 92.4244 152.865 92.91 154.33C93.3948 155.794 89.323 158.6 89.323 158.6Z" fill="#606060"/>
<path opacity="0.4" d="M89.323 158.6C88.2866 158.081 83.8773 155.193 79.6566 152.158C75.897 149.459 72.2938 146.646 71.3319 145.272C70.1391 143.569 68.7982 138.486 67.7779 133.171C66.4861 126.549 65.6967 119.581 66.2889 118.404C67.3507 116.29 71.3319 115.089 71.3319 115.089C76.1364 117.919 78.4147 136.576 79.3935 140.106C79.3935 140.106 92.4244 152.865 92.91 154.33C93.3948 155.794 89.323 158.6 89.323 158.6Z" fill="white"/>
<path d="M98.9031 287.784C93.8956 287.784 93.2332 287.707 90.4203 287.612C88.0109 287.526 87.4347 287.827 85.4982 287.784C83.8807 287.749 83.9408 286.201 84.4399 284.419C84.6895 283.525 85.0744 281.633 85.4179 280.188L92.7544 279.655C93.7865 281.626 96.1164 284.436 98.9387 284.816C101.632 285.177 100.9 287.784 98.9031 287.784Z" fill="#606060"/>
<path d="M61.8602 287.784C56.8527 287.784 56.1911 287.707 53.3773 287.612C50.9679 287.526 50.3918 287.827 48.4553 287.784C46.8377 287.749 46.8978 286.201 47.3969 284.419C47.6465 283.525 48.0314 281.633 48.3749 280.188L55.7114 279.655C56.7444 281.626 59.0734 284.436 61.8957 284.816C64.5894 285.177 63.8567 287.784 61.8602 287.784Z" fill="#606060"/>
<path opacity="0.4" d="M98.9031 287.784C93.8956 287.784 93.2332 287.707 90.4203 287.612C88.0109 287.526 87.4347 287.827 85.4982 287.784C83.8807 287.749 83.9408 286.201 84.4399 284.419C84.6895 283.525 85.0744 281.633 85.4179 280.188L92.7544 279.655C93.7865 281.626 96.1164 284.436 98.9387 284.816C101.632 285.177 100.9 287.784 98.9031 287.784Z" fill="white"/>
<path opacity="0.4" d="M61.8602 287.784C56.8527 287.784 56.1911 287.707 53.3773 287.612C50.9679 287.526 50.3918 287.827 48.4553 287.784C46.8377 287.749 46.8978 286.201 47.3969 284.419C47.6465 283.525 48.0314 281.633 48.3749 280.188L55.7114 279.655C56.7444 281.626 59.0734 284.436 61.8957 284.816C64.5894 285.177 63.8567 287.784 61.8602 287.784Z" fill="white"/>
<path opacity="0.2" d="M79.6566 152.158C75.897 149.459 72.2938 146.646 71.3319 145.272C70.1391 143.569 68.7982 138.486 67.7779 133.171C69.1603 130.374 70.2127 128.506 70.2127 128.506C70.2127 128.506 76.4401 136.75 79.6566 152.158Z" fill="black"/>
<path d="M46.9156 80.413C44.353 77.0442 40.8134 75.6314 36.4201 77.9097C32.0268 80.188 32.0057 84.5609 34.2941 89.0456C36.5825 93.5302 29.7519 95.048 31.213 99.5318C31.7899 101.302 33.0733 101.77 33.1071 104.758C33.1275 106.542 30.7688 109.608 32.3051 110.779C34.2729 112.278 40.6848 109.211 39.5291 106.252C38.3735 103.294 42.9275 103.674 43.0925 100.828C43.271 97.7577 41.079 96.7374 41.9208 94.4676C42.9004 91.8222 45.6787 91.9195 46.9173 88.1421C47.9764 84.9061 47.7387 81.4959 46.9156 80.413Z" fill="#606060"/>
<path opacity="0.5" d="M46.9156 80.413C44.353 77.0442 40.8134 75.6314 36.4201 77.9097C32.0268 80.188 32.0057 84.5609 34.2941 89.0456C36.5825 93.5302 29.7519 95.048 31.213 99.5318C31.7899 101.302 33.0733 101.77 33.1071 104.758C33.1275 106.542 30.7688 109.608 32.3051 110.779C34.2729 112.278 40.6848 109.211 39.5291 106.252C38.3735 103.294 42.9275 103.674 43.0925 100.828C43.271 97.7577 41.079 96.7374 41.9208 94.4676C42.9004 91.8222 45.6787 91.9195 46.9173 88.1421C47.9764 84.9061 47.7387 81.4959 46.9156 80.413Z" fill="black"/>
<path d="M74.1863 152.743C74.1863 152.743 80.665 191.794 81.7344 211.94C82.8578 233.097 89.6411 266.983 93.2273 280.223C92.218 281.13 87.4753 281.508 85.2326 280.389C85.2326 280.389 65.6595 241.309 68.2051 216.877C51.8401 170.796 55.7985 153.557 55.7985 153.557L74.1863 152.743Z" fill="#263238"/>
<path opacity="0.2" d="M63.3601 202.214C61.0319 194.538 59.3543 187.891 58.1691 182.191C59.3459 177.733 61.0159 173.915 63.2857 171.62C63.2857 171.62 66.5521 184.041 63.3601 202.214Z" fill="black"/>
<path d="M67.1764 150.696C67.1764 150.696 61.8221 192.128 58.7537 212.068C55.5312 233.009 55.1218 266.609 55.9272 280.303C54.7538 280.984 50.4781 281.808 48.1677 281.086C48.1677 281.086 37.2483 238.734 44.5011 214.136C37.8964 165.684 47.4545 153.819 47.4545 153.819L67.1764 150.696Z" fill="#263238"/>
<path d="M74.5425 148.237C74.8361 142.174 74.9613 137.913 74.9824 133.606C75.1339 127.253 74.7329 125.243 74.5603 122.589C74.2506 117.834 70.524 112.463 65.734 111.964C64.4066 111.826 63.0191 111.705 61.6816 111.63C57.6454 111.402 53.9365 111.674 49.4146 112.048C48.2514 112.145 47.1194 112.273 46.0526 112.419C42.0612 112.962 39.6831 116.86 40.9436 120.792C44.8217 132.89 46.534 140.754 47.0949 147.039C46.4062 148.964 42.7727 159.373 44.2591 160.554C45.8986 161.856 73.2118 162.832 75.3268 160.554C76.968 158.786 75.3496 151.438 74.5425 148.237Z" fill="#606060"/>
<path opacity="0.4" d="M75.3293 160.557C73.2067 162.828 45.8944 161.857 44.2574 160.557C42.7685 159.373 46.4046 148.966 47.0958 147.041C46.8242 144.038 46.298 140.665 45.3843 136.651C44.743 133.796 43.9114 130.605 42.8421 126.984C42.2744 125.051 41.6407 122.986 40.942 120.79C39.6831 116.858 42.0612 112.959 46.0509 112.416C47.1203 112.276 48.2472 112.144 49.4155 112.045C53.9314 111.674 57.642 111.404 61.6816 111.625C63.0141 111.7 64.4041 111.822 65.7289 111.963C70.5249 112.465 74.2515 117.837 74.5561 122.591C74.7287 125.24 75.1322 127.256 74.9841 133.606C74.9596 137.909 74.8361 142.17 74.54 148.233C75.3462 151.434 76.9672 158.789 75.3293 160.557Z" fill="white"/>
<path d="M51.0804 129.718C51.0804 129.718 49.2091 139.192 45.0594 145.276L45.9368 146.733C45.9368 146.733 50.1854 141.453 52.7081 129.718H51.0804Z" fill="#263238"/>
<path opacity="0.2" d="M51.0804 129.718C51.0804 129.718 49.2091 139.192 45.0594 145.276L45.9368 146.733C45.9368 146.733 50.1854 141.453 52.7081 129.718H51.0804Z" fill="white"/>
<path d="M43.2693 113.039C43.2693 113.039 51.1878 115.901 50.297 129.887C50.2386 130.806 50.9628 131.589 51.8841 131.589C52.6193 131.589 53.2631 131.088 53.4331 130.373C54.2977 126.735 56.0887 115.916 48.1888 111.436C48.1888 111.436 44.0121 111.974 43.2693 113.039Z" fill="#263238"/>
<path d="M73.3734 129.718C73.3734 129.718 73.9224 136.489 74.787 142.582L75.3801 141.453C75.3801 141.453 75.0154 135.712 74.6204 129.718H73.3734Z" fill="#263238"/>
<path opacity="0.2" d="M73.3734 129.718C73.3734 129.718 73.9224 136.489 74.787 142.582L75.3801 141.453C75.3801 141.453 75.0154 135.712 74.6204 129.718H73.3734Z" fill="white"/>
<path d="M65.3914 111.928C65.3914 111.928 71.6128 116.105 72.8852 129.951C72.9368 130.509 73.3979 130.943 73.9588 130.943C74.5569 130.943 75.0391 130.461 75.0383 129.863C75.0341 127.017 74.5967 119.148 70.2034 113.445C70.2034 113.445 66.7653 111.225 65.3914 111.928Z" fill="#263238"/>
<g opacity="0.2">
<path d="M66.629 161.085C66.6096 161.085 66.5893 161.082 66.5698 161.077C66.4607 161.044 66.3989 160.929 66.4319 160.821C67.7982 156.261 65.4886 149.236 65.4649 149.165C65.4556 149.136 65.4523 149.106 65.4565 149.076C65.4717 148.946 66.9793 136 65.4573 126.525C64.3135 119.404 61.7772 116.135 61.7519 116.102C61.6808 116.014 61.696 115.884 61.7848 115.814C61.8737 115.744 62.0031 115.757 62.0733 115.847C62.1799 115.981 64.7002 119.221 65.8634 126.46C67.349 135.708 65.9675 148.222 65.8702 149.079C66.0859 149.739 68.1882 156.396 66.8262 160.939C66.7991 161.027 66.7179 161.085 66.629 161.085Z" fill="black"/>
</g>
<path d="M48.8834 107.425C48.8834 107.425 57.3451 109.703 62.9591 108.158C68.5732 106.612 66.4573 115.805 61.2502 115.643C56.0431 115.48 45.7921 109.947 48.8834 107.425Z" fill="#606060"/>
<path d="M49.8021 98.2052C51.0051 102.116 52.5626 109.303 50.0872 112.025C50.0872 112.025 53.8071 111.336 61.9118 115.974C64.0978 112.599 62.3542 111.607 62.3542 111.607C57.8383 110.708 57.5972 107.448 58.0303 104.362L49.8021 98.2052Z" fill="#CE7A63"/>
<path opacity="0.2" d="M53.1574 100.717L58.0278 104.358C57.9229 105.088 57.8594 105.828 57.8865 106.543C56.1784 106.358 53.6684 104.596 53.2986 102.846C53.1134 101.973 53.0584 101.13 53.1574 100.717Z" fill="black"/>
<path d="M46.161 90.3983C47.5763 96.7307 48.0408 99.4336 51.7818 102.367C57.4094 106.778 64.8423 104.089 65.3381 97.5665C65.7848 91.6961 63.3957 82.3267 56.7563 80.4468C50.2158 78.5941 44.7465 84.066 46.161 90.3983Z" fill="#CE7A63"/>
<path d="M55.0177 77.3048C59.7257 77.886 66.0834 83.0728 59.9372 83.6177C59.7587 85.5516 56.219 85.2775 53.7301 84.0466C53.9797 85.4949 51.3638 88.1091 48.2083 86.9822C49.9849 88.148 49.7277 93.0066 47.4519 93.1064C45.1762 93.2054 40.3405 94.0835 41.7507 86.1853C43.1602 78.2853 49.9866 76.6838 55.0177 77.3048Z" fill="#606060"/>
<path opacity="0.5" d="M55.0177 77.3048C59.7257 77.886 66.0834 83.0728 59.9372 83.6177C59.7587 85.5516 56.219 85.2775 53.7301 84.0466C53.9797 85.4949 51.3638 88.1091 48.2083 86.9822C49.9849 88.148 49.7277 93.0066 47.4519 93.1064C45.1762 93.2054 40.3405 94.0835 41.7507 86.1853C43.1602 78.2853 49.9866 76.6838 55.0177 77.3048Z" fill="black"/>
<path d="M54.3367 91.1817C54.4323 91.7181 54.7893 92.1233 55.1336 92.0861C55.4779 92.0489 55.6793 91.5836 55.5837 91.0472C55.4881 90.5108 55.1311 90.1056 54.7868 90.1428C54.4433 90.18 54.2411 90.6453 54.3367 91.1817Z" fill="#263238"/>
<path d="M61.0209 90.2512C61.1165 90.7875 61.4735 91.1928 61.8178 91.1555C62.1622 91.1183 62.3635 90.653 62.2679 90.1166C62.1723 89.5803 61.8153 89.175 61.471 89.2123C61.1267 89.2495 60.9253 89.7139 61.0209 90.2512Z" fill="#263238"/>
<path d="M61.3246 89.258L62.5243 88.7495C62.5243 88.7495 62.0539 89.8265 61.3246 89.258Z" fill="#263238"/>
<path d="M59.1843 91.6512C59.1843 91.6512 60.4905 93.8644 61.674 94.8728C61.0962 95.6088 59.8594 95.4354 59.8594 95.4354L59.1843 91.6512Z" fill="#BA4D3C"/>
<path d="M57.1843 97.7459C57.466 97.7653 57.7655 97.7619 58.0819 97.7281C58.1673 97.7188 58.224 97.641 58.208 97.5538C58.1927 97.4675 58.1132 97.4041 58.0252 97.4134C55.7148 97.6646 54.3392 96.1351 54.3257 96.1198C54.2664 96.0513 54.1666 96.0412 54.1032 96.097C54.0397 96.152 54.0372 96.2518 54.0964 96.3195C54.1497 96.3787 55.2563 97.6113 57.1843 97.7459Z" fill="#263238"/>
<path d="M44.8979 95.8711C45.8242 97.0877 47.1609 97.7543 48.3259 97.8914C50.0771 98.0978 50.5804 96.3296 49.7818 94.7045C49.0627 93.2417 47.2853 91.3729 45.6779 91.9194C44.0933 92.4583 43.8378 94.4803 44.8979 95.8711Z" fill="#CE7A63"/>
<path d="M52.747 87.9263C52.8299 87.9247 52.9095 87.89 52.9653 87.824C53.8341 86.7826 54.9872 86.9594 55.0008 86.9619C55.1717 86.989 55.3265 86.8739 55.3426 86.7005C55.3586 86.5279 55.2309 86.3646 55.0575 86.3359C54.9974 86.3266 53.5499 86.1024 52.4712 87.3959C52.3638 87.5245 52.3875 87.725 52.5237 87.8434C52.5888 87.9001 52.6692 87.9272 52.747 87.9263Z" fill="#263238"/>
<path d="M63.1402 86.4213C63.218 86.4297 63.2975 86.4094 63.3601 86.3587C63.4896 86.2521 63.5014 86.0533 63.3864 85.9145C62.2307 84.522 60.7925 84.6142 60.7316 84.6184C60.5599 84.632 60.4414 84.7834 60.4668 84.9577C60.4922 85.132 60.6521 85.2623 60.8238 85.2504C60.8797 85.2462 61.9972 85.1912 62.916 86.2986C62.976 86.3705 63.0573 86.412 63.1402 86.4213Z" fill="#263238"/>
<path d="M54.6404 90.1894L55.84 89.6809C55.84 89.6809 55.3705 90.7579 54.6404 90.1894Z" fill="#263238"/>
<path d="M61.9126 115.973C61.9126 115.973 49.2903 103.438 42.9444 107.831C39.3295 110.334 41.48 113.038 43.2702 113.038C45.0891 113.038 47.501 112.224 47.501 112.224C47.501 112.224 51.753 115.166 61.9126 115.973Z" fill="#606060"/>
<path d="M61.9126 115.973C61.9126 115.973 64.1799 110.923 63.1215 108.889C62.064 106.855 68.898 107.098 69.3862 111.167C69.8743 115.235 61.9126 115.973 61.9126 115.973Z" fill="#606060"/>
<path opacity="0.2" d="M61.9126 115.973C61.9126 115.973 49.2903 103.438 42.9444 107.831C39.3295 110.334 41.48 113.038 43.2702 113.038C45.0891 113.038 47.501 112.224 47.501 112.224C47.501 112.224 51.753 115.166 61.9126 115.973Z" fill="white"/>
<path opacity="0.2" d="M61.9126 115.973C61.9126 115.973 64.1799 110.923 63.1215 108.889C62.064 106.855 68.898 107.098 69.3862 111.167C69.8743 115.235 61.9126 115.973 61.9126 115.973Z" fill="white"/>
<path d="M67.8904 138.127L58.3805 156.776L46.5839 151.996L46.6499 151.873L45.7041 150.779L45.0374 150.524L54.983 131.25C54.983 131.25 65.3152 135.511 66.426 136.161C67.5292 136.811 67.8904 138.127 67.8904 138.127Z" fill="#606060"/>
<path opacity="0.4" d="M67.8904 138.127L58.3805 156.776L46.5839 151.996L46.6499 151.873L45.7041 150.779L45.0374 150.524L54.983 131.25C54.983 131.25 65.3152 135.511 66.426 136.161C66.4835 136.194 66.541 136.235 66.5901 136.276C67.5613 136.943 67.8904 138.127 67.8904 138.127Z" fill="black"/>
<path opacity="0.2" d="M67.8904 138.127L58.3805 156.776L46.5839 151.996L46.6499 151.873L45.704 150.779L57.3035 155.131L66.5909 136.276C67.5613 136.943 67.8904 138.127 67.8904 138.127Z" fill="black"/>
<path opacity="0.6" d="M57.9609 156.48L46.6491 151.874L45.7032 150.78L57.2698 155.238C58.1174 155.97 57.9609 156.48 57.9609 156.48Z" fill="white"/>
<path d="M52.1015 147.086L61.2392 133.035L65.8828 135.837L56.9525 149.787L52.1015 147.086Z" fill="white"/>
<path opacity="0.1" d="M52.1015 147.086L61.2392 133.035L65.8828 135.837L56.9525 149.787L52.1015 147.086Z" fill="black"/>
<path d="M52.22 147.024L60.4211 132.406L65.2382 134.898L57.2376 149.402L52.22 147.024Z" fill="white"/>
<path d="M53.269 146.481L56.8036 135.877L64.723 137.775L61.4676 148.422L53.269 146.481Z" fill="#606060"/>
<path d="M61.2865 142.505C60.9219 143.74 59.6216 144.495 58.3822 144.191C57.1428 143.888 56.4339 142.64 56.7985 141.405C57.1631 140.17 58.4634 139.416 59.7028 139.719C60.9422 140.022 61.6511 141.27 61.2865 142.505Z" stroke="white" stroke-width="0.2431" stroke-miterlimit="10"/>
<path d="M59.7028 139.719L58.3813 144.19" stroke="white" stroke-width="0.2431" stroke-miterlimit="10"/>
<path d="M60.3077 142.265C59.9431 143.5 59.081 144.362 58.3814 144.19C57.6826 144.019 57.411 142.879 57.7765 141.644C58.1411 140.409 59.0032 139.547 59.7028 139.719C60.4016 139.89 60.6723 141.03 60.3077 142.265Z" stroke="white" stroke-width="0.2582" stroke-miterlimit="10"/>
<path d="M56.7977 141.405L61.2865 142.505" stroke="white" stroke-width="0.2582" stroke-miterlimit="10"/>
<path d="M63.8508 146.57L62.6435 144.954C62.1892 144.347 61.4693 143.997 60.7113 144.014L57.1674 144.093C55.7503 144.125 54.4373 144.841 53.643 146.014L53.1514 146.741C54.9712 149.557 59.0117 151.26 59.0117 151.26L60.1098 151.874C61.0878 152.419 62.2586 152.117 62.7984 151.179L64.042 149.019C64.4701 148.272 64.3948 147.298 63.8508 146.57Z" fill="#CE7A63"/>
<path opacity="0.2" d="M45.3851 136.651C44.7439 133.796 43.9122 130.604 42.8429 126.984C43.7227 126.318 44.7676 126.285 45.9359 127.272C45.9359 127.272 46.6685 132.373 45.3851 136.651Z" fill="black"/>
<path d="M43.1483 114.093C40.4876 112.583 29.0269 134.992 30.4913 142.624C31.9557 150.255 55.5261 149.141 55.5261 149.141C55.5261 149.141 56.9804 145.937 56.5913 143.947C56.5913 143.947 45.6254 139.535 40.5807 138.468L46.5019 127.312C46.5019 127.312 47.6693 116.658 43.1483 114.093Z" fill="#606060"/>
<path opacity="0.4" d="M43.1483 114.093C40.4876 112.583 29.0269 134.992 30.4913 142.624C31.9557 150.255 55.5261 149.141 55.5261 149.141C55.5261 149.141 56.9804 145.937 56.5913 143.947C56.5913 143.947 45.6254 139.535 40.5807 138.468L46.5019 127.312C46.5019 127.312 47.6693 116.658 43.1483 114.093Z" fill="white"/>
<path d="M75.9172 41.8709C75.9172 29.4948 65.8845 19.4612 53.5075 19.4612C41.1314 19.4612 31.0987 29.494 31.0987 41.8709C31.0987 53.3926 39.7956 62.8788 50.9822 64.1351L53.5084 72.5977L56.0337 64.1351C67.2204 62.8797 75.9172 53.3926 75.9172 41.8709Z" fill="#606060"/>
<path opacity="0.8" d="M75.9172 41.8709C75.9172 29.4948 65.8845 19.4612 53.5075 19.4612C41.1314 19.4612 31.0987 29.494 31.0987 41.8709C31.0987 53.3926 39.7956 62.8788 50.9822 64.1351L53.5084 72.5977L56.0337 64.1351C67.2204 62.8797 75.9172 53.3926 75.9172 41.8709Z" fill="white"/>
<path d="M62.6646 36.9971V49.6296C62.6646 50.737 58.5641 51.6355 53.5118 51.6355C48.4501 51.6355 44.3589 50.7379 44.3589 49.6296V36.9971H62.6646Z" fill="#606060"/>
<path opacity="0.2" d="M62.6646 36.9971V41.5173L53.5118 44.601L44.3589 41.5173V36.9971H62.6646Z" fill="black"/>
<path d="M53.5075 31.3797L36.8633 36.9938L53.5075 42.6078L70.1526 36.9938L53.5075 31.3797Z" fill="#606060"/>
<path d="M64.2331 46.4368V38.9928L53.5118 35.3711" stroke="#263238" stroke-width="0.8434" stroke-miterlimit="10" stroke-linecap="round" stroke-linejoin="round"/>
<path d="M64.234 45.6796C63.8956 45.6796 63.6206 45.9816 63.6206 46.3539V47.9494H64.8465V46.3539C64.8465 45.9808 64.5724 45.6796 64.234 45.6796Z" fill="#263238"/>
<path d="M345.572 296.21C345.572 296.326 268.207 296.42 172.794 296.42C77.3482 296.42 0 296.326 0 296.21C0 296.095 77.3482 296 172.794 296C268.207 296 345.572 296.094 345.572 296.21Z" fill="#263238"/>
</svg>
