<svg width="253" height="133" viewBox="0 0 253 133" fill="none" xmlns="http://www.w3.org/2000/svg">
<path d="M114.233 61.6615C113.881 58.1812 113.425 54.7216 112.897 51.3035C112.369 47.8853 111.778 44.3532 111.063 40.9454C110.711 39.2363 109.158 32.4518 108.743 30.7634C107.925 27.3763 107.065 24.01 106.206 20.6332C106.164 20.4874 106.181 20.3311 106.254 20.1978C106.326 20.0645 106.448 19.9648 106.592 19.9202C106.737 19.8755 106.894 19.8893 107.029 19.9587C107.164 20.0281 107.266 20.1475 107.314 20.2914C108.465 23.6092 109.447 26.9834 110.256 30.4009C110.67 32.0996 111.032 33.8191 111.374 35.5799C111.716 37.3408 112.006 39.0292 112.286 40.759C112.845 44.2186 113.322 47.6989 113.663 51.1792C114.005 54.6595 114.243 58.1605 114.388 61.6615C114.388 61.6808 114.381 61.6992 114.367 61.7128C114.354 61.7264 114.335 61.734 114.316 61.734L114.233 61.6615Z" fill="#F7CD37"/>
<path d="M124.663 54.3072C124.787 52.0285 124.994 49.7393 125.284 47.4709C125.574 45.2025 125.978 42.9237 126.444 40.676C126.896 38.4214 127.463 36.1915 128.143 33.9951C128.836 31.7988 129.662 29.6472 130.619 27.5524C130.686 27.4135 130.805 27.3064 130.95 27.2541C131.095 27.2019 131.255 27.2085 131.396 27.2727C131.526 27.3299 131.63 27.434 131.688 27.5644C131.745 27.6948 131.752 27.842 131.706 27.977C131.023 30.1419 130.287 32.286 129.635 34.4612C128.982 36.6364 128.278 38.7805 127.667 40.966C127.056 43.1516 126.538 45.3682 126.061 47.5952C125.585 49.8222 125.16 52.0699 124.829 54.328C124.829 54.3382 124.827 54.3484 124.823 54.3577C124.819 54.367 124.812 54.3751 124.804 54.3813C124.796 54.3874 124.786 54.3915 124.776 54.393C124.766 54.3945 124.755 54.3935 124.746 54.3901C124.724 54.3901 124.703 54.3814 124.687 54.3658C124.672 54.3503 124.663 54.3292 124.663 54.3072Z" fill="#F7CD37"/>
<path d="M100.964 54.7216C99.5367 51.0962 97.876 47.567 95.9922 44.1564C95.06 42.4576 94.0242 40.8107 93.0505 39.1431C92.0768 37.4754 90.9789 35.8492 90.0259 34.1816C89.9811 34.1197 89.9488 34.0495 89.931 33.9752C89.9132 33.9008 89.9103 33.8237 89.9223 33.7482C89.9343 33.6727 89.9611 33.6003 90.0011 33.5351C90.0411 33.47 90.0935 33.4133 90.1554 33.3684C90.2173 33.3236 90.2874 33.2913 90.3618 33.2735C90.4362 33.2557 90.5133 33.2528 90.5888 33.2648C90.6643 33.2768 90.7367 33.3036 90.8018 33.3436C90.867 33.3836 90.9236 33.436 90.9685 33.4979C92.216 35.0325 93.3547 36.6523 94.3763 38.3455C95.3925 40.0378 96.3023 41.7917 97.1005 43.597C98.7603 47.1662 100.102 50.875 101.109 54.6802C101.12 54.6932 101.126 54.7097 101.126 54.7268C101.126 54.7438 101.12 54.7603 101.109 54.7734C101.098 54.7858 101.084 54.7947 101.068 54.7989C101.052 54.803 101.035 54.8023 101.019 54.7967C101.003 54.7911 100.99 54.781 100.98 54.7676C100.97 54.7542 100.965 54.7382 100.964 54.7216Z" fill="#F7CD37"/>
<path d="M131.966 60.1701C132.903 57.2313 134.045 54.362 135.384 51.5833C136.734 48.7978 138.274 46.1086 139.994 43.535C140.864 42.2506 141.754 40.9766 142.707 39.7543C143.66 38.5321 144.665 37.3409 145.722 36.2015C147.822 33.9229 150.128 31.8425 152.61 29.9867C152.67 29.9402 152.739 29.9062 152.812 29.8867C152.886 29.8672 152.962 29.8627 153.038 29.8733C153.113 29.8839 153.185 29.9095 153.251 29.9485C153.316 29.9876 153.373 30.0393 153.418 30.1006C153.505 30.2176 153.546 30.3628 153.533 30.5082C153.519 30.6535 153.452 30.7888 153.345 30.8878C151.097 32.9595 148.922 35.0311 146.861 37.2891C144.791 39.5143 142.841 41.8482 141.019 44.2808C139.203 46.7303 137.553 49.2979 136.078 51.9665C134.579 54.6388 133.257 57.407 132.121 60.253C132.115 60.2599 132.107 60.2653 132.098 60.2691C132.089 60.2728 132.079 60.2747 132.07 60.2747C132.06 60.2747 132.05 60.2728 132.042 60.2691C132.033 60.2653 132.025 60.2599 132.018 60.253C132 60.2481 131.985 60.2369 131.976 60.2216C131.966 60.2062 131.963 60.1879 131.966 60.1701Z" fill="#F7CD37"/>
<path d="M98.7264 67.7623C97.0576 65.3255 95.227 63.0035 93.247 60.812C91.293 58.5982 89.1887 56.5217 86.9493 54.5972C84.704 52.7126 82.3598 50.9492 79.9265 49.3145C77.5027 47.6573 74.9857 46.2071 72.4169 44.7466C72.2958 44.6703 72.2073 44.5519 72.1682 44.4142C72.1292 44.2765 72.1424 44.1293 72.2054 44.0008C72.2684 43.8722 72.3766 43.7715 72.5094 43.718C72.6421 43.6645 72.7899 43.6619 72.9244 43.7108C75.6705 44.9136 78.3018 46.3627 80.7862 48.0405C83.2739 49.715 85.6131 51.6002 87.7779 53.6753C89.9545 55.7216 91.9797 57.9233 93.8374 60.263C95.6843 62.5994 97.363 65.0639 98.8611 67.638C98.8756 67.6534 98.8838 67.6737 98.8838 67.6949C98.8838 67.7161 98.8756 67.7365 98.8611 67.7519C98.8611 67.7519 98.7575 67.7933 98.7264 67.7623Z" fill="#F7CD37"/>
<path d="M163.154 17.3188L161.952 22.1146L165.225 25.8124L160.295 26.1543L157.788 30.4011L155.945 25.8228L151.118 24.7559L154.909 21.576L154.443 16.6663L158.617 19.2868L163.154 17.3188Z" fill="#F7CD37"/>
<path d="M111.643 16.9044L105.221 14.926L99.9488 19.1003L99.8348 12.3779L94.2415 8.65935L100.601 6.47379L102.414 0L106.443 5.37584L113.166 5.09617L109.302 10.5963L111.643 16.9044Z" fill="#F7CD37"/>
<path d="M59.1283 33.9538L64.1002 35.3003L68.0362 31.965L68.2848 37.113L72.6663 39.8165L67.8601 41.6498L66.6379 46.6528L63.4062 42.6442L58.2686 43.0275L61.086 38.7185L59.1283 33.9538Z" fill="#F7CD37"/>
<path d="M154.96 47.3364C154.96 46.7013 155.149 46.0805 155.502 45.5524C155.854 45.0244 156.356 44.6128 156.943 44.3698C157.529 44.1268 158.175 44.0632 158.798 44.1871C159.421 44.311 159.993 44.6168 160.442 45.0658C160.891 45.5149 161.197 46.0871 161.321 46.7099C161.445 47.3328 161.381 47.9784 161.138 48.5652C160.895 49.1519 160.483 49.6534 159.955 50.0062C159.427 50.3591 158.807 50.5474 158.171 50.5474C157.32 50.5474 156.503 50.2091 155.901 49.6069C155.299 49.0047 154.96 48.188 154.96 47.3364Z" fill="#F7CD37"/>
<path d="M74.4883 60.1906C74.4883 59.7481 74.6195 59.3155 74.8653 58.9476C75.1112 58.5797 75.4606 58.2929 75.8694 58.1236C76.2783 57.9542 76.7281 57.9099 77.1621 57.9963C77.5961 58.0826 77.9948 58.2957 78.3077 58.6086C78.6206 58.9215 78.8336 59.3201 78.92 59.7541C79.0063 60.1881 78.962 60.638 78.7927 61.0468C78.6233 61.4556 78.3366 61.8051 77.9686 62.0509C77.6007 62.2968 77.1681 62.428 76.7256 62.428C76.1322 62.428 75.5632 62.1922 75.1436 61.7727C74.724 61.3531 74.4883 60.784 74.4883 60.1906Z" fill="#F7CD37"/>
<path d="M0.666992 97.9147C0.666992 97.2796 0.855316 96.6588 1.20815 96.1308C1.56097 95.6027 2.06246 95.1912 2.6492 94.9481C3.23593 94.7051 3.88156 94.6415 4.50443 94.7654C5.1273 94.8893 5.69945 95.1951 6.14851 95.6442C6.59758 96.0933 6.9034 96.6654 7.0273 97.2883C7.15119 97.9111 7.08761 98.5568 6.84457 99.1435C6.60154 99.7302 6.18998 100.232 5.66193 100.585C5.13389 100.937 4.51307 101.126 3.878 101.126C3.45632 101.126 3.03877 101.043 2.6492 100.881C2.25962 100.72 1.90564 100.483 1.60747 100.185C1.30931 99.8871 1.07278 99.5331 0.911415 99.1435C0.750047 98.7539 0.666992 98.3364 0.666992 97.9147Z" fill="#F7CD37"/>
<path d="M185.455 45.9587C185.455 45.5157 185.586 45.0827 185.833 44.7146C186.079 44.3464 186.429 44.0597 186.838 43.8907C187.248 43.7216 187.698 43.6779 188.133 43.7651C188.567 43.8523 188.965 44.0664 189.278 44.3803C189.59 44.6943 189.803 45.0939 189.888 45.5286C189.973 45.9632 189.927 46.4134 189.756 46.8221C189.585 47.2307 189.297 47.5794 188.928 47.824C188.558 48.0686 188.125 48.1981 187.682 48.196C187.389 48.196 187.098 48.1381 186.827 48.0255C186.556 47.9129 186.31 47.748 186.103 47.5401C185.897 47.3322 185.733 47.0855 185.621 46.8141C185.51 46.5427 185.453 46.252 185.455 45.9587Z" fill="#F7CD37"/>
<path d="M137.031 100.888C137.031 100.445 137.162 100.012 137.408 99.6435C137.655 99.2753 138.005 98.9885 138.414 98.8195C138.824 98.6505 139.274 98.6068 139.708 98.694C140.142 98.7811 140.541 98.9953 140.854 99.3092C141.166 99.6231 141.378 100.023 141.463 100.457C141.549 100.892 141.503 101.342 141.332 101.751C141.161 102.16 140.873 102.508 140.503 102.753C140.134 102.997 139.7 103.127 139.258 103.125C138.964 103.125 138.674 103.067 138.403 102.954C138.132 102.842 137.886 102.677 137.679 102.469C137.472 102.261 137.308 102.014 137.197 101.743C137.086 101.472 137.029 101.181 137.031 100.888Z" fill="#F7CD37"/>
<path d="M9.37797 55.3745C10.6136 55.3745 11.6153 54.3728 11.6153 53.1372C11.6153 51.9015 10.6136 50.8998 9.37797 50.8998C8.14232 50.8998 7.14062 51.9015 7.14062 53.1372C7.14062 54.3728 8.14232 55.3745 9.37797 55.3745Z" fill="#F7CD37"/>
<path d="M248.297 103.301C248.297 102.858 248.429 102.425 248.675 102.057C248.921 101.689 249.271 101.402 249.681 101.233C250.09 101.064 250.541 101.02 250.975 101.108C251.409 101.195 251.808 101.409 252.12 101.723C252.433 102.037 252.645 102.436 252.73 102.871C252.815 103.306 252.769 103.756 252.599 104.164C252.428 104.573 252.139 104.922 251.77 105.166C251.401 105.411 250.967 105.54 250.524 105.538C249.933 105.536 249.366 105.299 248.949 104.879C248.531 104.46 248.297 103.893 248.297 103.301Z" fill="#F7CD37"/>
<path d="M163.755 117.067C164.99 117.067 165.992 116.065 165.992 114.83C165.992 113.594 164.99 112.592 163.755 112.592C162.519 112.592 161.517 113.594 161.517 114.83C161.517 116.065 162.519 117.067 163.755 117.067Z" fill="#F7CD37"/>
<path d="M220.642 112.748C220.642 112.305 220.773 111.873 221.019 111.505C221.265 111.137 221.614 110.85 222.023 110.681C222.432 110.511 222.882 110.467 223.316 110.553C223.75 110.64 224.149 110.853 224.461 111.166C224.774 111.479 224.987 111.877 225.074 112.311C225.16 112.745 225.116 113.195 224.946 113.604C224.777 114.013 224.49 114.362 224.122 114.608C223.755 114.854 223.322 114.985 222.879 114.985C222.286 114.985 221.717 114.749 221.297 114.33C220.878 113.91 220.642 113.341 220.642 112.748Z" fill="#F7CD37"/>
<path d="M24.8228 113.783C26.0584 113.783 27.0601 112.782 27.0601 111.546C27.0601 110.31 26.0584 109.309 24.8228 109.309C23.5871 109.309 22.5854 110.31 22.5854 111.546C22.5854 112.782 23.5871 113.783 24.8228 113.783Z" fill="#F7CD37"/>
<path d="M240.592 55.7471C241.827 55.7471 242.829 54.7455 242.829 53.5098C242.829 52.2741 241.827 51.2725 240.592 51.2725C239.356 51.2725 238.354 52.2741 238.354 53.5098C238.354 54.7455 239.356 55.7471 240.592 55.7471Z" fill="#F7CD37"/>
<path d="M48.7593 57.5184C48.7593 56.8833 48.9476 56.2625 49.3004 55.7344C49.6533 55.2064 50.1548 54.7948 50.7415 54.5518C51.3282 54.3088 51.9739 54.2452 52.5967 54.3691C53.2196 54.493 53.7917 54.7988 54.2408 55.2479C54.6899 55.6969 54.9957 56.2691 55.1196 56.8919C55.2435 57.5148 55.1799 58.1604 54.9369 58.7472C54.6938 59.3339 54.2823 59.8354 53.7542 60.1882C53.2262 60.5411 52.6054 60.7294 51.9703 60.7294C51.5482 60.7307 51.1301 60.6486 50.7399 60.4877C50.3497 60.3269 49.9952 60.0904 49.6967 59.7919C49.3983 59.4935 49.1618 59.139 49.0009 58.7488C48.84 58.3586 48.7579 57.9404 48.7593 57.5184Z" fill="#F7CD37"/>
<path d="M102.218 108.739C102.218 108.104 102.406 107.483 102.759 106.955C103.112 106.427 103.613 106.016 104.2 105.773C104.787 105.53 105.433 105.466 106.055 105.59C106.678 105.714 107.25 106.02 107.7 106.469C108.149 106.918 108.454 107.49 108.578 108.113C108.702 108.736 108.639 109.381 108.396 109.968C108.153 110.555 107.741 111.056 107.213 111.409C106.685 111.762 106.064 111.95 105.429 111.95C104.577 111.95 103.761 111.612 103.158 111.01C102.556 110.407 102.218 109.591 102.218 108.739Z" fill="#F7CD37"/>
<path d="M216.178 52.2047L216.406 56.1097L219.751 58.1399L216.105 59.5589L215.204 63.3603L212.729 60.3358L208.834 60.6569L210.947 57.3734L209.435 53.7688L213.215 54.7631L216.178 52.2047Z" fill="#F7CD37"/>
<path d="M53.0577 101.954L53.2856 105.859L56.6313 107.89L52.9852 109.309L52.0841 113.11L49.6085 110.085L45.7139 110.407L47.8269 107.113L46.325 103.508L50.0953 104.502L53.0577 101.954Z" fill="#F7CD37"/>
<path d="M191.172 99.6964L193.782 102.607L197.667 102.11L195.699 105.497L197.377 109.029L193.554 108.211L190.716 110.893L190.312 106.999L186.874 105.124L190.457 103.55L191.172 99.6964Z" fill="#F7CD37"/>
<path d="M78.8496 126.099C78.8496 125.657 78.9808 125.224 79.2267 124.856C79.4725 124.488 79.8219 124.202 80.2308 124.032C80.6396 123.863 81.0894 123.819 81.5234 123.905C81.9574 123.991 82.3561 124.204 82.669 124.517C82.9819 124.83 83.195 125.229 83.2813 125.663C83.3676 126.097 83.3233 126.547 83.154 126.955C82.9846 127.364 82.6979 127.714 82.33 127.96C81.962 128.205 81.5295 128.337 81.087 128.337C80.4936 128.337 79.9245 128.101 79.5049 127.681C79.0853 127.262 78.8496 126.693 78.8496 126.099Z" fill="#F7CD37"/>
<path d="M122.063 121.283L124.674 124.193L128.548 123.686L126.59 127.073L128.258 130.605L124.435 129.787L121.597 132.469L121.193 128.575L117.765 126.7L121.338 125.126L122.063 121.283Z" fill="#F7CD37"/>
<path d="M247.748 87.0182C247.324 87.215 246.34 87.6604 246.236 88.6444C246.204 89.006 246.278 89.3691 246.449 89.6893C246.62 90.0094 246.881 90.2727 247.199 90.4467C247.7 90.6811 248.271 90.7145 248.795 90.5399C249.363 90.4897 249.889 90.2226 250.265 89.7941C250.559 89.3762 250.697 88.8688 250.655 88.3598C250.614 87.8508 250.395 87.3725 250.038 87.0078C249.25 86.3345 248.163 86.8317 247.748 87.0182Z" fill="#E81948"/>
<path d="M250.576 60.1803C250.196 59.9376 249.769 59.7772 249.323 59.7094C248.877 59.6416 248.422 59.6679 247.987 59.7867C247.709 59.8313 247.444 59.9336 247.209 60.0871C246.973 60.2405 246.773 60.4416 246.62 60.6775C246.484 61.1693 246.438 61.6817 246.485 62.1898C246.485 62.7595 246.485 63.0495 246.485 63.5777C246.568 64.6964 247.22 78.9698 247.272 82.9266C247.272 83.3099 247.272 84.3353 247.966 84.7704C248.203 84.9152 248.476 84.9906 248.753 84.9879C249.165 84.9934 249.564 84.8457 249.872 84.5736C250.032 84.398 250.155 84.1919 250.233 83.9676C250.312 83.7433 250.344 83.5055 250.328 83.2684C250.328 79.3738 250.628 75.4274 250.939 71.6053C251.146 69.1607 251.353 66.6437 251.467 64.1578V64.0335C251.612 62.6041 251.612 60.9779 250.576 60.1803Z" fill="#E81948"/>
<path d="M240.549 85.9618C238.767 84.3977 236.924 82.7819 236.261 80.0059C235.966 78.9816 236.02 77.8882 236.416 76.8985C237.203 75.148 239.378 73.7911 240.559 74.309C241.392 74.6346 242.077 75.2535 242.486 76.0491C242.549 76.1788 242.659 76.2791 242.794 76.3293C242.929 76.3795 243.079 76.3756 243.211 76.3184C243.359 76.2664 243.482 76.1612 243.557 76.0234C243.631 75.8856 243.652 75.7249 243.615 75.5726C243.485 74.892 243.221 74.2443 242.836 73.6679C242.452 73.0914 241.956 72.5979 241.378 72.2166C239.306 71.0772 236.116 71.7816 234.127 73.8118C232.788 75.374 232.102 77.3918 232.211 79.4466C232.194 79.6845 232.194 79.9233 232.211 80.1613C232.433 81.7074 233.115 83.151 234.168 84.3045C234.293 84.4495 234.438 84.5945 234.572 84.7395C233.476 86.3312 231.994 87.618 230.263 88.4788C229.766 88.6963 229.507 88.7378 229.29 88.6445C228.492 88.3027 228.647 86.2311 228.896 82.8026C228.896 82.264 228.979 81.6735 229.031 81.0624C229.466 74.6301 229.3 72.776 228.202 72.1338C227.837 71.9773 227.444 71.8967 227.047 71.8967C226.65 71.8967 226.257 71.9773 225.892 72.1338C224.37 72.5688 222.961 73.9154 219.978 79.5916C219.978 79.4258 219.978 79.2808 219.978 79.1047C219.978 78.9287 219.978 78.6593 219.978 78.4108C220.133 75.2101 220.206 72.3202 219.253 72.0923C218.933 72.0536 218.609 72.0536 218.289 72.0923C217.815 72.0873 217.344 72.1863 216.912 72.3824C216.239 72.8174 216.301 73.8532 216.321 74.2054C216.404 75.6452 216.321 77.1056 216.321 78.5247C216.321 78.7008 216.321 78.8872 216.321 79.0633C216.018 79.2399 215.699 79.389 215.368 79.5087C214.887 79.6919 214.387 79.8204 213.877 79.892C213.266 75.5934 211.039 72.3202 208.429 71.9162C207.736 71.7865 207.024 71.7995 206.336 71.9545C205.649 72.1094 205 72.4031 204.43 72.8174L203.571 73.8532C202.384 74.2848 201.325 75.0067 200.489 75.953C199.653 76.8993 199.067 78.0398 198.785 79.2705C198.234 81.199 198.198 83.2383 198.682 85.1849C198.07 85.9552 197.402 86.6788 196.682 87.3498C195.16 88.7274 194.694 88.7067 194.611 88.6549C194.3 88.5306 193.979 87.9816 194.041 84.7603C194.041 82.9062 194.207 81.6528 194.362 80.0991C194.414 79.6019 194.466 79.0633 194.518 78.504C195.025 73.0764 194.632 72.3824 194.114 72.082C193.658 71.9158 193.163 71.8912 192.694 72.0113C192.224 72.1315 191.802 72.3908 191.483 72.7552C191.067 73.2372 190.833 73.8489 190.82 74.485C190.571 77.5925 190.499 80.4202 190.478 82.2432C189.679 83.4501 188.724 84.5471 187.64 85.506C186.604 86.4072 184.74 88.0748 183.704 87.5776C182.896 87.1633 182.896 85.506 182.896 84.8328C182.896 79.9955 182.958 76.2252 183.02 73.3146L184.336 73.2524C187.764 73.0764 188.8 73.0246 189.266 72.1338C189.453 71.7887 189.526 71.3931 189.474 71.0041C189.422 70.6151 189.247 70.2526 188.976 69.9689C188.469 69.5753 187.733 69.8239 186.904 70.0829L186.583 70.1968C185.415 70.557 184.225 70.8407 183.02 71.0462C183.155 66.2815 183.3 64.6035 183.3 64.5827C183.372 63.8577 183.445 62.1486 182.689 61.8378C182.43 61.7343 182.036 61.8379 181.156 62.0864C180.82 62.1543 180.496 62.2694 180.192 62.4283C179.924 62.6964 179.719 63.0224 179.596 63.3814C179.472 63.7404 179.431 64.1229 179.478 64.4999C179.478 65.7532 179.426 68.7052 179.353 71.5951C178.545 71.678 177.893 71.7194 177.499 71.7298C177.106 71.7402 176.464 71.7298 176.236 72.1856C176.191 72.2868 176.168 72.3961 176.168 72.5067C176.168 72.6172 176.191 72.7266 176.236 72.8278C176.443 73.3664 177.385 73.5217 178.804 73.5217H179.291C179.291 74.1847 179.032 79.8195 179.012 81.4975C179.012 82.264 179.012 83.4033 179.012 84.8017C178.577 85.1539 178.131 85.506 177.686 85.8375C175.241 87.6605 174.641 87.7434 174.382 87.6191C173.75 87.3083 173.853 85.7857 173.947 84.4184C174.454 76.9192 174.692 72.6517 173.46 72.2063C172.977 72.1189 172.48 72.1473 172.01 72.2891C171.6 72.346 171.211 72.5064 170.881 72.7552C170.67 72.9754 170.53 73.2529 170.477 73.5528C169.516 72.6985 168.315 72.163 167.038 72.0198H166.675C163.816 72.0198 161.89 74.195 161.248 74.9201C160.104 76.346 159.284 78.0033 158.844 79.7775C158.404 81.5517 158.354 83.4002 158.699 85.1953C158.699 85.3196 158.751 85.4439 158.782 85.5682C155.955 88.6756 154.826 89.0381 154.37 88.7895C154.277 88.7378 154.059 88.6238 153.893 86.8837C153.743 85.3889 153.743 83.883 153.893 82.3883C156.457 78.9494 158.335 75.0495 159.424 70.9012C160.885 65.1835 159.818 62.6147 159.052 61.5789C158.602 60.926 157.951 60.4384 157.198 60.1909C155.509 59.7041 153.841 60.916 153.293 61.3199C151.718 62.4697 150.185 65.0488 150.185 82.5229C150.185 83.2065 150.185 84.0145 150.185 84.8431C149.506 85.7166 148.762 86.5373 147.958 87.298C147.678 87.5569 147.098 88.1059 146.715 87.9609C146.332 87.8159 146.228 86.5211 146.228 86.1068C146.228 84.9363 146.311 83.134 146.404 81.2281C146.606 78.4119 146.644 75.5863 146.518 72.7656C146.497 72.4006 146.333 72.0585 146.063 71.8127C145.871 71.6867 145.654 71.6023 145.428 71.5648C145.201 71.5274 144.969 71.5377 144.747 71.5951C144.401 71.6544 144.071 71.7854 143.778 71.9799C143.486 72.1743 143.237 72.4279 143.048 72.7242C142.844 73.1488 142.775 73.6263 142.852 74.0914C142.852 74.6611 142.852 77.2921 142.852 82.5747C142.852 83.1651 142.852 83.6105 142.852 83.9109C142.141 84.9117 141.294 85.8078 140.335 86.5729C139.682 87.0805 137.683 88.6445 136.854 88.0852C136.419 87.7848 136.45 86.6143 136.544 84.2424C136.699 80.617 136.813 76.6395 136.958 74.1329C136.958 73.3975 137.082 72.1545 136.388 71.7712C135.694 71.388 134.938 71.8852 134.493 72.2581C133.978 72.733 133.638 73.3682 133.529 74.0604C133.171 76.4051 132.987 78.7733 132.98 81.1453C132.98 81.5803 132.98 82.0257 132.98 82.4711C132.224 83.5532 131.345 84.5438 130.36 85.4232C129.324 86.3243 127.449 87.992 126.413 87.4948C125.605 87.0805 125.605 85.4232 125.605 84.7499C125.605 79.9127 125.678 76.1423 125.73 73.2317L127.045 73.1696C130.474 72.9935 131.51 72.9417 131.986 72.0509C132.172 71.7048 132.243 71.3086 132.189 70.9195C132.135 70.5304 131.959 70.1686 131.686 69.8861C131.178 69.4925 130.443 69.7411 129.614 70L129.293 70.1139C128.128 70.4742 126.942 70.7579 125.74 70.9633C125.864 66.1986 126.009 64.5206 126.02 64.4999C126.082 63.7748 126.154 62.0657 125.398 61.755C125.139 61.6514 124.746 61.755 123.876 62.0036C123.536 62.0701 123.208 62.1852 122.902 62.3454C122.634 62.614 122.43 62.9401 122.306 63.299C122.182 63.6578 122.142 64.0401 122.187 64.417C122.187 65.6703 122.187 68.6224 122.063 71.5123C121.265 71.5951 120.602 71.6366 120.219 71.6469C119.836 71.6573 119.183 71.6469 118.945 72.1027C118.903 72.2045 118.881 72.3136 118.881 72.4238C118.881 72.534 118.903 72.6431 118.945 72.7449C119.152 73.2835 120.095 73.4389 121.514 73.4389H122.001C122.001 74.4747 121.856 78.0171 121.814 78.8147C121.814 80.1198 121.638 82.4608 121.752 84.7188C121.317 85.071 120.872 85.4232 120.426 85.7546C117.982 87.5776 117.381 87.6605 117.122 87.5362C116.49 87.2255 116.594 85.7028 116.687 84.3356C117.205 76.8363 117.433 72.5688 116.2 72.1234C115.717 72.0361 115.22 72.0645 114.75 72.2063C114.34 72.2609 113.951 72.4215 113.621 72.6724C113.411 72.8926 113.27 73.1701 113.217 73.47C112.227 72.6319 110.999 72.1248 109.706 72.0198C106.598 71.823 104.527 74.0914 103.895 74.9097C102.753 76.3366 101.934 77.9941 101.494 79.7679C101.054 81.5417 101.004 83.3898 101.347 85.1849C101.347 85.3921 101.43 85.5993 101.481 85.7961C99.2856 88.3959 98.5087 88.6549 98.229 88.5099C97.9494 88.3649 98.0322 87.4741 98.229 84.6774V84.2838C98.5916 79.5191 98.6537 78.2554 97.8561 77.8203C97.6935 77.7465 97.5169 77.7083 97.3382 77.7083C97.1596 77.7083 96.983 77.7465 96.8203 77.8203C96.3163 77.9622 95.7992 78.0524 95.277 78.0897C94.4799 78.145 93.6791 78.0962 92.8946 77.9446C93.6922 76.9088 95.1838 74.5368 94.6451 72.9728C94.5876 72.8052 94.5037 72.6478 94.3965 72.5067C93.5783 71.4709 91.4134 71.4709 90.1083 72.5067C89.6333 72.9042 89.2753 73.4233 89.0725 74.0086C88.7917 74.7532 88.6922 75.554 88.7823 76.3447C88.8724 77.1354 89.1494 77.8933 89.5904 78.5558C89.7908 78.8408 90.0237 79.1015 90.2844 79.3326C88.9482 81.0521 87.6327 82.7508 86.4001 84.3874C86.5555 81.4767 86.7419 78.0275 86.9595 74.0293C86.9595 73.6253 87.0527 72.372 86.4105 72.0509C86.1841 71.9832 85.9429 71.9832 85.7165 72.0509C85.0709 72.0609 84.4516 72.3079 83.9763 72.7449C83.7443 73.0399 83.6201 73.4054 83.6242 73.7807C82.6276 72.8023 81.3341 72.1828 79.947 72.0198C76.8396 71.8127 74.768 74.1847 74.1258 74.9719C72.9741 76.4401 72.1515 78.1387 71.7137 79.9526C71.2758 81.7666 71.233 83.6534 71.5881 85.4853L71.6502 85.765C70.707 86.871 69.5426 87.7672 68.2321 88.3959C67.7349 88.6134 67.4863 88.6652 67.2584 88.5617C66.4712 88.2198 66.6266 86.1586 66.8752 82.7301C66.8752 82.1811 66.958 81.601 66.9995 80.9796C67.4345 74.5472 67.2688 72.6931 66.1708 72.0509C65.8059 71.8945 65.4129 71.8138 65.0159 71.8138C64.6188 71.8138 64.2259 71.8945 63.861 72.0509C62.3383 72.4859 60.9296 73.8325 57.9465 79.5087C57.9465 79.2394 57.9465 78.8251 57.9465 78.3279C58.1433 72.5895 57.5115 72.113 57.2318 72.0095C56.9084 71.9706 56.5815 71.9706 56.2581 72.0095C55.7834 72.0061 55.3136 72.105 54.8805 72.2995C54.2176 72.7345 54.2694 73.7703 54.2901 74.1225C54.373 75.5519 54.2901 77.0228 54.2901 78.4315C54.2901 78.5972 54.2901 78.7733 54.2901 78.9494C54.2901 79.1255 54.0622 79.0944 53.9379 79.1462C53.28 79.4497 52.5826 79.6589 51.8663 79.7677C51.6214 77.8284 50.9415 75.9695 49.8776 74.3297C49.0984 73.07 47.8563 72.1663 46.418 71.8127C45.7157 71.6639 44.9895 71.6702 44.29 71.8312C43.5904 71.9922 42.9345 72.304 42.368 72.7449C42.0314 73.0372 41.7507 73.3882 41.5393 73.7807C40.3238 74.2046 39.2362 74.931 38.3791 75.8914C37.5219 76.8519 36.9234 78.0148 36.64 79.2705C36.3561 80.2821 36.2098 81.3273 36.2049 82.3779C34.3117 84.9977 31.5076 86.8153 28.3431 87.4741C24.3139 88.2509 21.7243 87.2048 20.2535 86.1897C14.7326 82.3883 15.4784 72.9313 18.1819 67.5451C19.6884 64.6562 22.0557 62.3071 24.9561 60.8228C25.9919 60.3152 28.6021 59.2483 30.363 60.3774C31.9581 61.4132 33.0975 64.1891 32.1135 65.8671C31.9961 66.0529 31.918 66.2607 31.8842 66.4778C31.8504 66.695 31.8615 66.9167 31.9169 67.1293C31.9722 67.342 32.0706 67.541 32.206 67.7141C32.3414 67.8872 32.5108 68.0306 32.7039 68.1356C32.8802 68.2574 33.0797 68.3415 33.2901 68.3826C33.5004 68.4236 33.717 68.4207 33.9261 68.374C34.1353 68.3273 34.3325 68.2378 34.5054 68.1112C34.6783 67.9846 34.8232 67.8236 34.9309 67.6384C36.2878 65.4839 36.64 63.4951 35.9667 61.8068C35.6552 61.0236 35.1782 60.3169 34.5683 59.7352C33.0249 58.3088 31.0139 57.4948 28.9128 57.446C26.4741 57.3307 24.0558 57.9398 21.9626 59.1965C18.8704 60.9985 16.3131 63.5904 14.5529 66.7066C12.7928 69.8228 11.8932 73.351 11.9463 76.9295C12.1638 82.9787 14.3287 87.5362 18.0576 89.7321C19.81 90.7543 21.8089 91.2773 23.8374 91.2444C24.4923 91.2445 25.1464 91.1996 25.7951 91.1097C30.8602 90.4468 34.3508 87.0701 36.4017 84.3459C36.6529 86.0474 37.3699 87.6463 38.4733 88.9656C39.0787 89.6358 39.8213 90.1678 40.6506 90.5253C41.48 90.8828 42.3766 91.0574 43.2795 91.0372C44.8344 91.0297 46.3534 90.569 47.6506 89.7114C48.913 88.7904 49.9539 87.5992 50.6976 86.2248C51.4412 84.8504 51.8688 83.3274 51.9492 81.7668C52.7645 81.6016 53.5525 81.3227 54.2901 80.9381C54.2901 81.021 54.2901 81.1039 54.2901 81.1867C54.2901 82.699 54.3419 84.2941 54.3937 85.7236C54.3937 87.0183 54.4766 88.3545 54.4869 89.67C54.4638 89.8888 54.4931 90.11 54.5724 90.3154C54.6516 90.5207 54.7785 90.7042 54.9427 90.8508C55.1307 90.962 55.3457 91.0193 55.5641 91.0165C56.022 90.9897 56.4696 90.8699 56.8796 90.6643C58.1537 89.96 58.0915 88.2924 57.9154 85.2574C57.9154 84.5738 57.9154 83.797 57.8429 82.9787C58.8787 81.3317 60.0388 79.7055 61.1989 78.1311C62.0276 77.0021 62.8044 75.987 63.1359 75.987C63.4674 75.987 63.3534 77.261 63.2084 78.8665C63.0634 80.472 62.8769 82.44 62.8562 85.0814C62.8562 88.0645 63.0427 89.8357 64.296 90.6954C64.8268 91.0345 65.4481 91.2043 66.0776 91.1823H66.2122C68.491 91.1823 70.6144 89.4421 72.1474 87.7537C72.5992 88.9769 73.4445 90.0152 74.5505 90.7058C75.3297 91.1012 76.1938 91.3003 77.0675 91.2858C77.8274 91.2889 78.5817 91.1556 79.2945 90.8922C80.9932 90.2707 81.884 89.0381 82.9198 87.6087C83.0234 87.4741 83.1063 87.3187 83.1995 87.184L83.1373 88.862C80.0299 93.0778 77.4922 96.7342 75.8245 99.4066C74.9752 100.753 73.2143 103.55 74.1154 106.336C74.4668 107.324 75.066 108.205 75.8556 108.895C76.7582 109.704 77.9378 110.134 79.1495 110.096C80.3705 110.104 81.5653 109.743 82.578 109.06C83.1489 108.641 83.6312 108.113 83.997 107.507C84.9694 105.916 85.4855 104.088 85.4886 102.224C85.7155 100.347 85.8296 98.4587 85.8304 96.5684C85.8304 95.7191 85.9444 92.7774 86.224 87.4533C87.8813 85.0296 89.5904 82.6161 91.3098 80.2027C92.5437 80.8312 93.961 81.0001 95.3081 80.6792C95.132 82.6265 94.9559 84.6774 94.7902 86.7594C94.6866 88.0438 94.5726 89.6285 95.4841 90.2915C95.9351 90.5579 96.4426 90.7141 96.9653 90.7472C96.9653 90.7472 98.1151 90.6747 98.343 90.6333C99.6274 90.4158 101.709 87.9713 101.792 87.8677L101.989 87.6294C102.449 88.7696 103.267 89.7294 104.32 90.364C105.099 90.7594 105.963 90.9585 106.837 90.944C107.596 90.942 108.349 90.8088 109.064 90.5504C110.581 89.8855 111.85 88.758 112.689 87.3291L112.886 87.0287C112.886 89.0381 113.01 90.2707 113.922 90.8197C114.22 90.9925 114.561 91.0786 114.906 91.0683C115.433 91.044 115.953 90.9392 116.449 90.7576C118.003 90.2604 118.893 89.3282 120.592 87.4844L121.69 86.3347C121.77 87.1638 121.933 87.9827 122.177 88.7792C122.364 89.4308 122.77 89.998 123.327 90.3847C123.758 90.6413 124.254 90.7706 124.756 90.7576C125.386 90.7344 126.008 90.612 126.6 90.395C128.254 89.7595 129.705 88.6852 130.795 87.2876C131.437 86.5729 132.058 85.8168 132.649 85.0503C132.649 87.039 132.742 88.976 133.405 89.8357C133.541 90.0091 133.698 90.1656 133.871 90.3018C133.871 90.3018 133.964 90.3018 133.964 90.3018C134.601 90.5371 135.274 90.6598 135.953 90.6643H136.502C138.76 90.4365 140.221 88.831 141.774 87.1322C142.064 86.8111 142.344 86.4797 142.624 86.0964C142.624 89.0485 142.841 89.9186 143.556 90.3743C143.968 90.6159 144.448 90.7177 144.923 90.6643C145.159 90.6605 145.394 90.6432 145.628 90.6126C146.773 90.3984 147.808 89.7946 148.559 88.9035C149.191 88.2716 149.812 87.5776 150.413 86.8319C150.682 88.5306 151.242 90.0429 152.485 90.5815C152.811 90.7239 153.164 90.7946 153.52 90.7886H153.614C155.965 90.7886 157.995 88.717 159.228 87.008C159.663 88.3521 160.563 89.4976 161.765 90.2397C162.544 90.6363 163.409 90.8355 164.282 90.8197C165.042 90.8177 165.795 90.6845 166.509 90.4261C168.024 89.7606 169.289 88.633 170.124 87.2048C170.197 87.1115 170.259 87.008 170.332 86.9044C170.383 88.9138 170.445 90.1464 171.367 90.6954C171.665 90.8692 172.006 90.9554 172.351 90.944C172.875 90.9186 173.392 90.8139 173.884 90.6333C175.448 90.1361 176.329 89.2039 178.09 87.3601L179.188 86.2104C179.268 87.0395 179.431 87.8584 179.675 88.6549C179.861 89.3065 180.267 89.8737 180.824 90.2604C181.24 90.5215 181.721 90.6614 182.212 90.6643C182.842 90.6411 183.464 90.5188 184.056 90.3018C185.709 89.6635 187.159 88.5898 188.251 87.1944C188.997 86.3658 189.722 85.475 190.405 84.5634C190.405 85.071 190.405 85.5371 190.405 85.9721C190.405 88.6135 190.468 89.815 191.441 90.3847C191.865 90.608 192.34 90.7152 192.819 90.6954C193.198 90.6917 193.577 90.6501 193.948 90.5711C194.779 90.3771 195.552 89.9904 196.206 89.4421C197.283 88.5735 198.24 87.567 199.054 86.4486C199.402 87.3357 199.896 88.1584 200.515 88.8828C201.115 89.5541 201.854 90.0871 202.68 90.4447C203.506 90.8024 204.4 90.9763 205.3 90.9544C206.848 90.944 208.36 90.4833 209.651 89.6285C210.91 88.708 211.949 87.5182 212.691 86.1456C213.433 84.7731 213.859 83.2524 213.939 81.6943C214.766 81.5267 215.565 81.2407 216.311 80.8449C216.311 80.9485 216.311 81.0417 216.311 81.1349C216.311 82.6472 216.311 84.1802 216.404 85.6718C216.404 86.9665 216.487 88.3027 216.497 89.6182C216.476 89.8378 216.508 90.0593 216.589 90.2645C216.67 90.4698 216.798 90.6529 216.964 90.799C217.151 90.9128 217.366 90.9703 217.585 90.9647C218.075 90.9314 218.551 90.7937 218.983 90.5608C220.247 89.8564 220.185 88.1888 220.019 85.1539C220.019 84.4702 219.957 83.6934 219.947 82.8751C220.982 81.2282 222.132 79.6019 223.292 78.0275C224.131 76.8985 224.908 75.8834 225.229 75.8834C225.55 75.8834 225.457 77.1574 225.312 78.7629C225.167 80.3684 224.981 82.3365 224.95 84.9778C224.95 87.9609 225.136 89.7321 226.4 90.5918C226.931 90.9309 227.552 91.1007 228.181 91.0787H228.306C231.486 91.0787 234.334 87.7537 235.753 85.7961C236.167 86.1793 236.582 86.5626 237.006 86.9354C238.462 88.1157 239.755 89.4847 240.849 91.0062C241.461 92.1856 241.708 93.5199 241.561 94.8401C241.413 96.1604 240.877 97.4071 240.021 98.4225C238.984 99.5708 237.568 100.306 236.033 100.494C235.268 100.67 234.475 100.688 233.703 100.549C232.93 100.411 232.194 100.117 231.537 99.6862C230.968 99.2608 230.498 98.7164 230.16 98.0911C230.756 98.0341 231.33 97.8391 231.838 97.5214C232.518 97.1233 233.054 96.5196 233.368 95.7973C233.683 95.075 233.76 94.2714 233.588 93.5025C233.464 93.1331 233.256 92.7972 232.981 92.5206C232.707 92.2441 232.372 92.0343 232.003 91.9073C231.618 91.8347 231.221 91.8481 230.842 91.9465C230.462 92.045 230.109 92.2262 229.808 92.477C228.088 93.72 228.171 96.2888 228.233 96.9517C227.737 97.013 227.234 96.9778 226.752 96.8481C226.534 96.7931 226.319 96.7239 226.11 96.641C225.664 96.4752 225.281 96.3302 225.001 96.5581C224.946 96.6002 224.9 96.6532 224.867 96.7138C224.833 96.7744 224.812 96.8412 224.805 96.9103C224.805 97.625 226.545 98.1014 226.752 98.1532C227.334 98.2972 227.936 98.3427 228.534 98.2879C228.66 98.5532 228.806 98.8094 228.969 99.0544C229.423 99.7226 229.975 100.319 230.605 100.826C232.058 101.895 233.814 102.476 235.618 102.483C237.659 102.473 239.637 101.776 241.233 100.505C242.934 99.1527 244.122 97.2594 244.599 95.139C244.813 94.1166 244.841 93.064 244.682 92.0316C244.226 89.1728 242.362 87.5569 240.549 85.9618ZM43.5384 87.4533C42.1194 87.588 40.9178 86.7594 40.0788 85.0296C39.3614 83.6724 39.0575 82.1348 39.2048 80.6068C39.3521 79.0788 39.944 77.6275 40.9075 76.4324C40.8807 77.1297 40.9975 77.825 41.2505 78.4754C41.5035 79.1257 41.8874 79.7172 42.3783 80.2131C43.7249 81.5803 46.0347 82.2847 48.8936 82.1811C48.1685 84.5324 45.869 87.2151 43.5384 87.4533ZM44.3567 78.6594C43.756 78.0482 42.7926 76.8674 43.1552 75.8316C43.3041 75.4686 43.5396 75.1477 43.8411 74.8967C44.1426 74.6457 44.501 74.4724 44.885 74.3918C45.1289 74.3307 45.3793 74.2994 45.6308 74.2986C46.2309 74.2841 46.8147 74.4947 47.2673 74.889C47.911 75.5973 48.408 76.426 48.7298 77.3273C49.0515 78.2287 49.1917 79.1848 49.1421 80.1405C48.2842 80.3025 47.3996 80.2522 46.5656 79.994C45.7315 79.7358 44.9732 79.2777 44.3567 78.6594ZM83.3756 84.7706C82.653 86.0208 81.5177 86.9803 80.1646 87.4844C79.479 87.7732 78.7158 87.8207 77.9997 87.6191C75.9281 86.9251 75.4827 83.7866 75.3791 82.844C75.0166 79.5709 76.4978 74.5576 79.6259 74.2054C80.3911 74.1985 81.1487 74.358 81.8462 74.6728C82.5437 74.9875 83.1645 75.4501 83.6656 76.0284C83.6138 77.9861 83.5102 81.1039 83.3756 84.7706ZM205.197 75.8212C205.346 75.4529 205.584 75.127 205.89 74.8723C206.195 74.6176 206.558 74.442 206.947 74.3608C207.195 74.2988 207.449 74.2675 207.703 74.2675C208.312 74.2537 208.903 74.468 209.361 74.8683C210.011 75.5828 210.511 76.42 210.833 77.3307C211.155 78.2415 211.292 79.2073 211.236 80.1716C210.37 80.3375 209.478 80.2883 208.636 80.0282C207.794 79.7681 207.029 79.3051 206.409 78.6801C205.798 78.0689 204.824 76.8674 205.197 75.8212ZM210.966 82.1397C210.293 84.5117 207.962 87.2462 205.611 87.4844C204.182 87.6294 202.97 86.7801 202.12 85.0503C201.392 83.6731 201.087 82.1115 201.244 80.5616C201.401 79.0118 202.012 77.5427 203.001 76.3391C202.962 77.0442 203.068 77.7498 203.312 78.4124C203.556 79.075 203.933 79.6807 204.42 80.1923C205.777 81.5596 208.107 82.2536 210.966 82.1397ZM170.445 81.4767C170.383 82.5643 170.332 83.6623 170.3 84.7706C169.588 85.8972 168.52 86.7539 167.266 87.2048C166.576 87.4786 165.817 87.5222 165.101 87.3291C163.029 86.6454 162.573 83.5691 162.47 82.6472C162.118 79.4362 163.588 74.5472 166.727 74.1743C167.446 74.1528 168.162 74.2848 168.827 74.5617C169.491 74.8385 170.089 75.2538 170.58 75.7798C170.644 77.6798 170.6 79.5819 170.445 81.4767ZM153.728 76.5152C153.8 64.4066 155.354 63.0497 155.799 63.0497C155.916 63.0357 156.034 63.0357 156.151 63.0497C156.405 63.0483 156.656 63.1013 156.887 63.2051C157.313 63.4542 157.636 63.8472 157.798 64.3134C159.393 68.1666 155.83 75.9662 155.789 76.0388C155.17 77.3906 154.478 78.7079 153.717 79.9852C153.717 79.053 153.717 77.8825 153.728 76.5152ZM113.124 81.4767C113.048 82.5678 112.996 83.6657 112.969 84.7706C112.256 85.8972 111.188 86.7539 109.934 87.2048C109.244 87.4786 108.485 87.5222 107.769 87.3291C105.697 86.6454 105.252 83.5691 105.148 82.6472C104.786 79.4362 106.267 74.5472 109.395 74.1743C110.114 74.1541 110.83 74.2868 111.494 74.5635C112.158 74.8403 112.756 75.2548 113.248 75.7798C113.311 77.6796 113.269 79.5815 113.124 81.4767ZM92.1488 73.356C92.3244 73.3497 92.4977 73.3966 92.646 73.4907C92.8851 73.7187 93.0262 74.0307 93.0396 74.3608C93.0985 75.5614 92.6901 76.7381 91.9002 77.6443C91.3458 77.2218 90.9338 76.6399 90.7194 75.9766C90.5838 75.6642 90.5235 75.3242 90.5433 74.9842C90.5631 74.6442 90.6624 74.3135 90.8334 74.0189C90.9918 73.82 91.1914 73.6577 91.4185 73.5433C91.6455 73.4289 91.8947 73.365 92.1488 73.356ZM82.9094 96.7756C82.9094 98.5261 82.9094 100.287 82.7644 101.955C82.6298 103.819 82.4641 104.731 81.8219 105.611C81.6101 106.018 81.304 106.369 80.9292 106.634C80.5545 106.898 80.1218 107.07 79.6674 107.134C79.2211 107.072 78.7936 106.914 78.4144 106.671C78.0352 106.428 77.7135 106.105 77.4715 105.725C75.9488 103.446 78.8387 98.6919 82.7852 92.7153L83.1373 92.1663C83.0234 93.6889 82.9612 95.2426 82.9094 96.7756ZM231.372 93.5957C231.548 93.5955 231.723 93.6333 231.884 93.7066C232.045 93.7799 232.188 93.8869 232.304 94.0204C232.666 94.559 232.231 95.3669 232.086 95.6051C231.798 95.9798 231.428 96.2837 231.004 96.4937C230.581 96.7037 230.115 96.8143 229.642 96.817C229.542 96.4602 229.513 96.0871 229.558 95.7192C229.602 95.3513 229.719 94.9957 229.901 94.6729C230.031 94.3807 230.235 94.1275 230.493 93.9385C230.751 93.7495 231.054 93.6314 231.372 93.5957Z" fill="#E81948"/>
</svg>
