<svg width="25" height="25" viewBox="0 0 25 25" fill="none" xmlns="http://www.w3.org/2000/svg">
<path d="M12.5 0C19.4036 0 25 5.59644 25 12.5C25 19.4036 19.4036 25 12.5 25C5.59644 25 0 19.4036 0 12.5C0 5.59644 5.59644 0 12.5 0ZM12.5 6.25C12.1165 6.25 11.7975 6.52637 11.7313 6.89082L11.7188 7.03125V11.7188H7.03125C6.59978 11.7188 6.25 12.0685 6.25 12.5C6.25 12.8835 6.52637 13.2025 6.89082 13.2687L7.03125 13.2812H11.7188V17.9688C11.7188 18.4002 12.0685 18.75 12.5 18.75C12.8835 18.75 13.2025 18.4736 13.2687 18.1092L13.2812 17.9688V13.2812H17.9688C18.4002 13.2812 18.75 12.9314 18.75 12.5C18.75 12.1165 18.4736 11.7975 18.1092 11.7313L17.9688 11.7188H13.2812V7.03125C13.2812 6.59978 12.9314 6.25 12.5 6.25Z" fill="#9D9D9D"/>
</svg>
