<svg width="16" height="13" viewBox="0 0 16 13" fill="none" xmlns="http://www.w3.org/2000/svg">
<path d="M2.18175 3.8235C1.78011 3.8235 1.45454 4.16595 1.45454 4.58823V10.706C1.45454 11.1283 1.78011 11.4707 2.18175 11.4707H13.8182C14.2198 11.4707 14.5454 11.1283 14.5454 10.706V4.58823C14.5454 4.16596 14.2198 3.8235 13.8182 3.8235H11.6364C11.4074 3.8235 11.1919 3.71025 11.0545 3.51763L9.85446 1.83531C9.7172 1.64269 9.50165 1.52945 9.27267 1.52945H6.72721C6.49825 1.52945 6.2827 1.6427 6.14543 1.83531L4.94543 3.51763C4.80802 3.71025 4.59247 3.8235 4.36349 3.8235H2.18175ZM4 2.29402L4.98178 0.917585C5.39383 0.340025 6.04051 0 6.72725 0H9.27271C9.95945 0 10.6061 0.340033 11.0182 0.917585L12 2.29402H13.8182C15.0231 2.29402 16 3.32122 16 4.58819V10.7059C16 11.9729 15.0231 13 13.8182 13H2.18178C0.976867 13 0 11.973 0 10.7059V4.58819C0 3.32122 0.976867 2.29402 2.18178 2.29402H4ZM8 8.79417C9.00412 8.79417 9.8181 7.93829 9.8181 6.88248C9.8181 5.82657 9.00412 4.97064 8 4.97064C6.99573 4.97064 6.18175 5.82653 6.18175 6.88248C6.18175 7.93825 6.99573 8.79417 8 8.79417ZM8 10.3236C6.19245 10.3236 4.72717 8.78299 4.72717 6.88252C4.72717 4.9819 6.19245 3.44124 8 3.44124C9.80739 3.44124 11.2727 4.9819 11.2727 6.88252C11.2727 8.78303 9.80739 10.3236 8 10.3236ZM2.90892 6.11794C2.50713 6.11794 2.18155 5.77549 2.18155 5.3532C2.18155 4.93077 2.50713 4.58847 2.90892 4.58847C3.31056 4.58847 3.63613 4.93077 3.63613 5.3532C3.63613 5.77548 3.31056 6.11794 2.90892 6.11794Z" fill="#E81948"/>
</svg>
