<svg width="22" height="22" viewBox="0 0 22 22" fill="none" xmlns="http://www.w3.org/2000/svg">
<path d="M10.5131 3.88702H4.39069C3.92675 3.88702 3.48182 4.06896 3.15377 4.39281C2.82572 4.71665 2.64142 5.15588 2.64142 5.61387V17.7018C2.64142 18.1598 2.82572 18.5991 3.15377 18.9229C3.48182 19.2468 3.92675 19.4287 4.39069 19.4287H16.6356C17.0995 19.4287 17.5445 19.2468 17.8725 18.9229C18.2006 18.5991 18.3849 18.1598 18.3849 17.7018V11.6579M17.0729 2.59188C17.4209 2.24839 17.8928 2.05542 18.3849 2.05542C18.8769 2.05542 19.3489 2.24839 19.6968 2.59188C20.0448 2.93538 20.2402 3.40125 20.2402 3.88702C20.2402 4.37279 20.0448 4.83867 19.6968 5.18216L11.3878 13.3847L7.88923 14.2481L8.76387 10.7944L17.0729 2.59188Z" stroke="#E81948" stroke-width="1.5" stroke-linecap="round" stroke-linejoin="round"/>
</svg>
