<svg width="24" height="25" viewBox="0 0 24 25" fill="none" xmlns="http://www.w3.org/2000/svg">
<path d="M10.208 0.525197C10.9486 -0.175066 12.1072 -0.175066 12.8479 0.525197L22.1538 9.32356C22.7296 9.86795 23.0558 10.6254 23.0558 11.4177V22.118C23.0558 23.7096 21.7655 25 20.1739 25H16.3312C14.7396 25 13.4493 23.7096 13.4493 22.118V17.3147C13.4493 16.7842 13.0191 16.3541 12.4886 16.3541H10.5673C10.0367 16.3541 9.60662 16.7842 9.60662 17.3147V22.118C9.60662 23.7096 8.31632 25 6.72464 25H2.88201C1.29033 25 3.05176e-05 23.7096 3.05176e-05 22.118V11.4177C3.05176e-05 10.6254 0.32627 9.86795 0.902051 9.32356L10.208 0.525197ZM11.5279 1.92132L2.22202 10.7197C2.0301 10.9011 1.92135 11.1536 1.92135 11.4177V22.118C1.92135 22.6485 2.35145 23.0787 2.88201 23.0787H6.72464C7.2552 23.0787 7.6853 22.6485 7.6853 22.118V17.3147C7.6853 15.7231 8.9756 14.4328 10.5673 14.4328H12.4886C14.0803 14.4328 15.3706 15.7231 15.3706 17.3147V22.118C15.3706 22.6485 15.8008 23.0787 16.3312 23.0787H20.1739C20.7043 23.0787 21.1345 22.6485 21.1345 22.118V11.4177C21.1345 11.1536 21.0258 10.9011 20.8338 10.7197L11.5279 1.92132Z" fill="#9D9D9D"/>
</svg>
