<svg width="25" height="25" viewBox="0 0 25 25" fill="none" xmlns="http://www.w3.org/2000/svg">
<path d="M21.1266 0H3.93906C2.90501 0.000316393 1.91265 0.407711 1.17666 1.13405C0.440668 1.8604 0.0202125 2.84729 0.00625 3.88125L0 3.87344V21.0609C0.000207126 22.1056 0.415281 23.1074 1.15395 23.846C1.89263 24.5847 2.89442 24.9998 3.93906 25H17.2203C18.0828 25 18.75 24.3 18.75 23.4375V7.03125C18.75 6.6 18.4328 6.25 18.0016 6.25H3.93906C2.62812 6.25 1.5625 5.24844 1.5625 3.93906C1.56312 3.30895 1.81371 2.70482 2.25926 2.25926C2.70482 1.81371 3.30895 1.56312 3.93906 1.5625H20.3125V19.5312C20.3125 19.9625 20.6953 20.3125 21.1266 20.3125C21.5578 20.3125 21.875 19.9625 21.875 19.5312V0.78125C21.875 0.35 21.5578 0 21.1266 0ZM3.93906 7.8125H17.1891L17.2203 23.4375H3.93906C3.30895 23.4369 2.70482 23.1863 2.25926 22.7407C1.81371 22.2952 1.56312 21.6911 1.5625 21.0609V7.04844C2.21875 7.52969 3.03906 7.8125 3.93906 7.8125Z" fill="#9D9D9D"/>
</svg>
