<svg width="24" height="23" viewBox="0 0 24 23" fill="none" xmlns="http://www.w3.org/2000/svg">
<path d="M9.12195 10.7697C8.93099 10.7692 8.74765 10.8444 8.61227 10.9788C8.47688 11.1133 8.40054 11.2959 8.40003 11.4865C8.39952 11.6771 8.47489 11.8601 8.60955 11.9953C8.74422 12.1305 8.92715 12.2067 9.11811 12.2072L9.12195 10.7697ZM20.1552 12.0213C20.2223 11.9546 20.2755 11.8755 20.3119 11.7883C20.3482 11.7011 20.3671 11.6077 20.3672 11.5133C20.3674 11.4188 20.349 11.3253 20.3129 11.238C20.2769 11.1507 20.2239 11.0713 20.1571 11.0045L15.5856 6.4198C15.5189 6.35291 15.4396 6.2998 15.3523 6.2635C15.2649 6.2272 15.1713 6.20843 15.0767 6.20825C14.9822 6.20808 14.8885 6.2265 14.801 6.26246C14.7136 6.29843 14.6341 6.35124 14.5671 6.41788C14.5001 6.48452 14.4469 6.56368 14.4105 6.65084C14.3741 6.738 14.3553 6.83146 14.3552 6.92588C14.355 7.0203 14.3734 7.11382 14.4095 7.20112C14.4455 7.28842 14.4984 7.36778 14.5651 7.43467L18.6288 11.5095L14.5469 15.5661C14.4799 15.6328 14.4267 15.7119 14.3903 15.7991C14.354 15.8863 14.3352 15.9797 14.335 16.0741C14.3348 16.1685 14.3533 16.2621 14.3893 16.3494C14.4253 16.4367 14.4782 16.516 14.545 16.5829C14.6117 16.6498 14.691 16.7029 14.7784 16.7392C14.8657 16.7755 14.9593 16.7943 15.0539 16.7945C15.1485 16.7946 15.2421 16.7762 15.3296 16.7403C15.417 16.7043 15.4965 16.6515 15.5635 16.5848L20.1552 12.0213ZM9.11811 12.2072L19.6455 12.2302L19.6493 10.7927L9.12195 10.7697L9.11811 12.2072Z" fill="#E81948"/>
<path d="M13.92 2.875H5.27999C4.77077 2.875 4.28241 3.07693 3.92234 3.43638C3.56227 3.79582 3.35999 4.28334 3.35999 4.79167V19.2175C3.35999 19.7187 3.76703 20.125 4.26911 20.125H13.92" stroke="#E81948" stroke-width="2" stroke-linecap="round"/>
</svg>
