<svg width="23" height="25" viewBox="0 0 23 25" fill="none" xmlns="http://www.w3.org/2000/svg">
<path d="M8.32103 22.85C9.16825 23.5657 10.2811 24 11.5 24C12.7189 24 13.8318 23.5657 14.679 22.85M18.709 7.9C18.709 6.07001 17.9495 4.31496 16.5976 3.02096C15.2456 1.72696 13.412 1 11.5 1C9.58805 1 7.7544 1.72696 6.40244 3.02096C5.05049 4.31496 4.29096 6.07001 4.29096 7.9C4.29096 11.4537 3.35435 13.8869 2.30808 15.4962C1.42552 16.8538 0.984249 17.5325 1.00043 17.7219C1.01835 17.9315 1.06475 18.0115 1.24127 18.1368C1.40069 18.25 2.11935 18.25 3.55667 18.25H19.4433C20.8806 18.25 21.5993 18.25 21.7587 18.1368C21.9352 18.0115 21.9817 17.9315 21.9996 17.7219C22.0158 17.5325 21.5745 16.8538 20.6919 15.4962C19.6456 13.8869 18.709 11.4537 18.709 7.9Z" stroke="#9D9D9D" stroke-width="1.5" stroke-linecap="round" stroke-linejoin="round"/>
</svg>
