<svg width="25" height="25" viewBox="0 0 25 25" fill="none" xmlns="http://www.w3.org/2000/svg">
<path d="M9.20313 8.81254C9.15887 7.89213 9.48085 6.99164 10.0987 6.30796C10.7165 5.62427 11.5798 5.21301 12.5 5.1641C13.4202 5.21301 14.2836 5.62427 14.9014 6.30796C15.5192 6.99164 15.8411 7.89213 15.7969 8.81254C15.8396 9.73178 15.5169 10.6306 14.8992 11.3127C14.2815 11.9948 13.419 12.4048 12.5 12.4532C11.581 12.4048 10.7185 11.9948 10.1008 11.3127C9.48313 10.6306 9.1604 9.73178 9.20313 8.81254ZM23.4688 12.5C23.4721 14.6775 22.8216 16.8058 21.6016 18.6094C21.5696 18.6645 21.533 18.7168 21.4922 18.7657C20.4842 20.2171 19.1398 21.403 17.5739 22.222C16.008 23.041 14.2671 23.4688 12.5 23.4688C10.7329 23.4688 8.99198 23.041 7.42608 22.222C5.86018 21.403 4.51581 20.2171 3.50782 18.7657C3.46698 18.7168 3.43038 18.6645 3.39844 18.6094C2.44337 17.1868 1.83496 15.5602 1.62201 13.86C1.40905 12.1598 1.59749 10.4333 2.1722 8.81912C2.74691 7.2049 3.69189 5.74782 4.93137 4.56473C6.17085 3.38165 7.67033 2.50548 9.30954 2.00651C10.9488 1.50753 12.6821 1.39964 14.3705 1.69147C16.059 1.9833 17.6555 2.66674 19.0322 3.68697C20.4088 4.70721 21.5272 6.03585 22.2977 7.56634C23.0681 9.09682 23.4692 10.7866 23.4688 12.5ZM2.70313 12.5C2.70019 14.1645 3.12239 15.8022 3.92969 17.2578C5.625 15.0313 8.875 13.6407 12.5 13.6407C16.125 13.6407 19.375 15.0313 21.0703 17.2578C21.7963 15.9498 22.2132 14.4929 22.289 12.9989C22.3648 11.5048 22.0975 10.0132 21.5076 8.63845C20.9177 7.26367 20.0209 6.04219 18.8859 5.06766C17.7509 4.09312 16.4078 3.39138 14.9596 3.01625C13.5114 2.64111 11.9966 2.60253 10.5312 2.90346C9.06576 3.20438 7.6887 3.83684 6.50555 4.75233C5.3224 5.66783 4.36456 6.84206 3.70546 8.18503C3.04635 9.528 2.70349 11.004 2.70313 12.5Z" fill="#9D9D9D"/>
</svg>
