<svg width="23" height="23" viewBox="0 0 23 23" fill="none" xmlns="http://www.w3.org/2000/svg">
<path d="M11.5 14.375C13.0878 14.375 14.375 13.0878 14.375 11.5C14.375 9.91218 13.0878 8.625 11.5 8.625C9.91218 8.625 8.625 9.91218 8.625 11.5C8.625 13.0878 9.91218 14.375 11.5 14.375Z" stroke="#E81948" stroke-width="2" stroke-linecap="round" stroke-linejoin="round"/>
<path fill-rule="evenodd" clip-rule="evenodd" d="M18.5916 14.3749C18.4641 14.664 18.426 14.9846 18.4824 15.2955C18.5388 15.6064 18.687 15.8932 18.9079 16.1191L18.9654 16.1766C19.325 16.5362 19.5271 17.024 19.5271 17.5326C19.5271 18.0412 19.325 18.529 18.9654 18.8887C18.6058 19.2483 18.118 19.4504 17.6094 19.4504C17.1007 19.4504 16.613 19.2483 16.2533 18.8887L16.1958 18.8312C15.97 18.6102 15.6831 18.462 15.3722 18.4057C15.0613 18.3493 14.7407 18.3874 14.4516 18.5149C14.1682 18.6364 13.9265 18.8381 13.7562 19.0952C13.5859 19.3523 13.4945 19.6536 13.4933 19.962V20.1249C13.4933 20.6333 13.2914 21.1208 12.9319 21.4802C12.5725 21.8397 12.085 22.0416 11.5766 22.0416C11.0683 22.0416 10.5808 21.8397 10.2214 21.4802C9.86191 21.1208 9.65998 20.6333 9.65998 20.1249V20.0387C9.65256 19.7215 9.54989 19.4138 9.3653 19.1558C9.18072 18.8977 8.92277 18.7011 8.62498 18.5916C8.33593 18.464 8.01529 18.426 7.70442 18.4823C7.39354 18.5387 7.10667 18.6869 6.88081 18.9078L6.82331 18.9653C6.46367 19.325 5.97589 19.527 5.46727 19.527C4.95866 19.527 4.47087 19.325 4.11123 18.9653C3.75159 18.6057 3.54954 18.1179 3.54954 17.6093C3.54954 17.1007 3.75159 16.6129 4.11123 16.2533L4.16873 16.1958C4.38966 15.9699 4.53787 15.683 4.59423 15.3721C4.6506 15.0613 4.61255 14.7406 4.48498 14.4516C4.3635 14.1681 4.16179 13.9264 3.90468 13.7561C3.64756 13.5859 3.34628 13.4945 3.0379 13.4933H2.87498C2.36665 13.4933 1.87914 13.2913 1.51969 12.9319C1.16025 12.5724 0.958313 12.0849 0.958313 11.5766C0.958313 11.0683 1.16025 10.5807 1.51969 10.2213C1.87914 9.86185 2.36665 9.65992 2.87498 9.65992H2.96123C3.27843 9.6525 3.58607 9.54982 3.84414 9.36524C4.10222 9.18066 4.29879 8.92271 4.40831 8.62492C4.53588 8.33587 4.57394 8.01523 4.51757 7.70435C4.4612 7.39348 4.31299 7.10661 4.09206 6.88075L4.03456 6.82325C3.67492 6.46361 3.47287 5.97582 3.47287 5.46721C3.47287 4.9586 3.67492 4.47081 4.03456 4.11117C4.39421 3.75152 4.88199 3.54948 5.3906 3.54948C5.89922 3.54948 6.387 3.75152 6.74665 4.11117L6.80415 4.16867C7.03001 4.3896 7.31687 4.53781 7.62775 4.59417C7.93863 4.65054 8.25926 4.61249 8.54831 4.48492H8.62498C8.90843 4.36344 9.15016 4.16173 9.32044 3.90461C9.49071 3.6475 9.58208 3.34621 9.58331 3.03784V2.87492C9.58331 2.36659 9.78525 1.87908 10.1447 1.51963C10.5041 1.16019 10.9916 0.958252 11.5 0.958252C12.0083 0.958252 12.4958 1.16019 12.8553 1.51963C13.2147 1.87908 13.4166 2.36659 13.4166 2.87492V2.96117C13.4179 3.26955 13.5093 3.57084 13.6795 3.82795C13.8498 4.08506 14.0915 4.28677 14.375 4.40825C14.664 4.53582 14.9847 4.57387 15.2955 4.51751C15.6064 4.46114 15.8933 4.31293 16.1191 4.092L16.1766 4.0345C16.5363 3.67486 17.0241 3.47281 17.5327 3.47281C18.0413 3.47281 18.5291 3.67486 18.8887 4.0345C19.2484 4.39415 19.4504 4.88193 19.4504 5.39054C19.4504 5.89916 19.2484 6.38694 18.8887 6.74659L18.8312 6.80409C18.6103 7.02994 18.4621 7.31681 18.4057 7.62769C18.3494 7.93857 18.3874 8.2592 18.515 8.54825V8.62492C18.7641 9.20375 19.3315 9.58038 19.9621 9.58325H20.125C20.6333 9.58325 21.1208 9.78519 21.4803 10.1446C21.8397 10.5041 22.0416 10.9916 22.0416 11.4999C22.0416 12.0083 21.8397 12.4958 21.4803 12.8552C21.1208 13.2147 20.6333 13.4166 20.125 13.4166H20.0387C19.7304 13.4178 19.4291 13.5092 19.172 13.6795C18.9148 13.8497 18.7131 14.0915 18.5916 14.3749Z" stroke="#E81948" stroke-width="2" stroke-linecap="round" stroke-linejoin="round"/>
</svg>
