<svg width="25" height="23" viewBox="0 0 25 23" fill="none" xmlns="http://www.w3.org/2000/svg">
<path d="M12.4653 12.8861C15.9653 12.8861 18.7723 10.0445 18.7723 6.57913C18.7723 3.11379 15.9653 0.237549 12.4653 0.237549C8.96534 0.237549 6.15841 3.07913 6.15841 6.54448C6.15841 10.0098 8.96534 12.8861 12.4653 12.8861ZM12.4653 1.90091C15.0297 1.90091 17.1089 3.98012 17.1089 6.54448C17.1089 9.10884 15.0297 11.188 12.4653 11.188C9.90099 11.188 7.82178 9.14349 7.82178 6.57913C7.82178 4.01478 9.90099 1.90091 12.4653 1.90091ZM1.51485 22.7623H23.4851C23.9356 22.7623 24.3168 22.3811 24.3168 21.9306C24.3168 17.5643 20.7475 13.995 16.3812 13.995H8.61881C4.25247 13.995 0.683167 17.5643 0.683167 21.9306C0.683167 22.3811 1.06435 22.7623 1.51485 22.7623ZM8.61881 15.6583H16.3812C19.5693 15.6583 22.1683 18.0148 22.5842 21.0989H2.41584C2.83168 18.0148 5.43069 15.6583 8.61881 15.6583Z" fill="#E81948"/>
</svg>
